<?xml version="1.0" encoding="utf-8" standalone="no"?>
<!DOCTYPE svg PUBLIC "-//W3C//DTD SVG 1.1//EN"
  "http://www.w3.org/Graphics/SVG/1.1/DTD/svg11.dtd">
<svg xmlns:xlink="http://www.w3.org/1999/xlink" width="720pt" height="360pt" viewBox="0 0 720 360" xmlns="http://www.w3.org/2000/svg" version="1.1">
 <metadata>
  <rdf:RDF xmlns:dc="http://purl.org/dc/elements/1.1/" xmlns:cc="http://creativecommons.org/ns#" xmlns:rdf="http://www.w3.org/1999/02/22-rdf-syntax-ns#">
   <cc:Work>
    <dc:type rdf:resource="http://purl.org/dc/dcmitype/StillImage"/>
    <dc:date>2026-07-04T20:46:47.074405</dc:date>
    <dc:format>image/svg+xml</dc:format>
    <dc:creator>
     <cc:Agent>
      <dc:title>Matplotlib v3.11.0, https://matplotlib.org/</dc:title>
     </cc:Agent>
    </dc:creator>
   </cc:Work>
  </rdf:RDF>
 </metadata>
 <defs>
  <style type="text/css">*{stroke-linejoin: round; stroke-linecap: butt}</style>
 </defs>
 <g id="figure_1">
  <g id="patch_1">
   <path d="M 0 360 
L 720 360 
L 720 0 
L 0 0 
z
" style="fill: #ffffff"/>
  </g>
  <g id="axes_1">
   <g id="patch_2">
    <path d="M 45.082344 318.2 
L 672.037656 318.2 
L 672.037656 26.16 
L 45.082344 26.16 
z
" style="fill: #ffffff"/>
   </g>
   <g id="matplotlib.axis_1">
    <g id="xtick_1">
     <g id="line2d_1">
      <path d="M 75.145275 318.2 
L 75.145275 26.16 
" clip-path="url(#pf5d68d3113)" style="fill: none; stroke: #b0b0b0; stroke-opacity: 0.3; stroke-width: 0.8; stroke-linecap: square"/>
     </g>
     <g id="line2d_2">
      <defs>
       <path id="m8c44b1775b" d="M 0 0 
L 0 3.5 
" style="stroke: #000000; stroke-width: 0.8"/>
      </defs>
      <g>
       <use xlink:href="#m8c44b1775b" x="75.145275" y="318.2" style="stroke: #000000; stroke-width: 0.8"/>
      </g>
     </g>
     <g id="text_1">
      <!-- 2015 -->
      <g transform="translate(62.420275 332.797656) scale(0.1 -0.1)">
       <defs>
        <path id="DejaVuSans-15" d="M 1228 531 
L 3431 531 
L 3431 0 
L 469 0 
L 469 531 
Q 828 903 1448 1529 
Q 2069 2156 2228 2338 
Q 2531 2678 2651 2914 
Q 2772 3150 2772 3378 
Q 2772 3750 2511 3984 
Q 2250 4219 1831 4219 
Q 1534 4219 1204 4116 
Q 875 4013 500 3803 
L 500 4441 
Q 881 4594 1212 4672 
Q 1544 4750 1819 4750 
Q 2544 4750 2975 4387 
Q 3406 4025 3406 3419 
Q 3406 3131 3298 2873 
Q 3191 2616 2906 2266 
Q 2828 2175 2409 1742 
Q 1991 1309 1228 531 
z
" transform="scale(0.015625)"/>
        <path id="DejaVuSans-13" d="M 2034 4250 
Q 1547 4250 1301 3770 
Q 1056 3291 1056 2328 
Q 1056 1369 1301 889 
Q 1547 409 2034 409 
Q 2525 409 2770 889 
Q 3016 1369 3016 2328 
Q 3016 3291 2770 3770 
Q 2525 4250 2034 4250 
z
M 2034 4750 
Q 2819 4750 3233 4129 
Q 3647 3509 3647 2328 
Q 3647 1150 3233 529 
Q 2819 -91 2034 -91 
Q 1250 -91 836 529 
Q 422 1150 422 2328 
Q 422 3509 836 4129 
Q 1250 4750 2034 4750 
z
" transform="scale(0.015625)"/>
        <path id="DejaVuSans-14" d="M 794 531 
L 1825 531 
L 1825 4091 
L 703 3866 
L 703 4441 
L 1819 4666 
L 2450 4666 
L 2450 531 
L 3481 531 
L 3481 0 
L 794 0 
L 794 531 
z
" transform="scale(0.015625)"/>
        <path id="DejaVuSans-18" d="M 691 4666 
L 3169 4666 
L 3169 4134 
L 1269 4134 
L 1269 2991 
Q 1406 3038 1543 3061 
Q 1681 3084 1819 3084 
Q 2600 3084 3056 2656 
Q 3513 2228 3513 1497 
Q 3513 744 3044 326 
Q 2575 -91 1722 -91 
Q 1428 -91 1123 -41 
Q 819 9 494 109 
L 494 744 
Q 775 591 1075 516 
Q 1375 441 1709 441 
Q 2250 441 2565 725 
Q 2881 1009 2881 1497 
Q 2881 1984 2565 2268 
Q 2250 2553 1709 2553 
Q 1456 2553 1204 2497 
Q 953 2441 691 2322 
L 691 4666 
z
" transform="scale(0.015625)"/>
       </defs>
       <use xlink:href="#DejaVuSans-15"/>
       <use xlink:href="#DejaVuSans-13" transform="translate(63.625 0)"/>
       <use xlink:href="#DejaVuSans-14" transform="translate(127.25 0)"/>
       <use xlink:href="#DejaVuSans-18" transform="translate(190.875 0)"/>
      </g>
     </g>
    </g>
    <g id="xtick_2">
     <g id="line2d_3">
      <path d="M 132.26641 318.2 
L 132.26641 26.16 
" clip-path="url(#pf5d68d3113)" style="fill: none; stroke: #b0b0b0; stroke-opacity: 0.3; stroke-width: 0.8; stroke-linecap: square"/>
     </g>
     <g id="line2d_4">
      <g>
       <use xlink:href="#m8c44b1775b" x="132.26641" y="318.2" style="stroke: #000000; stroke-width: 0.8"/>
      </g>
     </g>
     <g id="text_2">
      <!-- 2016 -->
      <g transform="translate(119.54141 332.797656) scale(0.1 -0.1)">
       <defs>
        <path id="DejaVuSans-19" d="M 2113 2584 
Q 1688 2584 1439 2293 
Q 1191 2003 1191 1497 
Q 1191 994 1439 701 
Q 1688 409 2113 409 
Q 2538 409 2786 701 
Q 3034 994 3034 1497 
Q 3034 2003 2786 2293 
Q 2538 2584 2113 2584 
z
M 3366 4563 
L 3366 3988 
Q 3128 4100 2886 4159 
Q 2644 4219 2406 4219 
Q 1781 4219 1451 3797 
Q 1122 3375 1075 2522 
Q 1259 2794 1537 2939 
Q 1816 3084 2150 3084 
Q 2853 3084 3261 2657 
Q 3669 2231 3669 1497 
Q 3669 778 3244 343 
Q 2819 -91 2113 -91 
Q 1303 -91 875 529 
Q 447 1150 447 2328 
Q 447 3434 972 4092 
Q 1497 4750 2381 4750 
Q 2619 4750 2861 4703 
Q 3103 4656 3366 4563 
z
" transform="scale(0.015625)"/>
       </defs>
       <use xlink:href="#DejaVuSans-15"/>
       <use xlink:href="#DejaVuSans-13" transform="translate(63.625 0)"/>
       <use xlink:href="#DejaVuSans-14" transform="translate(127.25 0)"/>
       <use xlink:href="#DejaVuSans-19" transform="translate(190.875 0)"/>
      </g>
     </g>
    </g>
    <g id="xtick_3">
     <g id="line2d_5">
      <path d="M 189.54404 318.2 
L 189.54404 26.16 
" clip-path="url(#pf5d68d3113)" style="fill: none; stroke: #b0b0b0; stroke-opacity: 0.3; stroke-width: 0.8; stroke-linecap: square"/>
     </g>
     <g id="line2d_6">
      <g>
       <use xlink:href="#m8c44b1775b" x="189.54404" y="318.2" style="stroke: #000000; stroke-width: 0.8"/>
      </g>
     </g>
     <g id="text_3">
      <!-- 2017 -->
      <g transform="translate(176.81904 332.797656) scale(0.1 -0.1)">
       <defs>
        <path id="DejaVuSans-1a" d="M 525 4666 
L 3525 4666 
L 3525 4397 
L 1831 0 
L 1172 0 
L 2766 4134 
L 525 4134 
L 525 4666 
z
" transform="scale(0.015625)"/>
       </defs>
       <use xlink:href="#DejaVuSans-15"/>
       <use xlink:href="#DejaVuSans-13" transform="translate(63.625 0)"/>
       <use xlink:href="#DejaVuSans-14" transform="translate(127.25 0)"/>
       <use xlink:href="#DejaVuSans-1a" transform="translate(190.875 0)"/>
      </g>
     </g>
    </g>
    <g id="xtick_4">
     <g id="line2d_7">
      <path d="M 246.665175 318.2 
L 246.665175 26.16 
" clip-path="url(#pf5d68d3113)" style="fill: none; stroke: #b0b0b0; stroke-opacity: 0.3; stroke-width: 0.8; stroke-linecap: square"/>
     </g>
     <g id="line2d_8">
      <g>
       <use xlink:href="#m8c44b1775b" x="246.665175" y="318.2" style="stroke: #000000; stroke-width: 0.8"/>
      </g>
     </g>
     <g id="text_4">
      <!-- 2018 -->
      <g transform="translate(233.940175 332.797656) scale(0.1 -0.1)">
       <defs>
        <path id="DejaVuSans-1b" d="M 2034 2216 
Q 1584 2216 1326 1975 
Q 1069 1734 1069 1313 
Q 1069 891 1326 650 
Q 1584 409 2034 409 
Q 2484 409 2743 651 
Q 3003 894 3003 1313 
Q 3003 1734 2745 1975 
Q 2488 2216 2034 2216 
z
M 1403 2484 
Q 997 2584 770 2862 
Q 544 3141 544 3541 
Q 544 4100 942 4425 
Q 1341 4750 2034 4750 
Q 2731 4750 3128 4425 
Q 3525 4100 3525 3541 
Q 3525 3141 3298 2862 
Q 3072 2584 2669 2484 
Q 3125 2378 3379 2068 
Q 3634 1759 3634 1313 
Q 3634 634 3220 271 
Q 2806 -91 2034 -91 
Q 1263 -91 848 271 
Q 434 634 434 1313 
Q 434 1759 690 2068 
Q 947 2378 1403 2484 
z
M 1172 3481 
Q 1172 3119 1398 2916 
Q 1625 2713 2034 2713 
Q 2441 2713 2670 2916 
Q 2900 3119 2900 3481 
Q 2900 3844 2670 4047 
Q 2441 4250 2034 4250 
Q 1625 4250 1398 4047 
Q 1172 3844 1172 3481 
z
" transform="scale(0.015625)"/>
       </defs>
       <use xlink:href="#DejaVuSans-15"/>
       <use xlink:href="#DejaVuSans-13" transform="translate(63.625 0)"/>
       <use xlink:href="#DejaVuSans-14" transform="translate(127.25 0)"/>
       <use xlink:href="#DejaVuSans-1b" transform="translate(190.875 0)"/>
      </g>
     </g>
    </g>
    <g id="xtick_5">
     <g id="line2d_9">
      <path d="M 303.786309 318.2 
L 303.786309 26.16 
" clip-path="url(#pf5d68d3113)" style="fill: none; stroke: #b0b0b0; stroke-opacity: 0.3; stroke-width: 0.8; stroke-linecap: square"/>
     </g>
     <g id="line2d_10">
      <g>
       <use xlink:href="#m8c44b1775b" x="303.786309" y="318.2" style="stroke: #000000; stroke-width: 0.8"/>
      </g>
     </g>
     <g id="text_5">
      <!-- 2019 -->
      <g transform="translate(291.061309 332.797656) scale(0.1 -0.1)">
       <defs>
        <path id="DejaVuSans-1c" d="M 703 97 
L 703 672 
Q 941 559 1184 500 
Q 1428 441 1663 441 
Q 2288 441 2617 861 
Q 2947 1281 2994 2138 
Q 2813 1869 2534 1725 
Q 2256 1581 1919 1581 
Q 1219 1581 811 2004 
Q 403 2428 403 3163 
Q 403 3881 828 4315 
Q 1253 4750 1959 4750 
Q 2769 4750 3195 4129 
Q 3622 3509 3622 2328 
Q 3622 1225 3098 567 
Q 2575 -91 1691 -91 
Q 1453 -91 1209 -44 
Q 966 3 703 97 
z
M 1959 2075 
Q 2384 2075 2632 2365 
Q 2881 2656 2881 3163 
Q 2881 3666 2632 3958 
Q 2384 4250 1959 4250 
Q 1534 4250 1286 3958 
Q 1038 3666 1038 3163 
Q 1038 2656 1286 2365 
Q 1534 2075 1959 2075 
z
" transform="scale(0.015625)"/>
       </defs>
       <use xlink:href="#DejaVuSans-15"/>
       <use xlink:href="#DejaVuSans-13" transform="translate(63.625 0)"/>
       <use xlink:href="#DejaVuSans-14" transform="translate(127.25 0)"/>
       <use xlink:href="#DejaVuSans-1c" transform="translate(190.875 0)"/>
      </g>
     </g>
    </g>
    <g id="xtick_6">
     <g id="line2d_11">
      <path d="M 360.907444 318.2 
L 360.907444 26.16 
" clip-path="url(#pf5d68d3113)" style="fill: none; stroke: #b0b0b0; stroke-opacity: 0.3; stroke-width: 0.8; stroke-linecap: square"/>
     </g>
     <g id="line2d_12">
      <g>
       <use xlink:href="#m8c44b1775b" x="360.907444" y="318.2" style="stroke: #000000; stroke-width: 0.8"/>
      </g>
     </g>
     <g id="text_6">
      <!-- 2020 -->
      <g transform="translate(348.182444 332.797656) scale(0.1 -0.1)">
       <use xlink:href="#DejaVuSans-15"/>
       <use xlink:href="#DejaVuSans-13" transform="translate(63.625 0)"/>
       <use xlink:href="#DejaVuSans-15" transform="translate(127.25 0)"/>
       <use xlink:href="#DejaVuSans-13" transform="translate(190.875 0)"/>
      </g>
     </g>
    </g>
    <g id="xtick_7">
     <g id="line2d_13">
      <path d="M 418.185075 318.2 
L 418.185075 26.16 
" clip-path="url(#pf5d68d3113)" style="fill: none; stroke: #b0b0b0; stroke-opacity: 0.3; stroke-width: 0.8; stroke-linecap: square"/>
     </g>
     <g id="line2d_14">
      <g>
       <use xlink:href="#m8c44b1775b" x="418.185075" y="318.2" style="stroke: #000000; stroke-width: 0.8"/>
      </g>
     </g>
     <g id="text_7">
      <!-- 2021 -->
      <g transform="translate(405.460075 332.797656) scale(0.1 -0.1)">
       <use xlink:href="#DejaVuSans-15"/>
       <use xlink:href="#DejaVuSans-13" transform="translate(63.625 0)"/>
       <use xlink:href="#DejaVuSans-15" transform="translate(127.25 0)"/>
       <use xlink:href="#DejaVuSans-14" transform="translate(190.875 0)"/>
      </g>
     </g>
    </g>
    <g id="xtick_8">
     <g id="line2d_15">
      <path d="M 475.306209 318.2 
L 475.306209 26.16 
" clip-path="url(#pf5d68d3113)" style="fill: none; stroke: #b0b0b0; stroke-opacity: 0.3; stroke-width: 0.8; stroke-linecap: square"/>
     </g>
     <g id="line2d_16">
      <g>
       <use xlink:href="#m8c44b1775b" x="475.306209" y="318.2" style="stroke: #000000; stroke-width: 0.8"/>
      </g>
     </g>
     <g id="text_8">
      <!-- 2022 -->
      <g transform="translate(462.581209 332.797656) scale(0.1 -0.1)">
       <use xlink:href="#DejaVuSans-15"/>
       <use xlink:href="#DejaVuSans-13" transform="translate(63.625 0)"/>
       <use xlink:href="#DejaVuSans-15" transform="translate(127.25 0)"/>
       <use xlink:href="#DejaVuSans-15" transform="translate(190.875 0)"/>
      </g>
     </g>
    </g>
    <g id="xtick_9">
     <g id="line2d_17">
      <path d="M 532.427344 318.2 
L 532.427344 26.16 
" clip-path="url(#pf5d68d3113)" style="fill: none; stroke: #b0b0b0; stroke-opacity: 0.3; stroke-width: 0.8; stroke-linecap: square"/>
     </g>
     <g id="line2d_18">
      <g>
       <use xlink:href="#m8c44b1775b" x="532.427344" y="318.2" style="stroke: #000000; stroke-width: 0.8"/>
      </g>
     </g>
     <g id="text_9">
      <!-- 2023 -->
      <g transform="translate(519.702344 332.797656) scale(0.1 -0.1)">
       <defs>
        <path id="DejaVuSans-16" d="M 2597 2516 
Q 3050 2419 3304 2112 
Q 3559 1806 3559 1356 
Q 3559 666 3084 287 
Q 2609 -91 1734 -91 
Q 1441 -91 1130 -33 
Q 819 25 488 141 
L 488 750 
Q 750 597 1062 519 
Q 1375 441 1716 441 
Q 2309 441 2620 675 
Q 2931 909 2931 1356 
Q 2931 1769 2642 2001 
Q 2353 2234 1838 2234 
L 1294 2234 
L 1294 2753 
L 1863 2753 
Q 2328 2753 2575 2939 
Q 2822 3125 2822 3475 
Q 2822 3834 2567 4026 
Q 2313 4219 1838 4219 
Q 1578 4219 1281 4162 
Q 984 4106 628 3988 
L 628 4550 
Q 988 4650 1302 4700 
Q 1616 4750 1894 4750 
Q 2613 4750 3031 4423 
Q 3450 4097 3450 3541 
Q 3450 3153 3228 2886 
Q 3006 2619 2597 2516 
z
" transform="scale(0.015625)"/>
       </defs>
       <use xlink:href="#DejaVuSans-15"/>
       <use xlink:href="#DejaVuSans-13" transform="translate(63.625 0)"/>
       <use xlink:href="#DejaVuSans-15" transform="translate(127.25 0)"/>
       <use xlink:href="#DejaVuSans-16" transform="translate(190.875 0)"/>
      </g>
     </g>
    </g>
    <g id="xtick_10">
     <g id="line2d_19">
      <path d="M 589.548478 318.2 
L 589.548478 26.16 
" clip-path="url(#pf5d68d3113)" style="fill: none; stroke: #b0b0b0; stroke-opacity: 0.3; stroke-width: 0.8; stroke-linecap: square"/>
     </g>
     <g id="line2d_20">
      <g>
       <use xlink:href="#m8c44b1775b" x="589.548478" y="318.2" style="stroke: #000000; stroke-width: 0.8"/>
      </g>
     </g>
     <g id="text_10">
      <!-- 2024 -->
      <g transform="translate(576.823478 332.797656) scale(0.1 -0.1)">
       <defs>
        <path id="DejaVuSans-17" d="M 2419 4116 
L 825 1625 
L 2419 1625 
L 2419 4116 
z
M 2253 4666 
L 3047 4666 
L 3047 1625 
L 3713 1625 
L 3713 1100 
L 3047 1100 
L 3047 0 
L 2419 0 
L 2419 1100 
L 313 1100 
L 313 1709 
L 2253 4666 
z
" transform="scale(0.015625)"/>
       </defs>
       <use xlink:href="#DejaVuSans-15"/>
       <use xlink:href="#DejaVuSans-13" transform="translate(63.625 0)"/>
       <use xlink:href="#DejaVuSans-15" transform="translate(127.25 0)"/>
       <use xlink:href="#DejaVuSans-17" transform="translate(190.875 0)"/>
      </g>
     </g>
    </g>
    <g id="xtick_11">
     <g id="line2d_21">
      <path d="M 646.826109 318.2 
L 646.826109 26.16 
" clip-path="url(#pf5d68d3113)" style="fill: none; stroke: #b0b0b0; stroke-opacity: 0.3; stroke-width: 0.8; stroke-linecap: square"/>
     </g>
     <g id="line2d_22">
      <g>
       <use xlink:href="#m8c44b1775b" x="646.826109" y="318.2" style="stroke: #000000; stroke-width: 0.8"/>
      </g>
     </g>
     <g id="text_11">
      <!-- 2025 -->
      <g transform="translate(634.101109 332.797656) scale(0.1 -0.1)">
       <use xlink:href="#DejaVuSans-15"/>
       <use xlink:href="#DejaVuSans-13" transform="translate(63.625 0)"/>
       <use xlink:href="#DejaVuSans-15" transform="translate(127.25 0)"/>
       <use xlink:href="#DejaVuSans-18" transform="translate(190.875 0)"/>
      </g>
     </g>
    </g>
    <g id="text_12">
     <!-- Year -->
     <g transform="translate(347.974063 346.797656) scale(0.1 -0.1)">
      <defs>
       <path id="DejaVuSans-3c" d="M -13 4666 
L 666 4666 
L 1959 2747 
L 3244 4666 
L 3922 4666 
L 2272 2222 
L 2272 0 
L 1638 0 
L 1638 2222 
L -13 4666 
z
" transform="scale(0.015625)"/>
       <path id="DejaVuSans-48" d="M 3597 1894 
L 3597 1613 
L 953 1613 
Q 991 1019 1311 708 
Q 1631 397 2203 397 
Q 2534 397 2845 478 
Q 3156 559 3463 722 
L 3463 178 
Q 3153 47 2828 -22 
Q 2503 -91 2169 -91 
Q 1331 -91 842 396 
Q 353 884 353 1716 
Q 353 2575 817 3079 
Q 1281 3584 2069 3584 
Q 2775 3584 3186 3129 
Q 3597 2675 3597 1894 
z
M 3022 2063 
Q 3016 2534 2758 2815 
Q 2500 3097 2075 3097 
Q 1594 3097 1305 2825 
Q 1016 2553 972 2059 
L 3022 2063 
z
" transform="scale(0.015625)"/>
       <path id="DejaVuSans-44" d="M 2194 1759 
Q 1497 1759 1228 1600 
Q 959 1441 959 1056 
Q 959 750 1161 570 
Q 1363 391 1709 391 
Q 2188 391 2477 730 
Q 2766 1069 2766 1631 
L 2766 1759 
L 2194 1759 
z
M 3341 1997 
L 3341 0 
L 2766 0 
L 2766 531 
Q 2569 213 2275 61 
Q 1981 -91 1556 -91 
Q 1019 -91 701 211 
Q 384 513 384 1019 
Q 384 1609 779 1909 
Q 1175 2209 1959 2209 
L 2766 2209 
L 2766 2266 
Q 2766 2663 2505 2880 
Q 2244 3097 1772 3097 
Q 1472 3097 1187 3025 
Q 903 2953 641 2809 
L 641 3341 
Q 956 3463 1253 3523 
Q 1550 3584 1831 3584 
Q 2591 3584 2966 3190 
Q 3341 2797 3341 1997 
z
" transform="scale(0.015625)"/>
       <path id="DejaVuSans-55" d="M 2631 2963 
Q 2534 3019 2420 3045 
Q 2306 3072 2169 3072 
Q 1681 3072 1420 2755 
Q 1159 2438 1159 1844 
L 1159 0 
L 581 0 
L 581 3500 
L 1159 3500 
L 1159 2956 
Q 1341 3275 1631 3429 
Q 1922 3584 2338 3584 
Q 2397 3584 2469 3576 
Q 2541 3569 2628 3553 
L 2631 2963 
z
" transform="scale(0.015625)"/>
      </defs>
      <use xlink:href="#DejaVuSans-3c"/>
      <use xlink:href="#DejaVuSans-48" transform="translate(47.796875 0)"/>
      <use xlink:href="#DejaVuSans-44" transform="translate(109.328125 0)"/>
      <use xlink:href="#DejaVuSans-55" transform="translate(170.609375 0)"/>
     </g>
    </g>
   </g>
   <g id="matplotlib.axis_2">
    <g id="ytick_1">
     <g id="line2d_23">
      <path d="M 45.082344 300.468149 
L 672.037656 300.468149 
" clip-path="url(#pf5d68d3113)" style="fill: none; stroke: #b0b0b0; stroke-opacity: 0.3; stroke-width: 0.8; stroke-linecap: square"/>
     </g>
     <g id="line2d_24">
      <defs>
       <path id="mbaf0f9e796" d="M 0 0 
L -3.5 0 
" style="stroke: #000000; stroke-width: 0.8"/>
      </defs>
      <g>
       <use xlink:href="#mbaf0f9e796" x="45.082344" y="300.468149" style="stroke: #000000; stroke-width: 0.8"/>
      </g>
     </g>
     <g id="text_13">
      <!-- 50 -->
      <g style="fill: #00008b" transform="translate(25.357344 304.266977) scale(0.1 -0.1)">
       <use xlink:href="#DejaVuSans-18"/>
       <use xlink:href="#DejaVuSans-13" transform="translate(63.625 0)"/>
      </g>
     </g>
    </g>
    <g id="ytick_2">
     <g id="line2d_25">
      <path d="M 45.082344 255.66803 
L 672.037656 255.66803 
" clip-path="url(#pf5d68d3113)" style="fill: none; stroke: #b0b0b0; stroke-opacity: 0.3; stroke-width: 0.8; stroke-linecap: square"/>
     </g>
     <g id="line2d_26">
      <g>
       <use xlink:href="#mbaf0f9e796" x="45.082344" y="255.66803" style="stroke: #000000; stroke-width: 0.8"/>
      </g>
     </g>
     <g id="text_14">
      <!-- 55 -->
      <g style="fill: #00008b" transform="translate(25.357344 259.466858) scale(0.1 -0.1)">
       <use xlink:href="#DejaVuSans-18"/>
       <use xlink:href="#DejaVuSans-18" transform="translate(63.625 0)"/>
      </g>
     </g>
    </g>
    <g id="ytick_3">
     <g id="line2d_27">
      <path d="M 45.082344 210.86791 
L 672.037656 210.86791 
" clip-path="url(#pf5d68d3113)" style="fill: none; stroke: #b0b0b0; stroke-opacity: 0.3; stroke-width: 0.8; stroke-linecap: square"/>
     </g>
     <g id="line2d_28">
      <g>
       <use xlink:href="#mbaf0f9e796" x="45.082344" y="210.86791" style="stroke: #000000; stroke-width: 0.8"/>
      </g>
     </g>
     <g id="text_15">
      <!-- 60 -->
      <g style="fill: #00008b" transform="translate(25.357344 214.666738) scale(0.1 -0.1)">
       <use xlink:href="#DejaVuSans-19"/>
       <use xlink:href="#DejaVuSans-13" transform="translate(63.625 0)"/>
      </g>
     </g>
    </g>
    <g id="ytick_4">
     <g id="line2d_29">
      <path d="M 45.082344 166.067791 
L 672.037656 166.067791 
" clip-path="url(#pf5d68d3113)" style="fill: none; stroke: #b0b0b0; stroke-opacity: 0.3; stroke-width: 0.8; stroke-linecap: square"/>
     </g>
     <g id="line2d_30">
      <g>
       <use xlink:href="#mbaf0f9e796" x="45.082344" y="166.067791" style="stroke: #000000; stroke-width: 0.8"/>
      </g>
     </g>
     <g id="text_16">
      <!-- 65 -->
      <g style="fill: #00008b" transform="translate(25.357344 169.866619) scale(0.1 -0.1)">
       <use xlink:href="#DejaVuSans-19"/>
       <use xlink:href="#DejaVuSans-18" transform="translate(63.625 0)"/>
      </g>
     </g>
    </g>
    <g id="ytick_5">
     <g id="line2d_31">
      <path d="M 45.082344 121.267671 
L 672.037656 121.267671 
" clip-path="url(#pf5d68d3113)" style="fill: none; stroke: #b0b0b0; stroke-opacity: 0.3; stroke-width: 0.8; stroke-linecap: square"/>
     </g>
     <g id="line2d_32">
      <g>
       <use xlink:href="#mbaf0f9e796" x="45.082344" y="121.267671" style="stroke: #000000; stroke-width: 0.8"/>
      </g>
     </g>
     <g id="text_17">
      <!-- 70 -->
      <g style="fill: #00008b" transform="translate(25.357344 125.066499) scale(0.1 -0.1)">
       <use xlink:href="#DejaVuSans-1a"/>
       <use xlink:href="#DejaVuSans-13" transform="translate(63.625 0)"/>
      </g>
     </g>
    </g>
    <g id="ytick_6">
     <g id="line2d_33">
      <path d="M 45.082344 76.467552 
L 672.037656 76.467552 
" clip-path="url(#pf5d68d3113)" style="fill: none; stroke: #b0b0b0; stroke-opacity: 0.3; stroke-width: 0.8; stroke-linecap: square"/>
     </g>
     <g id="line2d_34">
      <g>
       <use xlink:href="#mbaf0f9e796" x="45.082344" y="76.467552" style="stroke: #000000; stroke-width: 0.8"/>
      </g>
     </g>
     <g id="text_18">
      <!-- 75 -->
      <g style="fill: #00008b" transform="translate(25.357344 80.26638) scale(0.1 -0.1)">
       <use xlink:href="#DejaVuSans-1a"/>
       <use xlink:href="#DejaVuSans-18" transform="translate(63.625 0)"/>
      </g>
     </g>
    </g>
    <g id="ytick_7">
     <g id="line2d_35">
      <path d="M 45.082344 31.667433 
L 672.037656 31.667433 
" clip-path="url(#pf5d68d3113)" style="fill: none; stroke: #b0b0b0; stroke-opacity: 0.3; stroke-width: 0.8; stroke-linecap: square"/>
     </g>
     <g id="line2d_36">
      <g>
       <use xlink:href="#mbaf0f9e796" x="45.082344" y="31.667433" style="stroke: #000000; stroke-width: 0.8"/>
      </g>
     </g>
     <g id="text_19">
      <!-- 80 -->
      <g style="fill: #00008b" transform="translate(25.357344 35.466261) scale(0.1 -0.1)">
       <use xlink:href="#DejaVuSans-1b"/>
       <use xlink:href="#DejaVuSans-13" transform="translate(63.625 0)"/>
      </g>
     </g>
    </g>
    <g id="text_20">
     <!-- AOT Close (THB) -->
     <g style="fill: #00008b" transform="translate(18.955 213.447969) rotate(-90) scale(0.1 -0.1)">
      <defs>
       <path id="DejaVuSans-24" d="M 2188 4044 
L 1331 1722 
L 3047 1722 
L 2188 4044 
z
M 1831 4666 
L 2547 4666 
L 4325 0 
L 3669 0 
L 3244 1197 
L 1141 1197 
L 716 0 
L 50 0 
L 1831 4666 
z
" transform="scale(0.015625)"/>
       <path id="DejaVuSans-32" d="M 2522 4238 
Q 1834 4238 1429 3725 
Q 1025 3213 1025 2328 
Q 1025 1447 1429 934 
Q 1834 422 2522 422 
Q 3209 422 3611 934 
Q 4013 1447 4013 2328 
Q 4013 3213 3611 3725 
Q 3209 4238 2522 4238 
z
M 2522 4750 
Q 3503 4750 4090 4092 
Q 4678 3434 4678 2328 
Q 4678 1225 4090 567 
Q 3503 -91 2522 -91 
Q 1538 -91 948 565 
Q 359 1222 359 2328 
Q 359 3434 948 4092 
Q 1538 4750 2522 4750 
z
" transform="scale(0.015625)"/>
       <path id="DejaVuSans-37" d="M -19 4666 
L 3928 4666 
L 3928 4134 
L 2272 4134 
L 2272 0 
L 1638 0 
L 1638 4134 
L -19 4134 
L -19 4666 
z
" transform="scale(0.015625)"/>
       <path id="DejaVuSans-3" transform="scale(0.015625)"/>
       <path id="DejaVuSans-26" d="M 4122 4306 
L 4122 3641 
Q 3803 3938 3442 4084 
Q 3081 4231 2675 4231 
Q 1875 4231 1450 3742 
Q 1025 3253 1025 2328 
Q 1025 1406 1450 917 
Q 1875 428 2675 428 
Q 3081 428 3442 575 
Q 3803 722 4122 1019 
L 4122 359 
Q 3791 134 3420 21 
Q 3050 -91 2638 -91 
Q 1578 -91 968 557 
Q 359 1206 359 2328 
Q 359 3453 968 4101 
Q 1578 4750 2638 4750 
Q 3056 4750 3426 4639 
Q 3797 4528 4122 4306 
z
" transform="scale(0.015625)"/>
       <path id="DejaVuSans-4f" d="M 603 4863 
L 1178 4863 
L 1178 0 
L 603 0 
L 603 4863 
z
" transform="scale(0.015625)"/>
       <path id="DejaVuSans-52" d="M 1959 3097 
Q 1497 3097 1228 2736 
Q 959 2375 959 1747 
Q 959 1119 1226 758 
Q 1494 397 1959 397 
Q 2419 397 2687 759 
Q 2956 1122 2956 1747 
Q 2956 2369 2687 2733 
Q 2419 3097 1959 3097 
z
M 1959 3584 
Q 2709 3584 3137 3096 
Q 3566 2609 3566 1747 
Q 3566 888 3137 398 
Q 2709 -91 1959 -91 
Q 1206 -91 779 398 
Q 353 888 353 1747 
Q 353 2609 779 3096 
Q 1206 3584 1959 3584 
z
" transform="scale(0.015625)"/>
       <path id="DejaVuSans-56" d="M 2834 3397 
L 2834 2853 
Q 2591 2978 2328 3040 
Q 2066 3103 1784 3103 
Q 1356 3103 1142 2972 
Q 928 2841 928 2578 
Q 928 2378 1081 2264 
Q 1234 2150 1697 2047 
L 1894 2003 
Q 2506 1872 2764 1633 
Q 3022 1394 3022 966 
Q 3022 478 2636 193 
Q 2250 -91 1575 -91 
Q 1294 -91 989 -36 
Q 684 19 347 128 
L 347 722 
Q 666 556 975 473 
Q 1284 391 1588 391 
Q 1994 391 2212 530 
Q 2431 669 2431 922 
Q 2431 1156 2273 1281 
Q 2116 1406 1581 1522 
L 1381 1569 
Q 847 1681 609 1914 
Q 372 2147 372 2553 
Q 372 3047 722 3315 
Q 1072 3584 1716 3584 
Q 2034 3584 2315 3537 
Q 2597 3491 2834 3397 
z
" transform="scale(0.015625)"/>
       <path id="DejaVuSans-b" d="M 1984 4856 
Q 1566 4138 1362 3434 
Q 1159 2731 1159 2009 
Q 1159 1288 1364 580 
Q 1569 -128 1984 -844 
L 1484 -844 
Q 1016 -109 783 600 
Q 550 1309 550 2009 
Q 550 2706 781 3412 
Q 1013 4119 1484 4856 
L 1984 4856 
z
" transform="scale(0.015625)"/>
       <path id="DejaVuSans-2b" d="M 628 4666 
L 1259 4666 
L 1259 2753 
L 3553 2753 
L 3553 4666 
L 4184 4666 
L 4184 0 
L 3553 0 
L 3553 2222 
L 1259 2222 
L 1259 0 
L 628 0 
L 628 4666 
z
" transform="scale(0.015625)"/>
       <path id="DejaVuSans-25" d="M 1259 2228 
L 1259 519 
L 2272 519 
Q 2781 519 3026 730 
Q 3272 941 3272 1375 
Q 3272 1813 3026 2020 
Q 2781 2228 2272 2228 
L 1259 2228 
z
M 1259 4147 
L 1259 2741 
L 2194 2741 
Q 2656 2741 2882 2914 
Q 3109 3088 3109 3444 
Q 3109 3797 2882 3972 
Q 2656 4147 2194 4147 
L 1259 4147 
z
M 628 4666 
L 2241 4666 
Q 2963 4666 3353 4366 
Q 3744 4066 3744 3513 
Q 3744 3084 3544 2831 
Q 3344 2578 2956 2516 
Q 3422 2416 3680 2098 
Q 3938 1781 3938 1306 
Q 3938 681 3513 340 
Q 3088 0 2303 0 
L 628 0 
L 628 4666 
z
" transform="scale(0.015625)"/>
       <path id="DejaVuSans-c" d="M 513 4856 
L 1013 4856 
Q 1481 4119 1714 3412 
Q 1947 2706 1947 2009 
Q 1947 1309 1714 600 
Q 1481 -109 1013 -844 
L 513 -844 
Q 928 -128 1133 580 
Q 1338 1288 1338 2009 
Q 1338 2731 1133 3434 
Q 928 4138 513 4856 
z
" transform="scale(0.015625)"/>
      </defs>
      <use xlink:href="#DejaVuSans-24"/>
      <use xlink:href="#DejaVuSans-32" transform="translate(66.65625 0)"/>
      <use xlink:href="#DejaVuSans-37" transform="translate(145.375 0)"/>
      <use xlink:href="#DejaVuSans-3" transform="translate(206.453125 0)"/>
      <use xlink:href="#DejaVuSans-26" transform="translate(238.234375 0)"/>
      <use xlink:href="#DejaVuSans-4f" transform="translate(308.0625 0)"/>
      <use xlink:href="#DejaVuSans-52" transform="translate(335.84375 0)"/>
      <use xlink:href="#DejaVuSans-56" transform="translate(397.03125 0)"/>
      <use xlink:href="#DejaVuSans-48" transform="translate(449.125 0)"/>
      <use xlink:href="#DejaVuSans-3" transform="translate(510.65625 0)"/>
      <use xlink:href="#DejaVuSans-b" transform="translate(542.4375 0)"/>
      <use xlink:href="#DejaVuSans-37" transform="translate(581.453125 0)"/>
      <use xlink:href="#DejaVuSans-2b" transform="translate(642.53125 0)"/>
      <use xlink:href="#DejaVuSans-25" transform="translate(717.734375 0)"/>
      <use xlink:href="#DejaVuSans-c" transform="translate(786.34375 0)"/>
     </g>
    </g>
   </g>
   <g id="line2d_37">
    <path d="M 75.145275 295.04987 
L 79.996659 301.680145 
L 84.378554 292.268077 
L 89.229938 281.152588 
L 93.924826 295.945902 
L 98.77621 304.925455 
L 103.471098 301.091994 
L 108.322482 301.237528 
L 113.173866 298.70006 
L 117.868754 303.655347 
L 122.720138 293.087913 
L 127.415026 283.430871 
L 132.26641 280.151227 
L 137.117794 267.363112 
L 141.656185 260.48621 
L 146.507569 265.497484 
L 151.202457 259.505461 
L 156.053841 265.409065 
L 160.748729 254.850122 
L 165.600113 252.609452 
L 170.451497 251.577816 
L 175.146385 254.990954 
L 179.997769 241.348947 
L 184.692656 240.045528 
L 189.54404 241.195348 
L 194.395424 241.662466 
L 198.77732 234.204956 
L 203.628704 228.242561 
L 208.323591 221.85646 
L 213.174975 215.308286 
L 217.869863 193.431066 
L 222.721247 194.384547 
L 227.572631 196.286247 
L 232.267519 200.889662 
L 237.118903 192.682465 
L 241.813791 179.878839 
L 246.665175 178.211804 
L 251.516559 183.051619 
L 255.898454 187.750983 
L 260.749838 179.233649 
L 265.444726 169.886067 
L 270.29611 162.331384 
L 274.990998 165.60636 
L 279.842382 160.838182 
L 284.693766 157.104667 
L 289.388654 152.457205 
L 294.240038 141.961175 
L 298.934925 137.269746 
L 303.786309 128.498657 
L 308.637693 125.20514 
L 313.019589 119.926616 
L 317.870973 111.582252 
L 322.56586 121.950395 
L 327.417244 122.12665 
L 332.112132 123.653193 
L 336.963516 126.689547 
L 341.8149 126.466821 
L 346.509788 110.384104 
L 351.361172 115.453964 
L 356.05606 104.090159 
L 360.907444 116.480706 
L 365.758828 116.793276 
L 370.297219 112.646998 
L 375.148603 104.706425 
L 379.843491 95.64581 
L 384.694875 85.849393 
L 389.389763 86.285971 
L 394.241147 87.740647 
L 399.092531 77.365155 
L 403.787419 76.391239 
L 408.638803 85.133412 
L 413.333691 92.599685 
L 418.185075 98.149993 
L 423.036459 91.007413 
L 427.418354 87.043268 
L 432.269738 78.168496 
L 436.964626 79.308683 
L 441.81601 75.200156 
L 446.510898 66.906844 
L 451.362282 66.990589 
L 456.213666 60.209865 
L 460.908553 63.45273 
L 465.759937 64.017694 
L 470.454825 64.750067 
L 475.306209 72.776812 
L 480.157593 65.72552 
L 484.539488 67.243369 
L 489.390872 64.443414 
L 494.08576 57.447905 
L 498.937144 50.758968 
L 503.632032 42.109095 
L 508.483416 40.30352 
L 513.3348 41.408276 
L 518.029688 39.434545 
L 522.881072 51.865095 
L 527.57596 62.14325 
L 532.427344 71.306663 
L 537.278728 77.554011 
L 541.660623 71.284018 
L 546.512007 76.709124 
L 551.206895 77.409463 
L 556.058279 63.080339 
L 560.753167 63.584466 
L 565.604551 54.288301 
L 570.455935 59.965531 
L 575.150822 59.118249 
L 580.002206 64.942462 
L 584.697094 65.2922 
L 589.548478 55.075011 
L 594.399862 67.863836 
L 598.938254 61.283383 
L 603.789638 56.465259 
L 608.484526 59.10085 
L 613.33591 69.369556 
L 618.030797 66.035266 
L 622.882181 68.091527 
L 627.733565 63.318735 
L 632.428453 60.434932 
L 637.279837 43.394948 
L 641.974725 42.851573 
" clip-path="url(#pf5d68d3113)" style="fill: none; stroke: #00008b; stroke-width: 1.5; stroke-linecap: square"/>
   </g>
   <g id="patch_3">
    <path d="M 45.082344 318.2 
L 45.082344 26.16 
" style="fill: none; stroke: #000000; stroke-width: 0.8; stroke-linejoin: miter; stroke-linecap: square"/>
   </g>
   <g id="patch_4">
    <path d="M 672.037656 318.2 
L 672.037656 26.16 
" style="fill: none; stroke: #000000; stroke-width: 0.8; stroke-linejoin: miter; stroke-linecap: square"/>
   </g>
   <g id="patch_5">
    <path d="M 45.082344 318.2 
L 672.037656 318.2 
" style="fill: none; stroke: #000000; stroke-width: 0.8; stroke-linejoin: miter; stroke-linecap: square"/>
   </g>
   <g id="patch_6">
    <path d="M 45.082344 26.16 
L 672.037656 26.16 
" style="fill: none; stroke: #000000; stroke-width: 0.8; stroke-linejoin: miter; stroke-linecap: square"/>
   </g>
   <g id="text_21">
    <!-- AOT Stock Price and Trading Volume (2015–2024) -->
    <g transform="translate(191.348438 20.16) scale(0.12 -0.12)">
     <defs>
      <path id="DejaVuSans-Bold-24" d="M 3419 850 
L 1538 850 
L 1241 0 
L 31 0 
L 1759 4666 
L 3194 4666 
L 4922 0 
L 3713 0 
L 3419 850 
z
M 1838 1716 
L 3116 1716 
L 2478 3572 
L 1838 1716 
z
" transform="scale(0.015625)"/>
      <path id="DejaVuSans-Bold-32" d="M 2719 3878 
Q 2169 3878 1866 3472 
Q 1563 3066 1563 2328 
Q 1563 1594 1866 1187 
Q 2169 781 2719 781 
Q 3272 781 3575 1187 
Q 3878 1594 3878 2328 
Q 3878 3066 3575 3472 
Q 3272 3878 2719 3878 
z
M 2719 4750 
Q 3844 4750 4481 4106 
Q 5119 3463 5119 2328 
Q 5119 1197 4481 553 
Q 3844 -91 2719 -91 
Q 1597 -91 958 553 
Q 319 1197 319 2328 
Q 319 3463 958 4106 
Q 1597 4750 2719 4750 
z
" transform="scale(0.015625)"/>
      <path id="DejaVuSans-Bold-37" d="M 31 4666 
L 4331 4666 
L 4331 3756 
L 2784 3756 
L 2784 0 
L 1581 0 
L 1581 3756 
L 31 3756 
L 31 4666 
z
" transform="scale(0.015625)"/>
      <path id="DejaVuSans-Bold-3" transform="scale(0.015625)"/>
      <path id="DejaVuSans-Bold-36" d="M 3834 4519 
L 3834 3531 
Q 3450 3703 3084 3790 
Q 2719 3878 2394 3878 
Q 1963 3878 1756 3759 
Q 1550 3641 1550 3391 
Q 1550 3203 1689 3098 
Q 1828 2994 2194 2919 
L 2706 2816 
Q 3484 2659 3812 2340 
Q 4141 2022 4141 1434 
Q 4141 663 3683 286 
Q 3225 -91 2284 -91 
Q 1841 -91 1394 -6 
Q 947 78 500 244 
L 500 1259 
Q 947 1022 1364 901 
Q 1781 781 2169 781 
Q 2563 781 2772 912 
Q 2981 1044 2981 1288 
Q 2981 1506 2839 1625 
Q 2697 1744 2272 1838 
L 1806 1941 
Q 1106 2091 782 2419 
Q 459 2747 459 3303 
Q 459 4000 909 4375 
Q 1359 4750 2203 4750 
Q 2588 4750 2994 4692 
Q 3400 4634 3834 4519 
z
" transform="scale(0.015625)"/>
      <path id="DejaVuSans-Bold-57" d="M 1759 4494 
L 1759 3500 
L 2913 3500 
L 2913 2700 
L 1759 2700 
L 1759 1216 
Q 1759 972 1856 886 
Q 1953 800 2241 800 
L 2816 800 
L 2816 0 
L 1856 0 
Q 1194 0 917 276 
Q 641 553 641 1216 
L 641 2700 
L 84 2700 
L 84 3500 
L 641 3500 
L 641 4494 
L 1759 4494 
z
" transform="scale(0.015625)"/>
      <path id="DejaVuSans-Bold-52" d="M 2203 2784 
Q 1831 2784 1636 2517 
Q 1441 2250 1441 1747 
Q 1441 1244 1636 976 
Q 1831 709 2203 709 
Q 2569 709 2762 976 
Q 2956 1244 2956 1747 
Q 2956 2250 2762 2517 
Q 2569 2784 2203 2784 
z
M 2203 3584 
Q 3106 3584 3614 3096 
Q 4122 2609 4122 1747 
Q 4122 884 3614 396 
Q 3106 -91 2203 -91 
Q 1297 -91 786 396 
Q 275 884 275 1747 
Q 275 2609 786 3096 
Q 1297 3584 2203 3584 
z
" transform="scale(0.015625)"/>
      <path id="DejaVuSans-Bold-46" d="M 3366 3391 
L 3366 2478 
Q 3138 2634 2908 2709 
Q 2678 2784 2431 2784 
Q 1963 2784 1702 2511 
Q 1441 2238 1441 1747 
Q 1441 1256 1702 982 
Q 1963 709 2431 709 
Q 2694 709 2930 787 
Q 3166 866 3366 1019 
L 3366 103 
Q 3103 6 2833 -42 
Q 2563 -91 2291 -91 
Q 1344 -91 809 395 
Q 275 881 275 1747 
Q 275 2613 809 3098 
Q 1344 3584 2291 3584 
Q 2566 3584 2833 3536 
Q 3100 3488 3366 3391 
z
" transform="scale(0.015625)"/>
      <path id="DejaVuSans-Bold-4e" d="M 538 4863 
L 1656 4863 
L 1656 2216 
L 2944 3500 
L 4244 3500 
L 2534 1894 
L 4378 0 
L 3022 0 
L 1656 1459 
L 1656 0 
L 538 0 
L 538 4863 
z
" transform="scale(0.015625)"/>
      <path id="DejaVuSans-Bold-33" d="M 588 4666 
L 2584 4666 
Q 3475 4666 3951 4270 
Q 4428 3875 4428 3144 
Q 4428 2409 3951 2014 
Q 3475 1619 2584 1619 
L 1791 1619 
L 1791 0 
L 588 0 
L 588 4666 
z
M 1791 3794 
L 1791 2491 
L 2456 2491 
Q 2806 2491 2997 2661 
Q 3188 2831 3188 3144 
Q 3188 3456 2997 3625 
Q 2806 3794 2456 3794 
L 1791 3794 
z
" transform="scale(0.015625)"/>
      <path id="DejaVuSans-Bold-55" d="M 3138 2547 
Q 2991 2616 2845 2648 
Q 2700 2681 2553 2681 
Q 2122 2681 1889 2404 
Q 1656 2128 1656 1613 
L 1656 0 
L 538 0 
L 538 3500 
L 1656 3500 
L 1656 2925 
Q 1872 3269 2151 3426 
Q 2431 3584 2822 3584 
Q 2878 3584 2943 3579 
Q 3009 3575 3134 3559 
L 3138 2547 
z
" transform="scale(0.015625)"/>
      <path id="DejaVuSans-Bold-4c" d="M 538 3500 
L 1656 3500 
L 1656 0 
L 538 0 
L 538 3500 
z
M 538 4863 
L 1656 4863 
L 1656 3950 
L 538 3950 
L 538 4863 
z
" transform="scale(0.015625)"/>
      <path id="DejaVuSans-Bold-48" d="M 4031 1759 
L 4031 1441 
L 1416 1441 
Q 1456 1047 1700 850 
Q 1944 653 2381 653 
Q 2734 653 3104 758 
Q 3475 863 3866 1075 
L 3866 213 
Q 3469 63 3072 -14 
Q 2675 -91 2278 -91 
Q 1328 -91 801 392 
Q 275 875 275 1747 
Q 275 2603 792 3093 
Q 1309 3584 2216 3584 
Q 3041 3584 3536 3087 
Q 4031 2591 4031 1759 
z
M 2881 2131 
Q 2881 2450 2695 2645 
Q 2509 2841 2209 2841 
Q 1884 2841 1681 2658 
Q 1478 2475 1428 2131 
L 2881 2131 
z
" transform="scale(0.015625)"/>
      <path id="DejaVuSans-Bold-44" d="M 2106 1575 
Q 1756 1575 1579 1456 
Q 1403 1338 1403 1106 
Q 1403 894 1545 773 
Q 1688 653 1941 653 
Q 2256 653 2472 879 
Q 2688 1106 2688 1447 
L 2688 1575 
L 2106 1575 
z
M 3816 1997 
L 3816 0 
L 2688 0 
L 2688 519 
Q 2463 200 2181 54 
Q 1900 -91 1497 -91 
Q 953 -91 614 226 
Q 275 544 275 1050 
Q 275 1666 698 1953 
Q 1122 2241 2028 2241 
L 2688 2241 
L 2688 2328 
Q 2688 2594 2478 2717 
Q 2269 2841 1825 2841 
Q 1466 2841 1156 2769 
Q 847 2697 581 2553 
L 581 3406 
Q 941 3494 1303 3539 
Q 1666 3584 2028 3584 
Q 2975 3584 3395 3211 
Q 3816 2838 3816 1997 
z
" transform="scale(0.015625)"/>
      <path id="DejaVuSans-Bold-51" d="M 4056 2131 
L 4056 0 
L 2931 0 
L 2931 347 
L 2931 1631 
Q 2931 2084 2911 2256 
Q 2891 2428 2841 2509 
Q 2775 2619 2662 2680 
Q 2550 2741 2406 2741 
Q 2056 2741 1856 2470 
Q 1656 2200 1656 1722 
L 1656 0 
L 538 0 
L 538 3500 
L 1656 3500 
L 1656 2988 
Q 1909 3294 2193 3439 
Q 2478 3584 2822 3584 
Q 3428 3584 3742 3212 
Q 4056 2841 4056 2131 
z
" transform="scale(0.015625)"/>
      <path id="DejaVuSans-Bold-47" d="M 2919 2988 
L 2919 4863 
L 4044 4863 
L 4044 0 
L 2919 0 
L 2919 506 
Q 2688 197 2409 53 
Q 2131 -91 1766 -91 
Q 1119 -91 703 423 
Q 288 938 288 1747 
Q 288 2556 703 3070 
Q 1119 3584 1766 3584 
Q 2128 3584 2408 3439 
Q 2688 3294 2919 2988 
z
M 2181 722 
Q 2541 722 2730 984 
Q 2919 1247 2919 1747 
Q 2919 2247 2730 2509 
Q 2541 2772 2181 2772 
Q 1825 2772 1636 2509 
Q 1447 2247 1447 1747 
Q 1447 1247 1636 984 
Q 1825 722 2181 722 
z
" transform="scale(0.015625)"/>
      <path id="DejaVuSans-Bold-4a" d="M 2919 594 
Q 2688 288 2409 144 
Q 2131 0 1766 0 
Q 1125 0 706 504 
Q 288 1009 288 1791 
Q 288 2575 706 3076 
Q 1125 3578 1766 3578 
Q 2131 3578 2409 3434 
Q 2688 3291 2919 2981 
L 2919 3500 
L 4044 3500 
L 4044 353 
Q 4044 -491 3511 -936 
Q 2978 -1381 1966 -1381 
Q 1638 -1381 1331 -1331 
Q 1025 -1281 716 -1178 
L 716 -306 
Q 1009 -475 1290 -558 
Q 1572 -641 1856 -641 
Q 2406 -641 2662 -400 
Q 2919 -159 2919 353 
L 2919 594 
z
M 2181 2772 
Q 1834 2772 1640 2515 
Q 1447 2259 1447 1791 
Q 1447 1309 1634 1061 
Q 1822 813 2181 813 
Q 2531 813 2725 1069 
Q 2919 1325 2919 1791 
Q 2919 2259 2725 2515 
Q 2531 2772 2181 2772 
z
" transform="scale(0.015625)"/>
      <path id="DejaVuSans-Bold-39" d="M 31 4666 
L 1241 4666 
L 2478 1222 
L 3713 4666 
L 4922 4666 
L 3194 0 
L 1759 0 
L 31 4666 
z
" transform="scale(0.015625)"/>
      <path id="DejaVuSans-Bold-4f" d="M 538 4863 
L 1656 4863 
L 1656 0 
L 538 0 
L 538 4863 
z
" transform="scale(0.015625)"/>
      <path id="DejaVuSans-Bold-58" d="M 500 1363 
L 500 3500 
L 1625 3500 
L 1625 3150 
Q 1625 2866 1622 2436 
Q 1619 2006 1619 1863 
Q 1619 1441 1641 1255 
Q 1663 1069 1716 984 
Q 1784 875 1895 815 
Q 2006 756 2150 756 
Q 2500 756 2700 1025 
Q 2900 1294 2900 1772 
L 2900 3500 
L 4019 3500 
L 4019 0 
L 2900 0 
L 2900 506 
Q 2647 200 2364 54 
Q 2081 -91 1741 -91 
Q 1134 -91 817 281 
Q 500 653 500 1363 
z
" transform="scale(0.015625)"/>
      <path id="DejaVuSans-Bold-50" d="M 3781 2919 
Q 3994 3244 4286 3414 
Q 4578 3584 4928 3584 
Q 5531 3584 5847 3212 
Q 6163 2841 6163 2131 
L 6163 0 
L 5038 0 
L 5038 1825 
Q 5041 1866 5042 1909 
Q 5044 1953 5044 2034 
Q 5044 2406 4934 2573 
Q 4825 2741 4581 2741 
Q 4263 2741 4089 2478 
Q 3916 2216 3909 1719 
L 3909 0 
L 2784 0 
L 2784 1825 
Q 2784 2406 2684 2573 
Q 2584 2741 2328 2741 
Q 2006 2741 1831 2477 
Q 1656 2213 1656 1722 
L 1656 0 
L 531 0 
L 531 3500 
L 1656 3500 
L 1656 2988 
Q 1863 3284 2130 3434 
Q 2397 3584 2719 3584 
Q 3081 3584 3359 3409 
Q 3638 3234 3781 2919 
z
" transform="scale(0.015625)"/>
      <path id="DejaVuSans-Bold-b" d="M 2413 -844 
L 1484 -844 
Q 1006 -72 778 623 
Q 550 1319 550 2003 
Q 550 2688 779 3389 
Q 1009 4091 1484 4856 
L 2413 4856 
Q 2013 4116 1813 3408 
Q 1613 2700 1613 2009 
Q 1613 1319 1811 609 
Q 2009 -100 2413 -844 
z
" transform="scale(0.015625)"/>
      <path id="DejaVuSans-Bold-15" d="M 1844 884 
L 3897 884 
L 3897 0 
L 506 0 
L 506 884 
L 2209 2388 
Q 2438 2594 2547 2791 
Q 2656 2988 2656 3200 
Q 2656 3528 2436 3728 
Q 2216 3928 1850 3928 
Q 1569 3928 1234 3808 
Q 900 3688 519 3450 
L 519 4475 
Q 925 4609 1322 4679 
Q 1719 4750 2100 4750 
Q 2938 4750 3402 4381 
Q 3866 4013 3866 3353 
Q 3866 2972 3669 2642 
Q 3472 2313 2841 1759 
L 1844 884 
z
" transform="scale(0.015625)"/>
      <path id="DejaVuSans-Bold-13" d="M 2944 2338 
Q 2944 3213 2780 3570 
Q 2616 3928 2228 3928 
Q 1841 3928 1675 3570 
Q 1509 3213 1509 2338 
Q 1509 1453 1675 1090 
Q 1841 728 2228 728 
Q 2613 728 2778 1090 
Q 2944 1453 2944 2338 
z
M 4147 2328 
Q 4147 1169 3647 539 
Q 3147 -91 2228 -91 
Q 1306 -91 806 539 
Q 306 1169 306 2328 
Q 306 3491 806 4120 
Q 1306 4750 2228 4750 
Q 3147 4750 3647 4120 
Q 4147 3491 4147 2328 
z
" transform="scale(0.015625)"/>
      <path id="DejaVuSans-Bold-14" d="M 750 831 
L 1813 831 
L 1813 3847 
L 722 3622 
L 722 4441 
L 1806 4666 
L 2950 4666 
L 2950 831 
L 4013 831 
L 4013 0 
L 750 0 
L 750 831 
z
" transform="scale(0.015625)"/>
      <path id="DejaVuSans-Bold-18" d="M 678 4666 
L 3669 4666 
L 3669 3781 
L 1638 3781 
L 1638 3059 
Q 1775 3097 1914 3117 
Q 2053 3138 2203 3138 
Q 3056 3138 3531 2711 
Q 4006 2284 4006 1522 
Q 4006 766 3489 337 
Q 2972 -91 2053 -91 
Q 1656 -91 1267 -14 
Q 878 63 494 219 
L 494 1166 
Q 875 947 1217 837 
Q 1559 728 1863 728 
Q 2300 728 2551 942 
Q 2803 1156 2803 1522 
Q 2803 1891 2551 2103 
Q 2300 2316 1863 2316 
Q 1603 2316 1309 2248 
Q 1016 2181 678 2041 
L 678 4666 
z
" transform="scale(0.015625)"/>
      <path id="DejaVuSans-Bold-af5" d="M 344 2156 
L 2856 2156 
L 2856 1350 
L 344 1350 
L 344 2156 
z
" transform="scale(0.015625)"/>
      <path id="DejaVuSans-Bold-17" d="M 2356 3675 
L 1038 1722 
L 2356 1722 
L 2356 3675 
z
M 2156 4666 
L 3494 4666 
L 3494 1722 
L 4159 1722 
L 4159 850 
L 3494 850 
L 3494 0 
L 2356 0 
L 2356 850 
L 288 850 
L 288 1881 
L 2156 4666 
z
" transform="scale(0.015625)"/>
      <path id="DejaVuSans-Bold-c" d="M 513 -844 
Q 913 -100 1113 609 
Q 1313 1319 1313 2009 
Q 1313 2700 1113 3408 
Q 913 4116 513 4856 
L 1441 4856 
Q 1916 4091 2145 3389 
Q 2375 2688 2375 2003 
Q 2375 1319 2147 623 
Q 1919 -72 1441 -844 
L 513 -844 
z
" transform="scale(0.015625)"/>
     </defs>
     <use xlink:href="#DejaVuSans-Bold-24"/>
     <use xlink:href="#DejaVuSans-Bold-32" transform="translate(77.390625 0)"/>
     <use xlink:href="#DejaVuSans-Bold-37" transform="translate(162.40625 0)"/>
     <use xlink:href="#DejaVuSans-Bold-3" transform="translate(230.625 0)"/>
     <use xlink:href="#DejaVuSans-Bold-36" transform="translate(265.4375 0)"/>
     <use xlink:href="#DejaVuSans-Bold-57" transform="translate(337.453125 0)"/>
     <use xlink:href="#DejaVuSans-Bold-52" transform="translate(385.25 0)"/>
     <use xlink:href="#DejaVuSans-Bold-46" transform="translate(453.953125 0)"/>
     <use xlink:href="#DejaVuSans-Bold-4e" transform="translate(513.234375 0)"/>
     <use xlink:href="#DejaVuSans-Bold-3" transform="translate(579.734375 0)"/>
     <use xlink:href="#DejaVuSans-Bold-33" transform="translate(614.546875 0)"/>
     <use xlink:href="#DejaVuSans-Bold-55" transform="translate(687.84375 0)"/>
     <use xlink:href="#DejaVuSans-Bold-4c" transform="translate(737.15625 0)"/>
     <use xlink:href="#DejaVuSans-Bold-46" transform="translate(771.4375 0)"/>
     <use xlink:href="#DejaVuSans-Bold-48" transform="translate(830.71875 0)"/>
     <use xlink:href="#DejaVuSans-Bold-3" transform="translate(898.546875 0)"/>
     <use xlink:href="#DejaVuSans-Bold-44" transform="translate(933.359375 0)"/>
     <use xlink:href="#DejaVuSans-Bold-51" transform="translate(1000.84375 0)"/>
     <use xlink:href="#DejaVuSans-Bold-47" transform="translate(1072.03125 0)"/>
     <use xlink:href="#DejaVuSans-Bold-3" transform="translate(1143.609375 0)"/>
     <use xlink:href="#DejaVuSans-Bold-37" transform="translate(1178.421875 0)"/>
     <use xlink:href="#DejaVuSans-Bold-55" transform="translate(1235.65625 0)"/>
     <use xlink:href="#DejaVuSans-Bold-44" transform="translate(1284.96875 0)"/>
     <use xlink:href="#DejaVuSans-Bold-47" transform="translate(1352.453125 0)"/>
     <use xlink:href="#DejaVuSans-Bold-4c" transform="translate(1424.03125 0)"/>
     <use xlink:href="#DejaVuSans-Bold-51" transform="translate(1458.3125 0)"/>
     <use xlink:href="#DejaVuSans-Bold-4a" transform="translate(1529.5 0)"/>
     <use xlink:href="#DejaVuSans-Bold-3" transform="translate(1601.078125 0)"/>
     <use xlink:href="#DejaVuSans-Bold-39" transform="translate(1635.890625 0)"/>
     <use xlink:href="#DejaVuSans-Bold-52" transform="translate(1707.8125 0)"/>
     <use xlink:href="#DejaVuSans-Bold-4f" transform="translate(1776.515625 0)"/>
     <use xlink:href="#DejaVuSans-Bold-58" transform="translate(1810.796875 0)"/>
     <use xlink:href="#DejaVuSans-Bold-50" transform="translate(1881.984375 0)"/>
     <use xlink:href="#DejaVuSans-Bold-48" transform="translate(1986.1875 0)"/>
     <use xlink:href="#DejaVuSans-Bold-3" transform="translate(2054.015625 0)"/>
     <use xlink:href="#DejaVuSans-Bold-b" transform="translate(2088.828125 0)"/>
     <use xlink:href="#DejaVuSans-Bold-15" transform="translate(2134.53125 0)"/>
     <use xlink:href="#DejaVuSans-Bold-13" transform="translate(2204.109375 0)"/>
     <use xlink:href="#DejaVuSans-Bold-14" transform="translate(2273.6875 0)"/>
     <use xlink:href="#DejaVuSans-Bold-18" transform="translate(2343.265625 0)"/>
     <use xlink:href="#DejaVuSans-Bold-af5" transform="translate(2412.84375 0)"/>
     <use xlink:href="#DejaVuSans-Bold-15" transform="translate(2462.84375 0)"/>
     <use xlink:href="#DejaVuSans-Bold-13" transform="translate(2532.421875 0)"/>
     <use xlink:href="#DejaVuSans-Bold-15" transform="translate(2602 0)"/>
     <use xlink:href="#DejaVuSans-Bold-17" transform="translate(2671.578125 0)"/>
     <use xlink:href="#DejaVuSans-Bold-c" transform="translate(2741.15625 0)"/>
    </g>
   </g>
   <g id="legend_1">
    <g id="patch_7">
     <path d="M 52.082344 64.161562 
L 166.618281 64.161562 
Q 168.618281 64.161562 168.618281 62.161562 
L 168.618281 33.16 
Q 168.618281 31.16 166.618281 31.16 
L 52.082344 31.16 
Q 50.082344 31.16 50.082344 33.16 
L 50.082344 62.161562 
Q 50.082344 64.161562 52.082344 64.161562 
z
" style="fill: #ffffff; opacity: 0.8; stroke: #cccccc; stroke-linejoin: miter"/>
    </g>
    <g id="line2d_38">
     <path d="M 54.082344 39.258437 
L 64.082344 39.258437 
L 74.082344 39.258437 
" style="fill: none; stroke: #00008b; stroke-width: 1.5; stroke-linecap: square"/>
    </g>
    <g id="text_22">
     <!-- AOT Close (THB) -->
     <g transform="translate(82.082344 42.758437) scale(0.1 -0.1)">
      <use xlink:href="#DejaVuSans-24"/>
      <use xlink:href="#DejaVuSans-32" transform="translate(66.65625 0)"/>
      <use xlink:href="#DejaVuSans-37" transform="translate(145.375 0)"/>
      <use xlink:href="#DejaVuSans-3" transform="translate(206.453125 0)"/>
      <use xlink:href="#DejaVuSans-26" transform="translate(238.234375 0)"/>
      <use xlink:href="#DejaVuSans-4f" transform="translate(308.0625 0)"/>
      <use xlink:href="#DejaVuSans-52" transform="translate(335.84375 0)"/>
      <use xlink:href="#DejaVuSans-56" transform="translate(397.03125 0)"/>
      <use xlink:href="#DejaVuSans-48" transform="translate(449.125 0)"/>
      <use xlink:href="#DejaVuSans-3" transform="translate(510.65625 0)"/>
      <use xlink:href="#DejaVuSans-b" transform="translate(542.4375 0)"/>
      <use xlink:href="#DejaVuSans-37" transform="translate(581.453125 0)"/>
      <use xlink:href="#DejaVuSans-2b" transform="translate(642.53125 0)"/>
      <use xlink:href="#DejaVuSans-25" transform="translate(717.734375 0)"/>
      <use xlink:href="#DejaVuSans-c" transform="translate(786.34375 0)"/>
     </g>
    </g>
    <g id="patch_8">
     <path d="M 54.082344 57.759219 
L 74.082344 57.759219 
L 74.082344 50.759219 
L 54.082344 50.759219 
z
" style="fill: #ffa500; opacity: 0.4"/>
    </g>
    <g id="text_23">
     <!-- Volume -->
     <g transform="translate(82.082344 57.759219) scale(0.1 -0.1)">
      <defs>
       <path id="DejaVuSans-39" d="M 1831 0 
L 50 4666 
L 709 4666 
L 2188 738 
L 3669 4666 
L 4325 4666 
L 2547 0 
L 1831 0 
z
" transform="scale(0.015625)"/>
       <path id="DejaVuSans-58" d="M 544 1381 
L 544 3500 
L 1119 3500 
L 1119 1403 
Q 1119 906 1312 657 
Q 1506 409 1894 409 
Q 2359 409 2629 706 
Q 2900 1003 2900 1516 
L 2900 3500 
L 3475 3500 
L 3475 0 
L 2900 0 
L 2900 538 
Q 2691 219 2414 64 
Q 2138 -91 1772 -91 
Q 1169 -91 856 284 
Q 544 659 544 1381 
z
M 1991 3584 
L 1991 3584 
z
" transform="scale(0.015625)"/>
       <path id="DejaVuSans-50" d="M 3328 2828 
Q 3544 3216 3844 3400 
Q 4144 3584 4550 3584 
Q 5097 3584 5394 3201 
Q 5691 2819 5691 2113 
L 5691 0 
L 5113 0 
L 5113 2094 
Q 5113 2597 4934 2840 
Q 4756 3084 4391 3084 
Q 3944 3084 3684 2787 
Q 3425 2491 3425 1978 
L 3425 0 
L 2847 0 
L 2847 2094 
Q 2847 2600 2669 2842 
Q 2491 3084 2119 3084 
Q 1678 3084 1418 2786 
Q 1159 2488 1159 1978 
L 1159 0 
L 581 0 
L 581 3500 
L 1159 3500 
L 1159 2956 
Q 1356 3278 1631 3431 
Q 1906 3584 2284 3584 
Q 2666 3584 2933 3390 
Q 3200 3197 3328 2828 
z
" transform="scale(0.015625)"/>
      </defs>
      <use xlink:href="#DejaVuSans-39"/>
      <use xlink:href="#DejaVuSans-52" transform="translate(60.640625 0)"/>
      <use xlink:href="#DejaVuSans-4f" transform="translate(121.828125 0)"/>
      <use xlink:href="#DejaVuSans-58" transform="translate(149.609375 0)"/>
      <use xlink:href="#DejaVuSans-50" transform="translate(212.984375 0)"/>
      <use xlink:href="#DejaVuSans-48" transform="translate(310.390625 0)"/>
     </g>
    </g>
   </g>
  </g>
  <g id="axes_2">
   <g id="patch_9">
    <path d="M 73.580312 318.2 
L 76.710238 318.2 
L 76.710238 80.645507 
L 73.580312 80.645507 
z
" clip-path="url(#pf5d68d3113)" style="fill: #ffa500; opacity: 0.4"/>
   </g>
   <g id="patch_10">
    <path d="M 78.431697 318.2 
L 81.561622 318.2 
L 81.561622 141.386043 
L 78.431697 141.386043 
z
" clip-path="url(#pf5d68d3113)" style="fill: #ffa500; opacity: 0.4"/>
   </g>
   <g id="patch_11">
    <path d="M 82.813592 318.2 
L 85.943517 318.2 
L 85.943517 66.278648 
L 82.813592 66.278648 
z
" clip-path="url(#pf5d68d3113)" style="fill: #ffa500; opacity: 0.4"/>
   </g>
   <g id="patch_12">
    <path d="M 87.664976 318.2 
L 90.794901 318.2 
L 90.794901 104.408018 
L 87.664976 104.408018 
z
" clip-path="url(#pf5d68d3113)" style="fill: #ffa500; opacity: 0.4"/>
   </g>
   <g id="patch_13">
    <path d="M 92.359864 318.2 
L 95.489789 318.2 
L 95.489789 62.99795 
L 92.359864 62.99795 
z
" clip-path="url(#pf5d68d3113)" style="fill: #ffa500; opacity: 0.4"/>
   </g>
   <g id="patch_14">
    <path d="M 97.211248 318.2 
L 100.341173 318.2 
L 100.341173 146.165622 
L 97.211248 146.165622 
z
" clip-path="url(#pf5d68d3113)" style="fill: #ffa500; opacity: 0.4"/>
   </g>
   <g id="patch_15">
    <path d="M 101.906135 318.2 
L 105.036061 318.2 
L 105.036061 130.783294 
L 101.906135 130.783294 
z
" clip-path="url(#pf5d68d3113)" style="fill: #ffa500; opacity: 0.4"/>
   </g>
   <g id="patch_16">
    <path d="M 106.757519 318.2 
L 109.887445 318.2 
L 109.887445 95.683245 
L 106.757519 95.683245 
z
" clip-path="url(#pf5d68d3113)" style="fill: #ffa500; opacity: 0.4"/>
   </g>
   <g id="patch_17">
    <path d="M 111.608903 318.2 
L 114.738829 318.2 
L 114.738829 129.804762 
L 111.608903 129.804762 
z
" clip-path="url(#pf5d68d3113)" style="fill: #ffa500; opacity: 0.4"/>
   </g>
   <g id="patch_18">
    <path d="M 116.303791 318.2 
L 119.433716 318.2 
L 119.433716 113.99907 
L 116.303791 113.99907 
z
" clip-path="url(#pf5d68d3113)" style="fill: #ffa500; opacity: 0.4"/>
   </g>
   <g id="patch_19">
    <path d="M 121.155175 318.2 
L 124.2851 318.2 
L 124.2851 77.090824 
L 121.155175 77.090824 
z
" clip-path="url(#pf5d68d3113)" style="fill: #ffa500; opacity: 0.4"/>
   </g>
   <g id="patch_20">
    <path d="M 125.850063 318.2 
L 128.979988 318.2 
L 128.979988 134.681517 
L 125.850063 134.681517 
z
" clip-path="url(#pf5d68d3113)" style="fill: #ffa500; opacity: 0.4"/>
   </g>
   <g id="patch_21">
    <path d="M 130.701447 318.2 
L 133.831372 318.2 
L 133.831372 75.182137 
L 130.701447 75.182137 
z
" clip-path="url(#pf5d68d3113)" style="fill: #ffa500; opacity: 0.4"/>
   </g>
   <g id="patch_22">
    <path d="M 135.552831 318.2 
L 138.682756 318.2 
L 138.682756 139.270383 
L 135.552831 139.270383 
z
" clip-path="url(#pf5d68d3113)" style="fill: #ffa500; opacity: 0.4"/>
   </g>
   <g id="patch_23">
    <path d="M 140.091223 318.2 
L 143.221148 318.2 
L 143.221148 131.259944 
L 140.091223 131.259944 
z
" clip-path="url(#pf5d68d3113)" style="fill: #ffa500; opacity: 0.4"/>
   </g>
   <g id="patch_24">
    <path d="M 144.942607 318.2 
L 148.072532 318.2 
L 148.072532 85.232085 
L 144.942607 85.232085 
z
" clip-path="url(#pf5d68d3113)" style="fill: #ffa500; opacity: 0.4"/>
   </g>
   <g id="patch_25">
    <path d="M 149.637494 318.2 
L 152.76742 318.2 
L 152.76742 62.261789 
L 149.637494 62.261789 
z
" clip-path="url(#pf5d68d3113)" style="fill: #ffa500; opacity: 0.4"/>
   </g>
   <g id="patch_26">
    <path d="M 154.488878 318.2 
L 157.618804 318.2 
L 157.618804 131.772404 
L 154.488878 131.772404 
z
" clip-path="url(#pf5d68d3113)" style="fill: #ffa500; opacity: 0.4"/>
   </g>
   <g id="patch_27">
    <path d="M 159.183766 318.2 
L 162.313691 318.2 
L 162.313691 117.332206 
L 159.183766 117.332206 
z
" clip-path="url(#pf5d68d3113)" style="fill: #ffa500; opacity: 0.4"/>
   </g>
   <g id="patch_28">
    <path d="M 164.03515 318.2 
L 167.165075 318.2 
L 167.165075 47.571944 
L 164.03515 47.571944 
z
" clip-path="url(#pf5d68d3113)" style="fill: #ffa500; opacity: 0.4"/>
   </g>
   <g id="patch_29">
    <path d="M 168.886534 318.2 
L 172.016459 318.2 
L 172.016459 40.367066 
L 168.886534 40.367066 
z
" clip-path="url(#pf5d68d3113)" style="fill: #ffa500; opacity: 0.4"/>
   </g>
   <g id="patch_30">
    <path d="M 173.581422 318.2 
L 176.711347 318.2 
L 176.711347 85.966751 
L 173.581422 85.966751 
z
" clip-path="url(#pf5d68d3113)" style="fill: #ffa500; opacity: 0.4"/>
   </g>
   <g id="patch_31">
    <path d="M 178.432806 318.2 
L 181.562731 318.2 
L 181.562731 100.922869 
L 178.432806 100.922869 
z
" clip-path="url(#pf5d68d3113)" style="fill: #ffa500; opacity: 0.4"/>
   </g>
   <g id="patch_32">
    <path d="M 183.127694 318.2 
L 186.257619 318.2 
L 186.257619 112.101018 
L 183.127694 112.101018 
z
" clip-path="url(#pf5d68d3113)" style="fill: #ffa500; opacity: 0.4"/>
   </g>
   <g id="patch_33">
    <path d="M 187.979078 318.2 
L 191.109003 318.2 
L 191.109003 82.463736 
L 187.979078 82.463736 
z
" clip-path="url(#pf5d68d3113)" style="fill: #ffa500; opacity: 0.4"/>
   </g>
   <g id="patch_34">
    <path d="M 192.830462 318.2 
L 195.960387 318.2 
L 195.960387 84.867073 
L 192.830462 84.867073 
z
" clip-path="url(#pf5d68d3113)" style="fill: #ffa500; opacity: 0.4"/>
   </g>
   <g id="patch_35">
    <path d="M 197.212357 318.2 
L 200.342282 318.2 
L 200.342282 117.916923 
L 197.212357 117.916923 
z
" clip-path="url(#pf5d68d3113)" style="fill: #ffa500; opacity: 0.4"/>
   </g>
   <g id="patch_36">
    <path d="M 202.063741 318.2 
L 205.193666 318.2 
L 205.193666 148.264733 
L 202.063741 148.264733 
z
" clip-path="url(#pf5d68d3113)" style="fill: #ffa500; opacity: 0.4"/>
   </g>
   <g id="patch_37">
    <path d="M 206.758629 318.2 
L 209.888554 318.2 
L 209.888554 133.903241 
L 206.758629 133.903241 
z
" clip-path="url(#pf5d68d3113)" style="fill: #ffa500; opacity: 0.4"/>
   </g>
   <g id="patch_38">
    <path d="M 211.610013 318.2 
L 214.739938 318.2 
L 214.739938 43.840352 
L 211.610013 43.840352 
z
" clip-path="url(#pf5d68d3113)" style="fill: #ffa500; opacity: 0.4"/>
   </g>
   <g id="patch_39">
    <path d="M 216.304901 318.2 
L 219.434826 318.2 
L 219.434826 104.146052 
L 216.304901 104.146052 
z
" clip-path="url(#pf5d68d3113)" style="fill: #ffa500; opacity: 0.4"/>
   </g>
   <g id="patch_40">
    <path d="M 221.156285 318.2 
L 224.28621 318.2 
L 224.28621 96.987485 
L 221.156285 96.987485 
z
" clip-path="url(#pf5d68d3113)" style="fill: #ffa500; opacity: 0.4"/>
   </g>
   <g id="patch_41">
    <path d="M 226.007669 318.2 
L 229.137594 318.2 
L 229.137594 98.683251 
L 226.007669 98.683251 
z
" clip-path="url(#pf5d68d3113)" style="fill: #ffa500; opacity: 0.4"/>
   </g>
   <g id="patch_42">
    <path d="M 230.702556 318.2 
L 233.832482 318.2 
L 233.832482 63.461197 
L 230.702556 63.461197 
z
" clip-path="url(#pf5d68d3113)" style="fill: #ffa500; opacity: 0.4"/>
   </g>
   <g id="patch_43">
    <path d="M 235.55394 318.2 
L 238.683866 318.2 
L 238.683866 143.560758 
L 235.55394 143.560758 
z
" clip-path="url(#pf5d68d3113)" style="fill: #ffa500; opacity: 0.4"/>
   </g>
   <g id="patch_44">
    <path d="M 240.248828 318.2 
L 243.378753 318.2 
L 243.378753 141.577359 
L 240.248828 141.577359 
z
" clip-path="url(#pf5d68d3113)" style="fill: #ffa500; opacity: 0.4"/>
   </g>
   <g id="patch_45">
    <path d="M 245.100212 318.2 
L 248.230137 318.2 
L 248.230137 120.026691 
L 245.100212 120.026691 
z
" clip-path="url(#pf5d68d3113)" style="fill: #ffa500; opacity: 0.4"/>
   </g>
   <g id="patch_46">
    <path d="M 249.951596 318.2 
L 253.081521 318.2 
L 253.081521 96.501506 
L 249.951596 96.501506 
z
" clip-path="url(#pf5d68d3113)" style="fill: #ffa500; opacity: 0.4"/>
   </g>
   <g id="patch_47">
    <path d="M 254.333492 318.2 
L 257.463417 318.2 
L 257.463417 75.916301 
L 254.333492 75.916301 
z
" clip-path="url(#pf5d68d3113)" style="fill: #ffa500; opacity: 0.4"/>
   </g>
   <g id="patch_48">
    <path d="M 259.184876 318.2 
L 262.314801 318.2 
L 262.314801 96.049708 
L 259.184876 96.049708 
z
" clip-path="url(#pf5d68d3113)" style="fill: #ffa500; opacity: 0.4"/>
   </g>
   <g id="patch_49">
    <path d="M 263.879763 318.2 
L 267.009689 318.2 
L 267.009689 101.577935 
L 263.879763 101.577935 
z
" clip-path="url(#pf5d68d3113)" style="fill: #ffa500; opacity: 0.4"/>
   </g>
   <g id="patch_50">
    <path d="M 268.731147 318.2 
L 271.861073 318.2 
L 271.861073 46.154001 
L 268.731147 46.154001 
z
" clip-path="url(#pf5d68d3113)" style="fill: #ffa500; opacity: 0.4"/>
   </g>
   <g id="patch_51">
    <path d="M 273.426035 318.2 
L 276.55596 318.2 
L 276.55596 132.840802 
L 273.426035 132.840802 
z
" clip-path="url(#pf5d68d3113)" style="fill: #ffa500; opacity: 0.4"/>
   </g>
   <g id="patch_52">
    <path d="M 278.277419 318.2 
L 281.407344 318.2 
L 281.407344 87.008266 
L 278.277419 87.008266 
z
" clip-path="url(#pf5d68d3113)" style="fill: #ffa500; opacity: 0.4"/>
   </g>
   <g id="patch_53">
    <path d="M 283.128803 318.2 
L 286.258728 318.2 
L 286.258728 90.298427 
L 283.128803 90.298427 
z
" clip-path="url(#pf5d68d3113)" style="fill: #ffa500; opacity: 0.4"/>
   </g>
   <g id="patch_54">
    <path d="M 287.823691 318.2 
L 290.953616 318.2 
L 290.953616 97.971072 
L 287.823691 97.971072 
z
" clip-path="url(#pf5d68d3113)" style="fill: #ffa500; opacity: 0.4"/>
   </g>
   <g id="patch_55">
    <path d="M 292.675075 318.2 
L 295.805 318.2 
L 295.805 60.686733 
L 292.675075 60.686733 
z
" clip-path="url(#pf5d68d3113)" style="fill: #ffa500; opacity: 0.4"/>
   </g>
   <g id="patch_56">
    <path d="M 297.369963 318.2 
L 300.499888 318.2 
L 300.499888 121.016705 
L 297.369963 121.016705 
z
" clip-path="url(#pf5d68d3113)" style="fill: #ffa500; opacity: 0.4"/>
   </g>
   <g id="patch_57">
    <path d="M 302.221347 318.2 
L 305.351272 318.2 
L 305.351272 44.374484 
L 302.221347 44.374484 
z
" clip-path="url(#pf5d68d3113)" style="fill: #ffa500; opacity: 0.4"/>
   </g>
   <g id="patch_58">
    <path d="M 307.072731 318.2 
L 310.202656 318.2 
L 310.202656 113.808501 
L 307.072731 113.808501 
z
" clip-path="url(#pf5d68d3113)" style="fill: #ffa500; opacity: 0.4"/>
   </g>
   <g id="patch_59">
    <path d="M 311.454626 318.2 
L 314.584551 318.2 
L 314.584551 89.99045 
L 311.454626 89.99045 
z
" clip-path="url(#pf5d68d3113)" style="fill: #ffa500; opacity: 0.4"/>
   </g>
   <g id="patch_60">
    <path d="M 316.30601 318.2 
L 319.435935 318.2 
L 319.435935 92.705748 
L 316.30601 92.705748 
z
" clip-path="url(#pf5d68d3113)" style="fill: #ffa500; opacity: 0.4"/>
   </g>
   <g id="patch_61">
    <path d="M 321.000898 318.2 
L 324.130823 318.2 
L 324.130823 55.979668 
L 321.000898 55.979668 
z
" clip-path="url(#pf5d68d3113)" style="fill: #ffa500; opacity: 0.4"/>
   </g>
   <g id="patch_62">
    <path d="M 325.852282 318.2 
L 328.982207 318.2 
L 328.982207 101.829758 
L 325.852282 101.829758 
z
" clip-path="url(#pf5d68d3113)" style="fill: #ffa500; opacity: 0.4"/>
   </g>
   <g id="patch_63">
    <path d="M 330.54717 318.2 
L 333.677095 318.2 
L 333.677095 119.05452 
L 330.54717 119.05452 
z
" clip-path="url(#pf5d68d3113)" style="fill: #ffa500; opacity: 0.4"/>
   </g>
   <g id="patch_64">
    <path d="M 335.398554 318.2 
L 338.528479 318.2 
L 338.528479 148.39773 
L 335.398554 148.39773 
z
" clip-path="url(#pf5d68d3113)" style="fill: #ffa500; opacity: 0.4"/>
   </g>
   <g id="patch_65">
    <path d="M 340.249938 318.2 
L 343.379863 318.2 
L 343.379863 110.225307 
L 340.249938 110.225307 
z
" clip-path="url(#pf5d68d3113)" style="fill: #ffa500; opacity: 0.4"/>
   </g>
   <g id="patch_66">
    <path d="M 344.944825 318.2 
L 348.074751 318.2 
L 348.074751 58.600545 
L 344.944825 58.600545 
z
" clip-path="url(#pf5d68d3113)" style="fill: #ffa500; opacity: 0.4"/>
   </g>
   <g id="patch_67">
    <path d="M 349.79621 318.2 
L 352.926135 318.2 
L 352.926135 149.702918 
L 349.79621 149.702918 
z
" clip-path="url(#pf5d68d3113)" style="fill: #ffa500; opacity: 0.4"/>
   </g>
   <g id="patch_68">
    <path d="M 354.491097 318.2 
L 357.621022 318.2 
L 357.621022 50.803629 
L 354.491097 50.803629 
z
" clip-path="url(#pf5d68d3113)" style="fill: #ffa500; opacity: 0.4"/>
   </g>
   <g id="patch_69">
    <path d="M 359.342481 318.2 
L 362.472406 318.2 
L 362.472406 90.233434 
L 359.342481 90.233434 
z
" clip-path="url(#pf5d68d3113)" style="fill: #ffa500; opacity: 0.4"/>
   </g>
   <g id="patch_70">
    <path d="M 364.193865 318.2 
L 367.32379 318.2 
L 367.32379 135.158592 
L 364.193865 135.158592 
z
" clip-path="url(#pf5d68d3113)" style="fill: #ffa500; opacity: 0.4"/>
   </g>
   <g id="patch_71">
    <path d="M 368.732257 318.2 
L 371.862182 318.2 
L 371.862182 117.088195 
L 368.732257 117.088195 
z
" clip-path="url(#pf5d68d3113)" style="fill: #ffa500; opacity: 0.4"/>
   </g>
   <g id="patch_72">
    <path d="M 373.583641 318.2 
L 376.713566 318.2 
L 376.713566 88.98257 
L 373.583641 88.98257 
z
" clip-path="url(#pf5d68d3113)" style="fill: #ffa500; opacity: 0.4"/>
   </g>
   <g id="patch_73">
    <path d="M 378.278529 318.2 
L 381.408454 318.2 
L 381.408454 115.580252 
L 378.278529 115.580252 
z
" clip-path="url(#pf5d68d3113)" style="fill: #ffa500; opacity: 0.4"/>
   </g>
   <g id="patch_74">
    <path d="M 383.129913 318.2 
L 386.259838 318.2 
L 386.259838 138.693131 
L 383.129913 138.693131 
z
" clip-path="url(#pf5d68d3113)" style="fill: #ffa500; opacity: 0.4"/>
   </g>
   <g id="patch_75">
    <path d="M 387.8248 318.2 
L 390.954726 318.2 
L 390.954726 76.489357 
L 387.8248 76.489357 
z
" clip-path="url(#pf5d68d3113)" style="fill: #ffa500; opacity: 0.4"/>
   </g>
   <g id="patch_76">
    <path d="M 392.676184 318.2 
L 395.80611 318.2 
L 395.80611 75.791763 
L 392.676184 75.791763 
z
" clip-path="url(#pf5d68d3113)" style="fill: #ffa500; opacity: 0.4"/>
   </g>
   <g id="patch_77">
    <path d="M 397.527568 318.2 
L 400.657494 318.2 
L 400.657494 137.543884 
L 397.527568 137.543884 
z
" clip-path="url(#pf5d68d3113)" style="fill: #ffa500; opacity: 0.4"/>
   </g>
   <g id="patch_78">
    <path d="M 402.222456 318.2 
L 405.352381 318.2 
L 405.352381 119.425591 
L 402.222456 119.425591 
z
" clip-path="url(#pf5d68d3113)" style="fill: #ffa500; opacity: 0.4"/>
   </g>
   <g id="patch_79">
    <path d="M 407.07384 318.2 
L 410.203765 318.2 
L 410.203765 123.594787 
L 407.07384 123.594787 
z
" clip-path="url(#pf5d68d3113)" style="fill: #ffa500; opacity: 0.4"/>
   </g>
   <g id="patch_80">
    <path d="M 411.768728 318.2 
L 414.898653 318.2 
L 414.898653 77.222103 
L 411.768728 77.222103 
z
" clip-path="url(#pf5d68d3113)" style="fill: #ffa500; opacity: 0.4"/>
   </g>
   <g id="patch_81">
    <path d="M 416.620112 318.2 
L 419.750037 318.2 
L 419.750037 69.313136 
L 416.620112 69.313136 
z
" clip-path="url(#pf5d68d3113)" style="fill: #ffa500; opacity: 0.4"/>
   </g>
   <g id="patch_82">
    <path d="M 421.471496 318.2 
L 424.601421 318.2 
L 424.601421 69.681496 
L 421.471496 69.681496 
z
" clip-path="url(#pf5d68d3113)" style="fill: #ffa500; opacity: 0.4"/>
   </g>
   <g id="patch_83">
    <path d="M 425.853391 318.2 
L 428.983317 318.2 
L 428.983317 46.049683 
L 425.853391 46.049683 
z
" clip-path="url(#pf5d68d3113)" style="fill: #ffa500; opacity: 0.4"/>
   </g>
   <g id="patch_84">
    <path d="M 430.704775 318.2 
L 433.834701 318.2 
L 433.834701 65.033307 
L 430.704775 65.033307 
z
" clip-path="url(#pf5d68d3113)" style="fill: #ffa500; opacity: 0.4"/>
   </g>
   <g id="patch_85">
    <path d="M 435.399663 318.2 
L 438.529588 318.2 
L 438.529588 115.023701 
L 435.399663 115.023701 
z
" clip-path="url(#pf5d68d3113)" style="fill: #ffa500; opacity: 0.4"/>
   </g>
   <g id="patch_86">
    <path d="M 440.251047 318.2 
L 443.380972 318.2 
L 443.380972 138.78629 
L 440.251047 138.78629 
z
" clip-path="url(#pf5d68d3113)" style="fill: #ffa500; opacity: 0.4"/>
   </g>
   <g id="patch_87">
    <path d="M 444.945935 318.2 
L 448.07586 318.2 
L 448.07586 82.219246 
L 444.945935 82.219246 
z
" clip-path="url(#pf5d68d3113)" style="fill: #ffa500; opacity: 0.4"/>
   </g>
   <g id="patch_88">
    <path d="M 449.797319 318.2 
L 452.927244 318.2 
L 452.927244 48.588372 
L 449.797319 48.588372 
z
" clip-path="url(#pf5d68d3113)" style="fill: #ffa500; opacity: 0.4"/>
   </g>
   <g id="patch_89">
    <path d="M 454.648703 318.2 
L 457.778628 318.2 
L 457.778628 41.988332 
L 454.648703 41.988332 
z
" clip-path="url(#pf5d68d3113)" style="fill: #ffa500; opacity: 0.4"/>
   </g>
   <g id="patch_90">
    <path d="M 459.343591 318.2 
L 462.473516 318.2 
L 462.473516 125.119078 
L 459.343591 125.119078 
z
" clip-path="url(#pf5d68d3113)" style="fill: #ffa500; opacity: 0.4"/>
   </g>
   <g id="patch_91">
    <path d="M 464.194975 318.2 
L 467.3249 318.2 
L 467.3249 124.422566 
L 464.194975 124.422566 
z
" clip-path="url(#pf5d68d3113)" style="fill: #ffa500; opacity: 0.4"/>
   </g>
   <g id="patch_92">
    <path d="M 468.889863 318.2 
L 472.019788 318.2 
L 472.019788 146.634494 
L 468.889863 146.634494 
z
" clip-path="url(#pf5d68d3113)" style="fill: #ffa500; opacity: 0.4"/>
   </g>
   <g id="patch_93">
    <path d="M 473.741247 318.2 
L 476.871172 318.2 
L 476.871172 135.045536 
L 473.741247 135.045536 
z
" clip-path="url(#pf5d68d3113)" style="fill: #ffa500; opacity: 0.4"/>
   </g>
   <g id="patch_94">
    <path d="M 478.592631 318.2 
L 481.722556 318.2 
L 481.722556 88.891476 
L 478.592631 88.891476 
z
" clip-path="url(#pf5d68d3113)" style="fill: #ffa500; opacity: 0.4"/>
   </g>
   <g id="patch_95">
    <path d="M 482.974526 318.2 
L 486.104451 318.2 
L 486.104451 89.789716 
L 482.974526 89.789716 
z
" clip-path="url(#pf5d68d3113)" style="fill: #ffa500; opacity: 0.4"/>
   </g>
   <g id="patch_96">
    <path d="M 487.82591 318.2 
L 490.955835 318.2 
L 490.955835 109.416922 
L 487.82591 109.416922 
z
" clip-path="url(#pf5d68d3113)" style="fill: #ffa500; opacity: 0.4"/>
   </g>
   <g id="patch_97">
    <path d="M 492.520798 318.2 
L 495.650723 318.2 
L 495.650723 116.220431 
L 492.520798 116.220431 
z
" clip-path="url(#pf5d68d3113)" style="fill: #ffa500; opacity: 0.4"/>
   </g>
   <g id="patch_98">
    <path d="M 497.372182 318.2 
L 500.502107 318.2 
L 500.502107 58.210213 
L 497.372182 58.210213 
z
" clip-path="url(#pf5d68d3113)" style="fill: #ffa500; opacity: 0.4"/>
   </g>
   <g id="patch_99">
    <path d="M 502.067069 318.2 
L 505.196995 318.2 
L 505.196995 99.47262 
L 502.067069 99.47262 
z
" clip-path="url(#pf5d68d3113)" style="fill: #ffa500; opacity: 0.4"/>
   </g>
   <g id="patch_100">
    <path d="M 506.918453 318.2 
L 510.048379 318.2 
L 510.048379 60.613751 
L 506.918453 60.613751 
z
" clip-path="url(#pf5d68d3113)" style="fill: #ffa500; opacity: 0.4"/>
   </g>
   <g id="patch_101">
    <path d="M 511.769837 318.2 
L 514.899763 318.2 
L 514.899763 43.321151 
L 511.769837 43.321151 
z
" clip-path="url(#pf5d68d3113)" style="fill: #ffa500; opacity: 0.4"/>
   </g>
   <g id="patch_102">
    <path d="M 516.464725 318.2 
L 519.59465 318.2 
L 519.59465 115.418809 
L 516.464725 115.418809 
z
" clip-path="url(#pf5d68d3113)" style="fill: #ffa500; opacity: 0.4"/>
   </g>
   <g id="patch_103">
    <path d="M 521.316109 318.2 
L 524.446034 318.2 
L 524.446034 128.185181 
L 521.316109 128.185181 
z
" clip-path="url(#pf5d68d3113)" style="fill: #ffa500; opacity: 0.4"/>
   </g>
   <g id="patch_104">
    <path d="M 526.010997 318.2 
L 529.140922 318.2 
L 529.140922 44.471961 
L 526.010997 44.471961 
z
" clip-path="url(#pf5d68d3113)" style="fill: #ffa500; opacity: 0.4"/>
   </g>
   <g id="patch_105">
    <path d="M 530.862381 318.2 
L 533.992306 318.2 
L 533.992306 79.96637 
L 530.862381 79.96637 
z
" clip-path="url(#pf5d68d3113)" style="fill: #ffa500; opacity: 0.4"/>
   </g>
   <g id="patch_106">
    <path d="M 535.713765 318.2 
L 538.84369 318.2 
L 538.84369 118.344907 
L 535.713765 118.344907 
z
" clip-path="url(#pf5d68d3113)" style="fill: #ffa500; opacity: 0.4"/>
   </g>
   <g id="patch_107">
    <path d="M 540.09566 318.2 
L 543.225586 318.2 
L 543.225586 81.413863 
L 540.09566 81.413863 
z
" clip-path="url(#pf5d68d3113)" style="fill: #ffa500; opacity: 0.4"/>
   </g>
   <g id="patch_108">
    <path d="M 544.947044 318.2 
L 548.07697 318.2 
L 548.07697 93.332379 
L 544.947044 93.332379 
z
" clip-path="url(#pf5d68d3113)" style="fill: #ffa500; opacity: 0.4"/>
   </g>
   <g id="patch_109">
    <path d="M 549.641932 318.2 
L 552.771857 318.2 
L 552.771857 49.757841 
L 549.641932 49.757841 
z
" clip-path="url(#pf5d68d3113)" style="fill: #ffa500; opacity: 0.4"/>
   </g>
   <g id="patch_110">
    <path d="M 554.493316 318.2 
L 557.623241 318.2 
L 557.623241 122.245418 
L 554.493316 122.245418 
z
" clip-path="url(#pf5d68d3113)" style="fill: #ffa500; opacity: 0.4"/>
   </g>
   <g id="patch_111">
    <path d="M 559.188204 318.2 
L 562.318129 318.2 
L 562.318129 40.177446 
L 559.188204 40.177446 
z
" clip-path="url(#pf5d68d3113)" style="fill: #ffa500; opacity: 0.4"/>
   </g>
   <g id="patch_112">
    <path d="M 564.039588 318.2 
L 567.169513 318.2 
L 567.169513 46.352961 
L 564.039588 46.352961 
z
" clip-path="url(#pf5d68d3113)" style="fill: #ffa500; opacity: 0.4"/>
   </g>
   <g id="patch_113">
    <path d="M 568.890972 318.2 
L 572.020897 318.2 
L 572.020897 130.644304 
L 568.890972 130.644304 
z
" clip-path="url(#pf5d68d3113)" style="fill: #ffa500; opacity: 0.4"/>
   </g>
   <g id="patch_114">
    <path d="M 573.58586 318.2 
L 576.715785 318.2 
L 576.715785 132.440304 
L 573.58586 132.440304 
z
" clip-path="url(#pf5d68d3113)" style="fill: #ffa500; opacity: 0.4"/>
   </g>
   <g id="patch_115">
    <path d="M 578.437244 318.2 
L 581.567169 318.2 
L 581.567169 91.312568 
L 578.437244 91.312568 
z
" clip-path="url(#pf5d68d3113)" style="fill: #ffa500; opacity: 0.4"/>
   </g>
   <g id="patch_116">
    <path d="M 583.132132 318.2 
L 586.262057 318.2 
L 586.262057 145.797754 
L 583.132132 145.797754 
z
" clip-path="url(#pf5d68d3113)" style="fill: #ffa500; opacity: 0.4"/>
   </g>
   <g id="patch_117">
    <path d="M 587.983516 318.2 
L 591.113441 318.2 
L 591.113441 117.465538 
L 587.983516 117.465538 
z
" clip-path="url(#pf5d68d3113)" style="fill: #ffa500; opacity: 0.4"/>
   </g>
   <g id="patch_118">
    <path d="M 592.8349 318.2 
L 595.964825 318.2 
L 595.964825 102.255421 
L 592.8349 102.255421 
z
" clip-path="url(#pf5d68d3113)" style="fill: #ffa500; opacity: 0.4"/>
   </g>
   <g id="patch_119">
    <path d="M 597.373291 318.2 
L 600.503216 318.2 
L 600.503216 42.633567 
L 597.373291 42.633567 
z
" clip-path="url(#pf5d68d3113)" style="fill: #ffa500; opacity: 0.4"/>
   </g>
   <g id="patch_120">
    <path d="M 602.224675 318.2 
L 605.3546 318.2 
L 605.3546 40.066667 
L 602.224675 40.066667 
z
" clip-path="url(#pf5d68d3113)" style="fill: #ffa500; opacity: 0.4"/>
   </g>
   <g id="patch_121">
    <path d="M 606.919563 318.2 
L 610.049488 318.2 
L 610.049488 133.898599 
L 606.919563 133.898599 
z
" clip-path="url(#pf5d68d3113)" style="fill: #ffa500; opacity: 0.4"/>
   </g>
   <g id="patch_122">
    <path d="M 611.770947 318.2 
L 614.900872 318.2 
L 614.900872 51.30396 
L 611.770947 51.30396 
z
" clip-path="url(#pf5d68d3113)" style="fill: #ffa500; opacity: 0.4"/>
   </g>
   <g id="patch_123">
    <path d="M 616.465835 318.2 
L 619.59576 318.2 
L 619.59576 140.662414 
L 616.465835 140.662414 
z
" clip-path="url(#pf5d68d3113)" style="fill: #ffa500; opacity: 0.4"/>
   </g>
   <g id="patch_124">
    <path d="M 621.317219 318.2 
L 624.447144 318.2 
L 624.447144 67.269577 
L 621.317219 67.269577 
z
" clip-path="url(#pf5d68d3113)" style="fill: #ffa500; opacity: 0.4"/>
   </g>
   <g id="patch_125">
    <path d="M 626.168603 318.2 
L 629.298528 318.2 
L 629.298528 56.441119 
L 626.168603 56.441119 
z
" clip-path="url(#pf5d68d3113)" style="fill: #ffa500; opacity: 0.4"/>
   </g>
   <g id="patch_126">
    <path d="M 630.863491 318.2 
L 633.993416 318.2 
L 633.993416 51.402698 
L 630.863491 51.402698 
z
" clip-path="url(#pf5d68d3113)" style="fill: #ffa500; opacity: 0.4"/>
   </g>
   <g id="patch_127">
    <path d="M 635.714875 318.2 
L 638.8448 318.2 
L 638.8448 125.877469 
L 635.714875 125.877469 
z
" clip-path="url(#pf5d68d3113)" style="fill: #ffa500; opacity: 0.4"/>
   </g>
   <g id="patch_128">
    <path d="M 640.409762 318.2 
L 643.539688 318.2 
L 643.539688 51.106506 
L 640.409762 51.106506 
z
" clip-path="url(#pf5d68d3113)" style="fill: #ffa500; opacity: 0.4"/>
   </g>
   <g id="matplotlib.axis_3">
    <g id="ytick_8">
     <g id="line2d_39">
      <defs>
       <path id="m5f4a629946" d="M 0 0 
L 3.5 0 
" style="stroke: #000000; stroke-width: 0.8"/>
      </defs>
      <g>
       <use xlink:href="#m5f4a629946" x="672.037656" y="318.2" style="stroke: #000000; stroke-width: 0.8"/>
      </g>
     </g>
     <g id="text_24">
      <!-- 0.0 -->
      <g style="fill: #ffa500" transform="translate(679.037656 321.998828) scale(0.1 -0.1)">
       <defs>
        <path id="DejaVuSans-11" d="M 684 794 
L 1344 794 
L 1344 0 
L 684 0 
L 684 794 
z
" transform="scale(0.015625)"/>
       </defs>
       <use xlink:href="#DejaVuSans-13"/>
       <use xlink:href="#DejaVuSans-11" transform="translate(63.625 0)"/>
       <use xlink:href="#DejaVuSans-13" transform="translate(95.40625 0)"/>
      </g>
     </g>
    </g>
    <g id="ytick_9">
     <g id="line2d_40">
      <g>
       <use xlink:href="#m5f4a629946" x="672.037656" y="262.403164" style="stroke: #000000; stroke-width: 0.8"/>
      </g>
     </g>
     <g id="text_25">
      <!-- 0.5 -->
      <g style="fill: #ffa500" transform="translate(679.037656 266.201992) scale(0.1 -0.1)">
       <use xlink:href="#DejaVuSans-13"/>
       <use xlink:href="#DejaVuSans-11" transform="translate(63.625 0)"/>
       <use xlink:href="#DejaVuSans-18" transform="translate(95.40625 0)"/>
      </g>
     </g>
    </g>
    <g id="ytick_10">
     <g id="line2d_41">
      <g>
       <use xlink:href="#m5f4a629946" x="672.037656" y="206.606328" style="stroke: #000000; stroke-width: 0.8"/>
      </g>
     </g>
     <g id="text_26">
      <!-- 1.0 -->
      <g style="fill: #ffa500" transform="translate(679.037656 210.405156) scale(0.1 -0.1)">
       <use xlink:href="#DejaVuSans-14"/>
       <use xlink:href="#DejaVuSans-11" transform="translate(63.625 0)"/>
       <use xlink:href="#DejaVuSans-13" transform="translate(95.40625 0)"/>
      </g>
     </g>
    </g>
    <g id="ytick_11">
     <g id="line2d_42">
      <g>
       <use xlink:href="#m5f4a629946" x="672.037656" y="150.809492" style="stroke: #000000; stroke-width: 0.8"/>
      </g>
     </g>
     <g id="text_27">
      <!-- 1.5 -->
      <g style="fill: #ffa500" transform="translate(679.037656 154.608321) scale(0.1 -0.1)">
       <use xlink:href="#DejaVuSans-14"/>
       <use xlink:href="#DejaVuSans-11" transform="translate(63.625 0)"/>
       <use xlink:href="#DejaVuSans-18" transform="translate(95.40625 0)"/>
      </g>
     </g>
    </g>
    <g id="ytick_12">
     <g id="line2d_43">
      <g>
       <use xlink:href="#m5f4a629946" x="672.037656" y="95.012657" style="stroke: #000000; stroke-width: 0.8"/>
      </g>
     </g>
     <g id="text_28">
      <!-- 2.0 -->
      <g style="fill: #ffa500" transform="translate(679.037656 98.811485) scale(0.1 -0.1)">
       <use xlink:href="#DejaVuSans-15"/>
       <use xlink:href="#DejaVuSans-11" transform="translate(63.625 0)"/>
       <use xlink:href="#DejaVuSans-13" transform="translate(95.40625 0)"/>
      </g>
     </g>
    </g>
    <g id="ytick_13">
     <g id="line2d_44">
      <g>
       <use xlink:href="#m5f4a629946" x="672.037656" y="39.215821" style="stroke: #000000; stroke-width: 0.8"/>
      </g>
     </g>
     <g id="text_29">
      <!-- 2.5 -->
      <g style="fill: #ffa500" transform="translate(679.037656 43.014649) scale(0.1 -0.1)">
       <use xlink:href="#DejaVuSans-15"/>
       <use xlink:href="#DejaVuSans-11" transform="translate(63.625 0)"/>
       <use xlink:href="#DejaVuSans-18" transform="translate(95.40625 0)"/>
      </g>
     </g>
    </g>
    <g id="text_30">
     <!-- Trading Volume -->
     <g style="fill: #ffa500" transform="translate(706.539219 210.709687) rotate(-90) scale(0.1 -0.1)">
      <defs>
       <path id="DejaVuSans-47" d="M 2906 2969 
L 2906 4863 
L 3481 4863 
L 3481 0 
L 2906 0 
L 2906 525 
Q 2725 213 2448 61 
Q 2172 -91 1784 -91 
Q 1150 -91 751 415 
Q 353 922 353 1747 
Q 353 2572 751 3078 
Q 1150 3584 1784 3584 
Q 2172 3584 2448 3432 
Q 2725 3281 2906 2969 
z
M 947 1747 
Q 947 1113 1208 752 
Q 1469 391 1925 391 
Q 2381 391 2643 752 
Q 2906 1113 2906 1747 
Q 2906 2381 2643 2742 
Q 2381 3103 1925 3103 
Q 1469 3103 1208 2742 
Q 947 2381 947 1747 
z
" transform="scale(0.015625)"/>
       <path id="DejaVuSans-4c" d="M 603 3500 
L 1178 3500 
L 1178 0 
L 603 0 
L 603 3500 
z
M 603 4863 
L 1178 4863 
L 1178 4134 
L 603 4134 
L 603 4863 
z
" transform="scale(0.015625)"/>
       <path id="DejaVuSans-51" d="M 3513 2113 
L 3513 0 
L 2938 0 
L 2938 2094 
Q 2938 2591 2744 2837 
Q 2550 3084 2163 3084 
Q 1697 3084 1428 2787 
Q 1159 2491 1159 1978 
L 1159 0 
L 581 0 
L 581 3500 
L 1159 3500 
L 1159 2956 
Q 1366 3272 1645 3428 
Q 1925 3584 2291 3584 
Q 2894 3584 3203 3211 
Q 3513 2838 3513 2113 
z
" transform="scale(0.015625)"/>
       <path id="DejaVuSans-4a" d="M 2906 1791 
Q 2906 2416 2648 2759 
Q 2391 3103 1925 3103 
Q 1463 3103 1205 2759 
Q 947 2416 947 1791 
Q 947 1169 1205 825 
Q 1463 481 1925 481 
Q 2391 481 2648 825 
Q 2906 1169 2906 1791 
z
M 3481 434 
Q 3481 -459 3084 -895 
Q 2688 -1331 1869 -1331 
Q 1566 -1331 1297 -1286 
Q 1028 -1241 775 -1147 
L 775 -588 
Q 1028 -725 1275 -790 
Q 1522 -856 1778 -856 
Q 2344 -856 2625 -561 
Q 2906 -266 2906 331 
L 2906 616 
Q 2728 306 2450 153 
Q 2172 0 1784 0 
Q 1141 0 747 490 
Q 353 981 353 1791 
Q 353 2603 747 3093 
Q 1141 3584 1784 3584 
Q 2172 3584 2450 3431 
Q 2728 3278 2906 2969 
L 2906 3500 
L 3481 3500 
L 3481 434 
z
" transform="scale(0.015625)"/>
      </defs>
      <use xlink:href="#DejaVuSans-37"/>
      <use xlink:href="#DejaVuSans-55" transform="translate(46.375 0)"/>
      <use xlink:href="#DejaVuSans-44" transform="translate(87.484375 0)"/>
      <use xlink:href="#DejaVuSans-47" transform="translate(148.765625 0)"/>
      <use xlink:href="#DejaVuSans-4c" transform="translate(212.25 0)"/>
      <use xlink:href="#DejaVuSans-51" transform="translate(240.03125 0)"/>
      <use xlink:href="#DejaVuSans-4a" transform="translate(303.40625 0)"/>
      <use xlink:href="#DejaVuSans-3" transform="translate(366.890625 0)"/>
      <use xlink:href="#DejaVuSans-39" transform="translate(398.671875 0)"/>
      <use xlink:href="#DejaVuSans-52" transform="translate(459.3125 0)"/>
      <use xlink:href="#DejaVuSans-4f" transform="translate(520.5 0)"/>
      <use xlink:href="#DejaVuSans-58" transform="translate(548.28125 0)"/>
      <use xlink:href="#DejaVuSans-50" transform="translate(611.65625 0)"/>
      <use xlink:href="#DejaVuSans-48" transform="translate(709.0625 0)"/>
     </g>
    </g>
    <g id="text_31">
     <!-- 1e7 -->
     <g style="fill: #ffa500" transform="translate(653.159531 23.16) scale(0.1 -0.1)">
      <use xlink:href="#DejaVuSans-14"/>
      <use xlink:href="#DejaVuSans-48" transform="translate(63.625 0)"/>
      <use xlink:href="#DejaVuSans-1a" transform="translate(125.15625 0)"/>
     </g>
    </g>
   </g>
   <g id="patch_129">
    <path d="M 45.082344 318.2 
L 45.082344 26.16 
" style="fill: none; stroke: #000000; stroke-width: 0.8; stroke-linejoin: miter; stroke-linecap: square"/>
   </g>
   <g id="patch_130">
    <path d="M 672.037656 318.2 
L 672.037656 26.16 
" style="fill: none; stroke: #000000; stroke-width: 0.8; stroke-linejoin: miter; stroke-linecap: square"/>
   </g>
   <g id="patch_131">
    <path d="M 45.082344 318.2 
L 672.037656 318.2 
" style="fill: none; stroke: #000000; stroke-width: 0.8; stroke-linejoin: miter; stroke-linecap: square"/>
   </g>
   <g id="patch_132">
    <path d="M 45.082344 26.16 
L 672.037656 26.16 
" style="fill: none; stroke: #000000; stroke-width: 0.8; stroke-linejoin: miter; stroke-linecap: square"/>
   </g>
  </g>
 </g>
 <defs>
  <clipPath id="pf5d68d3113">
   <rect x="45.082344" y="26.16" width="626.955312" height="292.04"/>
  </clipPath>
 </defs>
</svg>
