<?xml version="1.0" encoding="utf-8" standalone="no"?>
<!DOCTYPE svg PUBLIC "-//W3C//DTD SVG 1.1//EN"
  "http://www.w3.org/Graphics/SVG/1.1/DTD/svg11.dtd">
<svg xmlns:xlink="http://www.w3.org/1999/xlink" width="576pt" height="432pt" viewBox="0 0 576 432" xmlns="http://www.w3.org/2000/svg" version="1.1">
 <metadata>
  <rdf:RDF xmlns:dc="http://purl.org/dc/elements/1.1/" xmlns:cc="http://creativecommons.org/ns#" xmlns:rdf="http://www.w3.org/1999/02/22-rdf-syntax-ns#">
   <cc:Work>
    <dc:type rdf:resource="http://purl.org/dc/dcmitype/StillImage"/>
    <dc:date>2026-07-04T19:44:52.247818</dc:date>
    <dc:format>image/svg+xml</dc:format>
    <dc:creator>
     <cc:Agent>
      <dc:title>Matplotlib v3.11.0, https://matplotlib.org/</dc:title>
     </cc:Agent>
    </dc:creator>
   </cc:Work>
  </rdf:RDF>
 </metadata>
 <defs>
  <style type="text/css">*{stroke-linejoin: round; stroke-linecap: butt}</style>
 </defs>
 <g id="figure_1">
  <g id="patch_1">
   <path d="M 0 432 
L 576 432 
L 576 0 
L 0 0 
z
" style="fill: #ffffff"/>
  </g>
  <g id="axes_1">
   <g id="line2d_1">
    <path d="M 225.156771 246.587107 
L 450.214589 172.480998 
" clip-path="url(#pe8c4e7b5c0)" style="fill: none; stroke: #e53935; stroke-opacity: 0.265642; stroke-width: 1.383958; stroke-linecap: round"/>
   </g>
   <g id="line2d_2">
    <path d="M 225.156771 246.587107 
L 129.195898 277.077872 
" clip-path="url(#pe8c4e7b5c0)" style="fill: none; stroke: #e53935; stroke-opacity: 0.292321; stroke-width: 2.751141; stroke-linecap: round"/>
   </g>
   <g id="line2d_3">
    <path d="M 225.156771 246.587107 
L 76.259863 173.902852 
" clip-path="url(#pe8c4e7b5c0)" style="fill: none; stroke: #e53935; stroke-opacity: 0.262385; stroke-width: 1.217052; stroke-linecap: round"/>
   </g>
   <g id="line2d_4">
    <path d="M 225.156771 246.587107 
L 173.893353 399.938033 
" clip-path="url(#pe8c4e7b5c0)" style="fill: none; stroke: #e53935; stroke-opacity: 0.315622; stroke-width: 3.945242; stroke-linecap: round"/>
   </g>
   <g id="line2d_5">
    <path d="M 450.214589 172.480998 
L 283.582928 173.440836 
" clip-path="url(#pe8c4e7b5c0)" style="fill: none; stroke: #e53935; stroke-opacity: 0.265808; stroke-width: 1.392489; stroke-linecap: round"/>
   </g>
   <g id="line2d_6">
    <path d="M 129.195898 277.077872 
L 76.259863 173.902852 
" clip-path="url(#pe8c4e7b5c0)" style="fill: none; stroke: #e53935; stroke-opacity: 0.261315; stroke-width: 1.162224; stroke-linecap: round"/>
   </g>
   <g id="line2d_7">
    <path d="M 129.195898 277.077872 
L 283.582928 173.440836 
" clip-path="url(#pe8c4e7b5c0)" style="fill: none; stroke: #1e88e5; stroke-opacity: 0.264571; stroke-width: 1.329079; stroke-linecap: round"/>
   </g>
   <g id="line2d_8">
    <path d="M 129.195898 277.077872 
L 47.799309 58.698686 
" clip-path="url(#pe8c4e7b5c0)" style="fill: none; stroke: #e53935; stroke-opacity: 0.249785; stroke-width: 0.571394; stroke-linecap: round"/>
   </g>
   <g id="line2d_9">
    <path d="M 129.195898 277.077872 
L 278.547273 375.482085 
" clip-path="url(#pe8c4e7b5c0)" style="fill: none; stroke: #1e88e5; stroke-opacity: 0.304935; stroke-width: 3.397591; stroke-linecap: round"/>
   </g>
   <g id="line2d_10">
    <path d="M 129.195898 277.077872 
L 173.893353 399.938033 
" clip-path="url(#pe8c4e7b5c0)" style="fill: none; stroke: #e53935; stroke-opacity: 0.281832; stroke-width: 2.213641; stroke-linecap: round"/>
   </g>
   <g id="line2d_11">
    <path d="M 76.259863 173.902852 
L 283.582928 173.440836 
" clip-path="url(#pe8c4e7b5c0)" style="fill: none; stroke: #e53935; stroke-opacity: 0.274552; stroke-width: 1.840569; stroke-linecap: round"/>
   </g>
   <g id="line2d_12">
    <path d="M 283.582928 173.440836 
L 278.547273 375.482085 
" clip-path="url(#pe8c4e7b5c0)" style="fill: none; stroke: #1e88e5; stroke-opacity: 0.248392; stroke-width: 0.5; stroke-linecap: round"/>
   </g>
   <g id="line2d_13">
    <path d="M 278.547273 375.482085 
L 173.893353 399.938033 
" clip-path="url(#pe8c4e7b5c0)" style="fill: none; stroke: #e53935; stroke-opacity: 0.336205; stroke-width: 5; stroke-linecap: round"/>
   </g>
   <g id="PathCollection_1">
    <path d="M 225.156771 267.44376 
C 230.688021 267.44376 235.993469 265.246172 239.904653 261.334988 
C 243.815836 257.423804 246.013425 252.118356 246.013425 246.587107 
C 246.013425 241.055858 243.815836 235.750409 239.904653 231.839226 
C 235.993469 227.928042 230.688021 225.730453 225.156771 225.730453 
C 219.625522 225.730453 214.320074 227.928042 210.40889 231.839226 
C 206.497706 235.750409 204.300118 241.055858 204.300118 246.587107 
C 204.300118 252.118356 206.497706 257.423804 210.40889 261.334988 
C 214.320074 265.246172 219.625522 267.44376 225.156771 267.44376 
z
" clip-path="url(#pe8c4e7b5c0)" style="fill: #4c72b0; fill-opacity: 0.9; stroke: #ffffff; stroke-opacity: 0.9; stroke-width: 1.5"/>
    <path d="M 450.214589 188.133474 
C 454.365674 188.133474 458.3473 186.48423 461.282561 183.548969 
C 464.217821 180.613709 465.867065 176.632083 465.867065 172.480998 
C 465.867065 168.329913 464.217821 164.348286 461.282561 161.413026 
C 458.3473 158.477765 454.365674 156.828522 450.214589 156.828522 
C 446.063504 156.828522 442.081877 158.477765 439.146617 161.413026 
C 436.211357 164.348286 434.562113 168.329913 434.562113 172.480998 
C 434.562113 176.632083 436.211357 180.613709 439.146617 183.548969 
C 442.081877 186.48423 446.063504 188.133474 450.214589 188.133474 
z
" clip-path="url(#pe8c4e7b5c0)" style="fill: #4c72b0; fill-opacity: 0.9; stroke: #ffffff; stroke-opacity: 0.9; stroke-width: 1.5"/>
    <path d="M 129.195898 302.077872 
C 135.825976 302.077872 142.185395 299.443714 146.873568 294.755541 
C 151.56174 290.067368 154.195898 283.707949 154.195898 277.077872 
C 154.195898 270.447794 151.56174 264.088375 146.873568 259.400202 
C 142.185395 254.712029 135.825976 252.077872 129.195898 252.077872 
C 122.565821 252.077872 116.206401 254.712029 111.518229 259.400202 
C 106.830056 264.088375 104.195898 270.447794 104.195898 277.077872 
C 104.195898 283.707949 106.830056 290.067368 111.518229 294.755541 
C 116.206401 299.443714 122.565821 302.077872 129.195898 302.077872 
z
" clip-path="url(#pe8c4e7b5c0)" style="fill: #dd8452; fill-opacity: 0.9; stroke: #ffffff; stroke-opacity: 0.9; stroke-width: 1.5"/>
    <path d="M 76.259863 192.341941 
C 81.149967 192.341941 85.840443 190.399082 89.298268 186.941256 
C 92.756094 183.483431 94.698952 178.792955 94.698952 173.902852 
C 94.698952 169.012748 92.756094 164.322272 89.298268 160.864447 
C 85.840443 157.406621 81.149967 155.463763 76.259863 155.463763 
C 71.36976 155.463763 66.679284 157.406621 63.221459 160.864447 
C 59.763633 164.322272 57.820774 169.012748 57.820774 173.902852 
C 57.820774 178.792955 59.763633 183.483431 63.221459 186.941256 
C 66.679284 190.399082 71.36976 192.341941 76.259863 192.341941 
z
" clip-path="url(#pe8c4e7b5c0)" style="fill: #4c72b0; fill-opacity: 0.9; stroke: #ffffff; stroke-opacity: 0.9; stroke-width: 1.5"/>
    <path d="M 283.582928 194.29749 
C 289.114177 194.29749 294.419625 192.099901 298.330809 188.188717 
C 302.241993 184.277534 304.439582 178.972085 304.439582 173.440836 
C 304.439582 167.909587 302.241993 162.604139 298.330809 158.692955 
C 294.419625 154.781771 289.114177 152.584183 283.582928 152.584183 
C 278.051679 152.584183 272.746231 154.781771 268.835047 158.692955 
C 264.923863 162.604139 262.726274 167.909587 262.726274 173.440836 
C 262.726274 178.972085 264.923863 184.277534 268.835047 188.188717 
C 272.746231 192.099901 278.051679 194.29749 283.582928 194.29749 
z
" clip-path="url(#pe8c4e7b5c0)" style="fill: #4c72b0; fill-opacity: 0.9; stroke: #ffffff; stroke-opacity: 0.9; stroke-width: 1.5"/>
    <path d="M 47.799309 70.946135 
C 51.047371 70.946135 54.162837 69.655666 56.459563 67.35894 
C 58.75629 65.062214 60.046758 61.946747 60.046758 58.698686 
C 60.046758 55.450625 58.75629 52.335158 56.459563 50.038432 
C 54.162837 47.741706 51.047371 46.451237 47.799309 46.451237 
C 44.551248 46.451237 41.435782 47.741706 39.139055 50.038432 
C 36.842329 52.335158 35.551861 55.450625 35.551861 58.698686 
C 35.551861 61.946747 36.842329 65.062214 39.139055 67.35894 
C 41.435782 69.655666 44.551248 70.946135 47.799309 70.946135 
z
" clip-path="url(#pe8c4e7b5c0)" style="fill: #dd8452; fill-opacity: 0.9; stroke: #ffffff; stroke-opacity: 0.9; stroke-width: 1.5"/>
    <path d="M 278.547273 393.921174 
C 283.437376 393.921174 288.127852 391.978315 291.585678 388.520489 
C 295.043503 385.062664 296.986362 380.372188 296.986362 375.482085 
C 296.986362 370.591981 295.043503 365.901505 291.585678 362.44368 
C 288.127852 358.985854 283.437376 357.042996 278.547273 357.042996 
C 273.657169 357.042996 268.966693 358.985854 265.508868 362.44368 
C 262.051043 365.901505 260.108184 370.591981 260.108184 375.482085 
C 260.108184 380.372188 262.051043 385.062664 265.508868 388.520489 
C 268.966693 391.978315 273.657169 393.921174 278.547273 393.921174 
z
" clip-path="url(#pe8c4e7b5c0)" style="fill: #dd8452; fill-opacity: 0.9; stroke: #ffffff; stroke-opacity: 0.9; stroke-width: 1.5"/>
    <path d="M 173.893353 418.377122 
C 178.783456 418.377122 183.473932 416.434263 186.931758 412.976437 
C 190.389583 409.518612 192.332442 404.828136 192.332442 399.938033 
C 192.332442 395.047929 190.389583 390.357453 186.931758 386.899628 
C 183.473932 383.441802 178.783456 381.498944 173.893353 381.498944 
C 169.003249 381.498944 164.312773 383.441802 160.854948 386.899628 
C 157.397123 390.357453 155.454264 395.047929 155.454264 399.938033 
C 155.454264 404.828136 157.397123 409.518612 160.854948 412.976437 
C 164.312773 416.434263 169.003249 418.377122 173.893353 418.377122 
z
" clip-path="url(#pe8c4e7b5c0)" style="fill: #dd8452; fill-opacity: 0.9; stroke: #ffffff; stroke-opacity: 0.9; stroke-width: 1.5"/>
   </g>
   <g id="text_1">
    <g id="patch_2">
     <path d="M 199.54474 237.287107 
L 250.768803 237.287107 
Q 253.468803 237.287107 253.468803 234.587107 
L 253.468803 212.982185 
Q 253.468803 210.282185 250.768803 210.282185 
L 199.54474 210.282185 
Q 196.84474 210.282185 196.84474 212.982185 
L 196.84474 234.587107 
Q 196.84474 237.287107 199.54474 237.287107 
z
" style="fill: #ffffff; opacity: 0.85"/>
    </g>
    <!-- AOT Close -->
    <g style="fill: #212121" transform="translate(199.54474 220.721658) scale(0.09 -0.09)">
     <defs>
      <path id="DejaVuSans-Bold-24" d="M 3419 850 
L 1538 850 
L 1241 0 
L 31 0 
L 1759 4666 
L 3194 4666 
L 4922 0 
L 3713 0 
L 3419 850 
z
M 1838 1716 
L 3116 1716 
L 2478 3572 
L 1838 1716 
z
" transform="scale(0.015625)"/>
      <path id="DejaVuSans-Bold-32" d="M 2719 3878 
Q 2169 3878 1866 3472 
Q 1563 3066 1563 2328 
Q 1563 1594 1866 1187 
Q 2169 781 2719 781 
Q 3272 781 3575 1187 
Q 3878 1594 3878 2328 
Q 3878 3066 3575 3472 
Q 3272 3878 2719 3878 
z
M 2719 4750 
Q 3844 4750 4481 4106 
Q 5119 3463 5119 2328 
Q 5119 1197 4481 553 
Q 3844 -91 2719 -91 
Q 1597 -91 958 553 
Q 319 1197 319 2328 
Q 319 3463 958 4106 
Q 1597 4750 2719 4750 
z
" transform="scale(0.015625)"/>
      <path id="DejaVuSans-Bold-37" d="M 31 4666 
L 4331 4666 
L 4331 3756 
L 2784 3756 
L 2784 0 
L 1581 0 
L 1581 3756 
L 31 3756 
L 31 4666 
z
" transform="scale(0.015625)"/>
      <path id="DejaVuSans-Bold-3" transform="scale(0.015625)"/>
      <path id="DejaVuSans-Bold-26" d="M 4288 256 
Q 3956 84 3597 -3 
Q 3238 -91 2847 -91 
Q 1681 -91 1000 561 
Q 319 1213 319 2328 
Q 319 3447 1000 4098 
Q 1681 4750 2847 4750 
Q 3238 4750 3597 4662 
Q 3956 4575 4288 4403 
L 4288 3438 
Q 3953 3666 3628 3772 
Q 3303 3878 2944 3878 
Q 2300 3878 1931 3465 
Q 1563 3053 1563 2328 
Q 1563 1606 1931 1193 
Q 2300 781 2944 781 
Q 3303 781 3628 887 
Q 3953 994 4288 1222 
L 4288 256 
z
" transform="scale(0.015625)"/>
      <path id="DejaVuSans-Bold-4f" d="M 538 4863 
L 1656 4863 
L 1656 0 
L 538 0 
L 538 4863 
z
" transform="scale(0.015625)"/>
      <path id="DejaVuSans-Bold-52" d="M 2203 2784 
Q 1831 2784 1636 2517 
Q 1441 2250 1441 1747 
Q 1441 1244 1636 976 
Q 1831 709 2203 709 
Q 2569 709 2762 976 
Q 2956 1244 2956 1747 
Q 2956 2250 2762 2517 
Q 2569 2784 2203 2784 
z
M 2203 3584 
Q 3106 3584 3614 3096 
Q 4122 2609 4122 1747 
Q 4122 884 3614 396 
Q 3106 -91 2203 -91 
Q 1297 -91 786 396 
Q 275 884 275 1747 
Q 275 2609 786 3096 
Q 1297 3584 2203 3584 
z
" transform="scale(0.015625)"/>
      <path id="DejaVuSans-Bold-56" d="M 3272 3391 
L 3272 2541 
Q 2913 2691 2578 2766 
Q 2244 2841 1947 2841 
Q 1628 2841 1473 2761 
Q 1319 2681 1319 2516 
Q 1319 2381 1436 2309 
Q 1553 2238 1856 2203 
L 2053 2175 
Q 2913 2066 3209 1816 
Q 3506 1566 3506 1031 
Q 3506 472 3093 190 
Q 2681 -91 1863 -91 
Q 1516 -91 1145 -36 
Q 775 19 384 128 
L 384 978 
Q 719 816 1070 734 
Q 1422 653 1784 653 
Q 2113 653 2278 743 
Q 2444 834 2444 1013 
Q 2444 1163 2330 1236 
Q 2216 1309 1875 1350 
L 1678 1375 
Q 931 1469 631 1722 
Q 331 1975 331 2491 
Q 331 3047 712 3315 
Q 1094 3584 1881 3584 
Q 2191 3584 2531 3537 
Q 2872 3491 3272 3391 
z
" transform="scale(0.015625)"/>
      <path id="DejaVuSans-Bold-48" d="M 4031 1759 
L 4031 1441 
L 1416 1441 
Q 1456 1047 1700 850 
Q 1944 653 2381 653 
Q 2734 653 3104 758 
Q 3475 863 3866 1075 
L 3866 213 
Q 3469 63 3072 -14 
Q 2675 -91 2278 -91 
Q 1328 -91 801 392 
Q 275 875 275 1747 
Q 275 2603 792 3093 
Q 1309 3584 2216 3584 
Q 3041 3584 3536 3087 
Q 4031 2591 4031 1759 
z
M 2881 2131 
Q 2881 2450 2695 2645 
Q 2509 2841 2209 2841 
Q 1884 2841 1681 2658 
Q 1478 2475 1428 2131 
L 2881 2131 
z
" transform="scale(0.015625)"/>
     </defs>
     <use xlink:href="#DejaVuSans-Bold-24"/>
     <use xlink:href="#DejaVuSans-Bold-32" transform="translate(77.390625 0)"/>
     <use xlink:href="#DejaVuSans-Bold-37" transform="translate(162.40625 0)"/>
     <use xlink:href="#DejaVuSans-Bold-3" transform="translate(230.625 0)"/>
     <use xlink:href="#DejaVuSans-Bold-26" transform="translate(265.4375 0)"/>
     <use xlink:href="#DejaVuSans-Bold-4f" transform="translate(338.828125 0)"/>
     <use xlink:href="#DejaVuSans-Bold-52" transform="translate(373.109375 0)"/>
     <use xlink:href="#DejaVuSans-Bold-56" transform="translate(441.8125 0)"/>
     <use xlink:href="#DejaVuSans-Bold-48" transform="translate(501.328125 0)"/>
    </g>
    <!-- (deg=4) -->
    <g style="fill: #212121" transform="translate(204.647318 231.524119) scale(0.09 -0.09)">
     <defs>
      <path id="DejaVuSans-Bold-b" d="M 2413 -844 
L 1484 -844 
Q 1006 -72 778 623 
Q 550 1319 550 2003 
Q 550 2688 779 3389 
Q 1009 4091 1484 4856 
L 2413 4856 
Q 2013 4116 1813 3408 
Q 1613 2700 1613 2009 
Q 1613 1319 1811 609 
Q 2009 -100 2413 -844 
z
" transform="scale(0.015625)"/>
      <path id="DejaVuSans-Bold-47" d="M 2919 2988 
L 2919 4863 
L 4044 4863 
L 4044 0 
L 2919 0 
L 2919 506 
Q 2688 197 2409 53 
Q 2131 -91 1766 -91 
Q 1119 -91 703 423 
Q 288 938 288 1747 
Q 288 2556 703 3070 
Q 1119 3584 1766 3584 
Q 2128 3584 2408 3439 
Q 2688 3294 2919 2988 
z
M 2181 722 
Q 2541 722 2730 984 
Q 2919 1247 2919 1747 
Q 2919 2247 2730 2509 
Q 2541 2772 2181 2772 
Q 1825 2772 1636 2509 
Q 1447 2247 1447 1747 
Q 1447 1247 1636 984 
Q 1825 722 2181 722 
z
" transform="scale(0.015625)"/>
      <path id="DejaVuSans-Bold-4a" d="M 2919 594 
Q 2688 288 2409 144 
Q 2131 0 1766 0 
Q 1125 0 706 504 
Q 288 1009 288 1791 
Q 288 2575 706 3076 
Q 1125 3578 1766 3578 
Q 2131 3578 2409 3434 
Q 2688 3291 2919 2981 
L 2919 3500 
L 4044 3500 
L 4044 353 
Q 4044 -491 3511 -936 
Q 2978 -1381 1966 -1381 
Q 1638 -1381 1331 -1331 
Q 1025 -1281 716 -1178 
L 716 -306 
Q 1009 -475 1290 -558 
Q 1572 -641 1856 -641 
Q 2406 -641 2662 -400 
Q 2919 -159 2919 353 
L 2919 594 
z
M 2181 2772 
Q 1834 2772 1640 2515 
Q 1447 2259 1447 1791 
Q 1447 1309 1634 1061 
Q 1822 813 2181 813 
Q 2531 813 2725 1069 
Q 2919 1325 2919 1791 
Q 2919 2259 2725 2515 
Q 2531 2772 2181 2772 
z
" transform="scale(0.015625)"/>
      <path id="DejaVuSans-Bold-20" d="M 678 3084 
L 4684 3084 
L 4684 2350 
L 678 2350 
L 678 3084 
z
M 678 1663 
L 4684 1663 
L 4684 922 
L 678 922 
L 678 1663 
z
" transform="scale(0.015625)"/>
      <path id="DejaVuSans-Bold-17" d="M 2356 3675 
L 1038 1722 
L 2356 1722 
L 2356 3675 
z
M 2156 4666 
L 3494 4666 
L 3494 1722 
L 4159 1722 
L 4159 850 
L 3494 850 
L 3494 0 
L 2356 0 
L 2356 850 
L 288 850 
L 288 1881 
L 2156 4666 
z
" transform="scale(0.015625)"/>
      <path id="DejaVuSans-Bold-c" d="M 513 -844 
Q 913 -100 1113 609 
Q 1313 1319 1313 2009 
Q 1313 2700 1113 3408 
Q 913 4116 513 4856 
L 1441 4856 
Q 1916 4091 2145 3389 
Q 2375 2688 2375 2003 
Q 2375 1319 2147 623 
Q 1919 -72 1441 -844 
L 513 -844 
z
" transform="scale(0.015625)"/>
     </defs>
     <use xlink:href="#DejaVuSans-Bold-b"/>
     <use xlink:href="#DejaVuSans-Bold-47" transform="translate(45.703125 0)"/>
     <use xlink:href="#DejaVuSans-Bold-48" transform="translate(117.28125 0)"/>
     <use xlink:href="#DejaVuSans-Bold-4a" transform="translate(185.109375 0)"/>
     <use xlink:href="#DejaVuSans-Bold-20" transform="translate(256.6875 0)"/>
     <use xlink:href="#DejaVuSans-Bold-17" transform="translate(340.484375 0)"/>
     <use xlink:href="#DejaVuSans-Bold-c" transform="translate(410.0625 0)"/>
    </g>
   </g>
   <g id="text_2">
    <g id="patch_3">
     <path d="M 410.81287 163.180998 
L 489.616308 163.180998 
Q 492.316308 163.180998 492.316308 160.480998 
L 492.316308 138.876076 
Q 492.316308 136.176076 489.616308 136.176076 
L 410.81287 136.176076 
Q 408.11287 136.176076 408.11287 138.876076 
L 408.11287 160.480998 
Q 408.11287 163.180998 410.81287 163.180998 
z
" style="fill: #ffffff; opacity: 0.85"/>
    </g>
    <!-- Trading Volume -->
    <g style="fill: #212121" transform="translate(410.81287 146.615548) scale(0.09 -0.09)">
     <defs>
      <path id="DejaVuSans-Bold-55" d="M 3138 2547 
Q 2991 2616 2845 2648 
Q 2700 2681 2553 2681 
Q 2122 2681 1889 2404 
Q 1656 2128 1656 1613 
L 1656 0 
L 538 0 
L 538 3500 
L 1656 3500 
L 1656 2925 
Q 1872 3269 2151 3426 
Q 2431 3584 2822 3584 
Q 2878 3584 2943 3579 
Q 3009 3575 3134 3559 
L 3138 2547 
z
" transform="scale(0.015625)"/>
      <path id="DejaVuSans-Bold-44" d="M 2106 1575 
Q 1756 1575 1579 1456 
Q 1403 1338 1403 1106 
Q 1403 894 1545 773 
Q 1688 653 1941 653 
Q 2256 653 2472 879 
Q 2688 1106 2688 1447 
L 2688 1575 
L 2106 1575 
z
M 3816 1997 
L 3816 0 
L 2688 0 
L 2688 519 
Q 2463 200 2181 54 
Q 1900 -91 1497 -91 
Q 953 -91 614 226 
Q 275 544 275 1050 
Q 275 1666 698 1953 
Q 1122 2241 2028 2241 
L 2688 2241 
L 2688 2328 
Q 2688 2594 2478 2717 
Q 2269 2841 1825 2841 
Q 1466 2841 1156 2769 
Q 847 2697 581 2553 
L 581 3406 
Q 941 3494 1303 3539 
Q 1666 3584 2028 3584 
Q 2975 3584 3395 3211 
Q 3816 2838 3816 1997 
z
" transform="scale(0.015625)"/>
      <path id="DejaVuSans-Bold-4c" d="M 538 3500 
L 1656 3500 
L 1656 0 
L 538 0 
L 538 3500 
z
M 538 4863 
L 1656 4863 
L 1656 3950 
L 538 3950 
L 538 4863 
z
" transform="scale(0.015625)"/>
      <path id="DejaVuSans-Bold-51" d="M 4056 2131 
L 4056 0 
L 2931 0 
L 2931 347 
L 2931 1631 
Q 2931 2084 2911 2256 
Q 2891 2428 2841 2509 
Q 2775 2619 2662 2680 
Q 2550 2741 2406 2741 
Q 2056 2741 1856 2470 
Q 1656 2200 1656 1722 
L 1656 0 
L 538 0 
L 538 3500 
L 1656 3500 
L 1656 2988 
Q 1909 3294 2193 3439 
Q 2478 3584 2822 3584 
Q 3428 3584 3742 3212 
Q 4056 2841 4056 2131 
z
" transform="scale(0.015625)"/>
      <path id="DejaVuSans-Bold-39" d="M 31 4666 
L 1241 4666 
L 2478 1222 
L 3713 4666 
L 4922 4666 
L 3194 0 
L 1759 0 
L 31 4666 
z
" transform="scale(0.015625)"/>
      <path id="DejaVuSans-Bold-58" d="M 500 1363 
L 500 3500 
L 1625 3500 
L 1625 3150 
Q 1625 2866 1622 2436 
Q 1619 2006 1619 1863 
Q 1619 1441 1641 1255 
Q 1663 1069 1716 984 
Q 1784 875 1895 815 
Q 2006 756 2150 756 
Q 2500 756 2700 1025 
Q 2900 1294 2900 1772 
L 2900 3500 
L 4019 3500 
L 4019 0 
L 2900 0 
L 2900 506 
Q 2647 200 2364 54 
Q 2081 -91 1741 -91 
Q 1134 -91 817 281 
Q 500 653 500 1363 
z
" transform="scale(0.015625)"/>
      <path id="DejaVuSans-Bold-50" d="M 3781 2919 
Q 3994 3244 4286 3414 
Q 4578 3584 4928 3584 
Q 5531 3584 5847 3212 
Q 6163 2841 6163 2131 
L 6163 0 
L 5038 0 
L 5038 1825 
Q 5041 1866 5042 1909 
Q 5044 1953 5044 2034 
Q 5044 2406 4934 2573 
Q 4825 2741 4581 2741 
Q 4263 2741 4089 2478 
Q 3916 2216 3909 1719 
L 3909 0 
L 2784 0 
L 2784 1825 
Q 2784 2406 2684 2573 
Q 2584 2741 2328 2741 
Q 2006 2741 1831 2477 
Q 1656 2213 1656 1722 
L 1656 0 
L 531 0 
L 531 3500 
L 1656 3500 
L 1656 2988 
Q 1863 3284 2130 3434 
Q 2397 3584 2719 3584 
Q 3081 3584 3359 3409 
Q 3638 3234 3781 2919 
z
" transform="scale(0.015625)"/>
     </defs>
     <use xlink:href="#DejaVuSans-Bold-37"/>
     <use xlink:href="#DejaVuSans-Bold-55" transform="translate(57.234375 0)"/>
     <use xlink:href="#DejaVuSans-Bold-44" transform="translate(106.546875 0)"/>
     <use xlink:href="#DejaVuSans-Bold-47" transform="translate(174.03125 0)"/>
     <use xlink:href="#DejaVuSans-Bold-4c" transform="translate(245.609375 0)"/>
     <use xlink:href="#DejaVuSans-Bold-51" transform="translate(279.890625 0)"/>
     <use xlink:href="#DejaVuSans-Bold-4a" transform="translate(351.078125 0)"/>
     <use xlink:href="#DejaVuSans-Bold-3" transform="translate(422.65625 0)"/>
     <use xlink:href="#DejaVuSans-Bold-39" transform="translate(457.46875 0)"/>
     <use xlink:href="#DejaVuSans-Bold-52" transform="translate(529.390625 0)"/>
     <use xlink:href="#DejaVuSans-Bold-4f" transform="translate(598.09375 0)"/>
     <use xlink:href="#DejaVuSans-Bold-58" transform="translate(632.375 0)"/>
     <use xlink:href="#DejaVuSans-Bold-50" transform="translate(703.5625 0)"/>
     <use xlink:href="#DejaVuSans-Bold-48" transform="translate(807.765625 0)"/>
    </g>
    <!-- (deg=2) -->
    <g style="fill: #212121" transform="translate(429.705136 157.418009) scale(0.09 -0.09)">
     <defs>
      <path id="DejaVuSans-Bold-15" d="M 1844 884 
L 3897 884 
L 3897 0 
L 506 0 
L 506 884 
L 2209 2388 
Q 2438 2594 2547 2791 
Q 2656 2988 2656 3200 
Q 2656 3528 2436 3728 
Q 2216 3928 1850 3928 
Q 1569 3928 1234 3808 
Q 900 3688 519 3450 
L 519 4475 
Q 925 4609 1322 4679 
Q 1719 4750 2100 4750 
Q 2938 4750 3402 4381 
Q 3866 4013 3866 3353 
Q 3866 2972 3669 2642 
Q 3472 2313 2841 1759 
L 1844 884 
z
" transform="scale(0.015625)"/>
     </defs>
     <use xlink:href="#DejaVuSans-Bold-b"/>
     <use xlink:href="#DejaVuSans-Bold-47" transform="translate(45.703125 0)"/>
     <use xlink:href="#DejaVuSans-Bold-48" transform="translate(117.28125 0)"/>
     <use xlink:href="#DejaVuSans-Bold-4a" transform="translate(185.109375 0)"/>
     <use xlink:href="#DejaVuSans-Bold-20" transform="translate(256.6875 0)"/>
     <use xlink:href="#DejaVuSans-Bold-15" transform="translate(340.484375 0)"/>
     <use xlink:href="#DejaVuSans-Bold-c" transform="translate(410.0625 0)"/>
    </g>
   </g>
   <g id="text_3">
    <g id="patch_4">
     <path d="M 104.191367 267.777872 
L 154.200429 267.777872 
Q 156.900429 267.777872 156.900429 265.077872 
L 156.900429 243.47295 
Q 156.900429 240.77295 154.200429 240.77295 
L 104.191367 240.77295 
Q 101.491367 240.77295 101.491367 243.47295 
L 101.491367 265.077872 
Q 101.491367 267.777872 104.191367 267.777872 
z
" style="fill: #ffffff; opacity: 0.85"/>
    </g>
    <!-- SET Index -->
    <g style="fill: #212121" transform="translate(104.191367 251.212422) scale(0.09 -0.09)">
     <defs>
      <path id="DejaVuSans-Bold-36" d="M 3834 4519 
L 3834 3531 
Q 3450 3703 3084 3790 
Q 2719 3878 2394 3878 
Q 1963 3878 1756 3759 
Q 1550 3641 1550 3391 
Q 1550 3203 1689 3098 
Q 1828 2994 2194 2919 
L 2706 2816 
Q 3484 2659 3812 2340 
Q 4141 2022 4141 1434 
Q 4141 663 3683 286 
Q 3225 -91 2284 -91 
Q 1841 -91 1394 -6 
Q 947 78 500 244 
L 500 1259 
Q 947 1022 1364 901 
Q 1781 781 2169 781 
Q 2563 781 2772 912 
Q 2981 1044 2981 1288 
Q 2981 1506 2839 1625 
Q 2697 1744 2272 1838 
L 1806 1941 
Q 1106 2091 782 2419 
Q 459 2747 459 3303 
Q 459 4000 909 4375 
Q 1359 4750 2203 4750 
Q 2588 4750 2994 4692 
Q 3400 4634 3834 4519 
z
" transform="scale(0.015625)"/>
      <path id="DejaVuSans-Bold-28" d="M 588 4666 
L 3834 4666 
L 3834 3756 
L 1791 3756 
L 1791 2888 
L 3713 2888 
L 3713 1978 
L 1791 1978 
L 1791 909 
L 3903 909 
L 3903 0 
L 588 0 
L 588 4666 
z
" transform="scale(0.015625)"/>
      <path id="DejaVuSans-Bold-2c" d="M 588 4666 
L 1791 4666 
L 1791 0 
L 588 0 
L 588 4666 
z
" transform="scale(0.015625)"/>
      <path id="DejaVuSans-Bold-5b" d="M 1422 1791 
L 159 3500 
L 1344 3500 
L 2059 2463 
L 2784 3500 
L 3969 3500 
L 2706 1797 
L 4031 0 
L 2847 0 
L 2059 1106 
L 1281 0 
L 97 0 
L 1422 1791 
z
" transform="scale(0.015625)"/>
     </defs>
     <use xlink:href="#DejaVuSans-Bold-36"/>
     <use xlink:href="#DejaVuSans-Bold-28" transform="translate(72.015625 0)"/>
     <use xlink:href="#DejaVuSans-Bold-37" transform="translate(140.328125 0)"/>
     <use xlink:href="#DejaVuSans-Bold-3" transform="translate(208.546875 0)"/>
     <use xlink:href="#DejaVuSans-Bold-2c" transform="translate(243.359375 0)"/>
     <use xlink:href="#DejaVuSans-Bold-51" transform="translate(280.5625 0)"/>
     <use xlink:href="#DejaVuSans-Bold-47" transform="translate(351.75 0)"/>
     <use xlink:href="#DejaVuSans-Bold-48" transform="translate(423.328125 0)"/>
     <use xlink:href="#DejaVuSans-Bold-5b" transform="translate(491.15625 0)"/>
    </g>
    <!-- (deg=6) -->
    <g style="fill: #212121" transform="translate(108.686445 262.014883) scale(0.09 -0.09)">
     <defs>
      <path id="DejaVuSans-Bold-19" d="M 2316 2303 
Q 2000 2303 1842 2098 
Q 1684 1894 1684 1484 
Q 1684 1075 1842 870 
Q 2000 666 2316 666 
Q 2634 666 2792 870 
Q 2950 1075 2950 1484 
Q 2950 1894 2792 2098 
Q 2634 2303 2316 2303 
z
M 3803 4544 
L 3803 3681 
Q 3506 3822 3243 3889 
Q 2981 3956 2731 3956 
Q 2194 3956 1894 3657 
Q 1594 3359 1544 2772 
Q 1750 2925 1990 3001 
Q 2231 3078 2516 3078 
Q 3231 3078 3670 2659 
Q 4109 2241 4109 1563 
Q 4109 813 3618 361 
Q 3128 -91 2303 -91 
Q 1394 -91 895 523 
Q 397 1138 397 2266 
Q 397 3422 980 4083 
Q 1563 4744 2578 4744 
Q 2900 4744 3203 4694 
Q 3506 4644 3803 4544 
z
" transform="scale(0.015625)"/>
     </defs>
     <use xlink:href="#DejaVuSans-Bold-b"/>
     <use xlink:href="#DejaVuSans-Bold-47" transform="translate(45.703125 0)"/>
     <use xlink:href="#DejaVuSans-Bold-48" transform="translate(117.28125 0)"/>
     <use xlink:href="#DejaVuSans-Bold-4a" transform="translate(185.109375 0)"/>
     <use xlink:href="#DejaVuSans-Bold-20" transform="translate(256.6875 0)"/>
     <use xlink:href="#DejaVuSans-Bold-19" transform="translate(340.484375 0)"/>
     <use xlink:href="#DejaVuSans-Bold-c" transform="translate(410.0625 0)"/>
    </g>
   </g>
   <g id="text_4">
    <g id="patch_5">
     <path d="M 37.680801 164.602852 
L 114.838926 164.602852 
Q 117.538926 164.602852 117.538926 161.902852 
L 117.538926 140.29793 
Q 117.538926 137.59793 114.838926 137.59793 
L 37.680801 137.59793 
Q 34.980801 137.59793 34.980801 140.29793 
L 34.980801 161.902852 
Q 34.980801 164.602852 37.680801 164.602852 
z
" style="fill: #ffffff; opacity: 0.85"/>
    </g>
    <!-- Tourist Arrivals -->
    <g style="fill: #212121" transform="translate(37.680801 148.037402) scale(0.09 -0.09)">
     <defs>
      <path id="DejaVuSans-Bold-57" d="M 1759 4494 
L 1759 3500 
L 2913 3500 
L 2913 2700 
L 1759 2700 
L 1759 1216 
Q 1759 972 1856 886 
Q 1953 800 2241 800 
L 2816 800 
L 2816 0 
L 1856 0 
Q 1194 0 917 276 
Q 641 553 641 1216 
L 641 2700 
L 84 2700 
L 84 3500 
L 641 3500 
L 641 4494 
L 1759 4494 
z
" transform="scale(0.015625)"/>
      <path id="DejaVuSans-Bold-59" d="M 97 3500 
L 1216 3500 
L 2088 1081 
L 2956 3500 
L 4078 3500 
L 2700 0 
L 1472 0 
L 97 3500 
z
" transform="scale(0.015625)"/>
     </defs>
     <use xlink:href="#DejaVuSans-Bold-37"/>
     <use xlink:href="#DejaVuSans-Bold-52" transform="translate(54.9375 0)"/>
     <use xlink:href="#DejaVuSans-Bold-58" transform="translate(123.640625 0)"/>
     <use xlink:href="#DejaVuSans-Bold-55" transform="translate(194.828125 0)"/>
     <use xlink:href="#DejaVuSans-Bold-4c" transform="translate(244.140625 0)"/>
     <use xlink:href="#DejaVuSans-Bold-56" transform="translate(278.421875 0)"/>
     <use xlink:href="#DejaVuSans-Bold-57" transform="translate(337.9375 0)"/>
     <use xlink:href="#DejaVuSans-Bold-3" transform="translate(385.734375 0)"/>
     <use xlink:href="#DejaVuSans-Bold-24" transform="translate(420.546875 0)"/>
     <use xlink:href="#DejaVuSans-Bold-55" transform="translate(497.9375 0)"/>
     <use xlink:href="#DejaVuSans-Bold-55" transform="translate(547.25 0)"/>
     <use xlink:href="#DejaVuSans-Bold-4c" transform="translate(596.5625 0)"/>
     <use xlink:href="#DejaVuSans-Bold-59" transform="translate(630.84375 0)"/>
     <use xlink:href="#DejaVuSans-Bold-44" transform="translate(696.03125 0)"/>
     <use xlink:href="#DejaVuSans-Bold-4f" transform="translate(763.515625 0)"/>
     <use xlink:href="#DejaVuSans-Bold-56" transform="translate(797.796875 0)"/>
    </g>
    <!-- (deg=3) -->
    <g style="fill: #212121" transform="translate(55.75041 158.839863) scale(0.09 -0.09)">
     <defs>
      <path id="DejaVuSans-Bold-16" d="M 2981 2516 
Q 3453 2394 3698 2092 
Q 3944 1791 3944 1325 
Q 3944 631 3412 270 
Q 2881 -91 1863 -91 
Q 1503 -91 1142 -33 
Q 781 25 428 141 
L 428 1069 
Q 766 900 1098 814 
Q 1431 728 1753 728 
Q 2231 728 2486 893 
Q 2741 1059 2741 1369 
Q 2741 1688 2480 1852 
Q 2219 2016 1709 2016 
L 1228 2016 
L 1228 2791 
L 1734 2791 
Q 2188 2791 2409 2933 
Q 2631 3075 2631 3366 
Q 2631 3634 2415 3781 
Q 2200 3928 1806 3928 
Q 1516 3928 1219 3862 
Q 922 3797 628 3669 
L 628 4550 
Q 984 4650 1334 4700 
Q 1684 4750 2022 4750 
Q 2931 4750 3382 4451 
Q 3834 4153 3834 3553 
Q 3834 3144 3618 2883 
Q 3403 2622 2981 2516 
z
" transform="scale(0.015625)"/>
     </defs>
     <use xlink:href="#DejaVuSans-Bold-b"/>
     <use xlink:href="#DejaVuSans-Bold-47" transform="translate(45.703125 0)"/>
     <use xlink:href="#DejaVuSans-Bold-48" transform="translate(117.28125 0)"/>
     <use xlink:href="#DejaVuSans-Bold-4a" transform="translate(185.109375 0)"/>
     <use xlink:href="#DejaVuSans-Bold-20" transform="translate(256.6875 0)"/>
     <use xlink:href="#DejaVuSans-Bold-16" transform="translate(340.484375 0)"/>
     <use xlink:href="#DejaVuSans-Bold-c" transform="translate(410.0625 0)"/>
    </g>
   </g>
   <g id="text_5">
    <g id="patch_6">
     <path d="M 261.04285 164.140836 
L 306.123006 164.140836 
Q 308.823006 164.140836 308.823006 161.440836 
L 308.823006 139.836617 
Q 308.823006 137.136617 306.123006 137.136617 
L 261.04285 137.136617 
Q 258.34285 137.136617 258.34285 139.836617 
L 258.34285 161.440836 
Q 258.34285 164.140836 261.04285 164.140836 
z
" style="fill: #ffffff; opacity: 0.85"/>
    </g>
    <!-- USD/THB -->
    <g style="fill: #212121" transform="translate(261.04285 147.575387) scale(0.09 -0.09)">
     <defs>
      <path id="DejaVuSans-Bold-38" d="M 588 4666 
L 1791 4666 
L 1791 1869 
Q 1791 1291 1980 1042 
Q 2169 794 2597 794 
Q 3028 794 3217 1042 
Q 3406 1291 3406 1869 
L 3406 4666 
L 4609 4666 
L 4609 1869 
Q 4609 878 4112 393 
Q 3616 -91 2597 -91 
Q 1581 -91 1084 393 
Q 588 878 588 1869 
L 588 4666 
z
" transform="scale(0.015625)"/>
      <path id="DejaVuSans-Bold-27" d="M 1791 3756 
L 1791 909 
L 2222 909 
Q 2959 909 3348 1275 
Q 3738 1641 3738 2338 
Q 3738 3031 3350 3393 
Q 2963 3756 2222 3756 
L 1791 3756 
z
M 588 4666 
L 1856 4666 
Q 2919 4666 3439 4514 
Q 3959 4363 4331 4000 
Q 4659 3684 4818 3271 
Q 4978 2859 4978 2338 
Q 4978 1809 4818 1395 
Q 4659 981 4331 666 
Q 3956 303 3431 151 
Q 2906 0 1856 0 
L 588 0 
L 588 4666 
z
" transform="scale(0.015625)"/>
      <path id="DejaVuSans-Bold-12" d="M 1644 4666 
L 2338 4666 
L 691 -594 
L 0 -594 
L 1644 4666 
z
" transform="scale(0.015625)"/>
      <path id="DejaVuSans-Bold-2b" d="M 588 4666 
L 1791 4666 
L 1791 2888 
L 3566 2888 
L 3566 4666 
L 4769 4666 
L 4769 0 
L 3566 0 
L 3566 1978 
L 1791 1978 
L 1791 0 
L 588 0 
L 588 4666 
z
" transform="scale(0.015625)"/>
      <path id="DejaVuSans-Bold-25" d="M 2456 2859 
Q 2741 2859 2887 2984 
Q 3034 3109 3034 3353 
Q 3034 3594 2887 3720 
Q 2741 3847 2456 3847 
L 1791 3847 
L 1791 2859 
L 2456 2859 
z
M 2497 819 
Q 2859 819 3042 972 
Q 3225 1125 3225 1434 
Q 3225 1738 3044 1889 
Q 2863 2041 2497 2041 
L 1791 2041 
L 1791 819 
L 2497 819 
z
M 3616 2497 
Q 4003 2384 4215 2081 
Q 4428 1778 4428 1338 
Q 4428 663 3972 331 
Q 3516 0 2584 0 
L 588 0 
L 588 4666 
L 2394 4666 
Q 3366 4666 3802 4372 
Q 4238 4078 4238 3431 
Q 4238 3091 4078 2852 
Q 3919 2613 3616 2497 
z
" transform="scale(0.015625)"/>
     </defs>
     <use xlink:href="#DejaVuSans-Bold-38"/>
     <use xlink:href="#DejaVuSans-Bold-36" transform="translate(81.203125 0)"/>
     <use xlink:href="#DejaVuSans-Bold-27" transform="translate(153.21875 0)"/>
     <use xlink:href="#DejaVuSans-Bold-12" transform="translate(236.234375 0)"/>
     <use xlink:href="#DejaVuSans-Bold-37" transform="translate(272.765625 0)"/>
     <use xlink:href="#DejaVuSans-Bold-2b" transform="translate(340.984375 0)"/>
     <use xlink:href="#DejaVuSans-Bold-25" transform="translate(424.671875 0)"/>
    </g>
    <!-- (deg=4) -->
    <g style="fill: #212121" transform="translate(263.073475 158.377848) scale(0.09 -0.09)">
     <use xlink:href="#DejaVuSans-Bold-b"/>
     <use xlink:href="#DejaVuSans-Bold-47" transform="translate(45.703125 0)"/>
     <use xlink:href="#DejaVuSans-Bold-48" transform="translate(117.28125 0)"/>
     <use xlink:href="#DejaVuSans-Bold-4a" transform="translate(185.109375 0)"/>
     <use xlink:href="#DejaVuSans-Bold-20" transform="translate(256.6875 0)"/>
     <use xlink:href="#DejaVuSans-Bold-17" transform="translate(340.484375 0)"/>
     <use xlink:href="#DejaVuSans-Bold-c" transform="translate(410.0625 0)"/>
    </g>
   </g>
   <g id="text_6">
    <g id="patch_7">
     <path d="M 19.451419 49.398686 
L 76.1472 49.398686 
Q 78.8472 49.398686 78.8472 46.698686 
L 78.8472 25.093764 
Q 78.8472 22.393764 76.1472 22.393764 
L 19.451419 22.393764 
Q 16.751419 22.393764 16.751419 25.093764 
L 16.751419 46.698686 
Q 16.751419 49.398686 19.451419 49.398686 
z
" style="fill: #ffffff; opacity: 0.85"/>
    </g>
    <!-- Policy Rate -->
    <g style="fill: #212121" transform="translate(19.451419 32.833237) scale(0.09 -0.09)">
     <defs>
      <path id="DejaVuSans-Bold-33" d="M 588 4666 
L 2584 4666 
Q 3475 4666 3951 4270 
Q 4428 3875 4428 3144 
Q 4428 2409 3951 2014 
Q 3475 1619 2584 1619 
L 1791 1619 
L 1791 0 
L 588 0 
L 588 4666 
z
M 1791 3794 
L 1791 2491 
L 2456 2491 
Q 2806 2491 2997 2661 
Q 3188 2831 3188 3144 
Q 3188 3456 2997 3625 
Q 2806 3794 2456 3794 
L 1791 3794 
z
" transform="scale(0.015625)"/>
      <path id="DejaVuSans-Bold-46" d="M 3366 3391 
L 3366 2478 
Q 3138 2634 2908 2709 
Q 2678 2784 2431 2784 
Q 1963 2784 1702 2511 
Q 1441 2238 1441 1747 
Q 1441 1256 1702 982 
Q 1963 709 2431 709 
Q 2694 709 2930 787 
Q 3166 866 3366 1019 
L 3366 103 
Q 3103 6 2833 -42 
Q 2563 -91 2291 -91 
Q 1344 -91 809 395 
Q 275 881 275 1747 
Q 275 2613 809 3098 
Q 1344 3584 2291 3584 
Q 2566 3584 2833 3536 
Q 3100 3488 3366 3391 
z
" transform="scale(0.015625)"/>
      <path id="DejaVuSans-Bold-5c" d="M 78 3500 
L 1197 3500 
L 2138 1125 
L 2938 3500 
L 4056 3500 
L 2584 -331 
Q 2363 -916 2067 -1148 
Q 1772 -1381 1288 -1381 
L 641 -1381 
L 641 -647 
L 991 -647 
Q 1275 -647 1404 -556 
Q 1534 -466 1606 -231 
L 1638 -134 
L 78 3500 
z
" transform="scale(0.015625)"/>
      <path id="DejaVuSans-Bold-35" d="M 2297 2597 
Q 2675 2597 2839 2737 
Q 3003 2878 3003 3200 
Q 3003 3519 2839 3656 
Q 2675 3794 2297 3794 
L 1791 3794 
L 1791 2597 
L 2297 2597 
z
M 1791 1766 
L 1791 0 
L 588 0 
L 588 4666 
L 2425 4666 
Q 3347 4666 3776 4356 
Q 4206 4047 4206 3378 
Q 4206 2916 3982 2619 
Q 3759 2322 3309 2181 
Q 3556 2125 3751 1926 
Q 3947 1728 4147 1325 
L 4800 0 
L 3519 0 
L 2950 1159 
Q 2778 1509 2601 1637 
Q 2425 1766 2131 1766 
L 1791 1766 
z
" transform="scale(0.015625)"/>
     </defs>
     <use xlink:href="#DejaVuSans-Bold-33"/>
     <use xlink:href="#DejaVuSans-Bold-52" transform="translate(73.296875 0)"/>
     <use xlink:href="#DejaVuSans-Bold-4f" transform="translate(142 0)"/>
     <use xlink:href="#DejaVuSans-Bold-4c" transform="translate(176.28125 0)"/>
     <use xlink:href="#DejaVuSans-Bold-46" transform="translate(210.5625 0)"/>
     <use xlink:href="#DejaVuSans-Bold-5c" transform="translate(269.84375 0)"/>
     <use xlink:href="#DejaVuSans-Bold-3" transform="translate(335.03125 0)"/>
     <use xlink:href="#DejaVuSans-Bold-35" transform="translate(369.84375 0)"/>
     <use xlink:href="#DejaVuSans-Bold-44" transform="translate(446.84375 0)"/>
     <use xlink:href="#DejaVuSans-Bold-57" transform="translate(514.328125 0)"/>
     <use xlink:href="#DejaVuSans-Bold-48" transform="translate(562.125 0)"/>
    </g>
    <!-- (deg=1) -->
    <g style="fill: #212121" transform="translate(27.289856 43.635698) scale(0.09 -0.09)">
     <defs>
      <path id="DejaVuSans-Bold-14" d="M 750 831 
L 1813 831 
L 1813 3847 
L 722 3622 
L 722 4441 
L 1806 4666 
L 2950 4666 
L 2950 831 
L 4013 831 
L 4013 0 
L 750 0 
L 750 831 
z
" transform="scale(0.015625)"/>
     </defs>
     <use xlink:href="#DejaVuSans-Bold-b"/>
     <use xlink:href="#DejaVuSans-Bold-47" transform="translate(45.703125 0)"/>
     <use xlink:href="#DejaVuSans-Bold-48" transform="translate(117.28125 0)"/>
     <use xlink:href="#DejaVuSans-Bold-4a" transform="translate(185.109375 0)"/>
     <use xlink:href="#DejaVuSans-Bold-20" transform="translate(256.6875 0)"/>
     <use xlink:href="#DejaVuSans-Bold-14" transform="translate(340.484375 0)"/>
     <use xlink:href="#DejaVuSans-Bold-c" transform="translate(410.0625 0)"/>
    </g>
   </g>
   <g id="text_7">
    <g id="patch_8">
     <path d="M 257.308679 366.182085 
L 299.785867 366.182085 
Q 302.485867 366.182085 302.485867 363.482085 
L 302.485867 341.877163 
Q 302.485867 339.177163 299.785867 339.177163 
L 257.308679 339.177163 
Q 254.608679 339.177163 254.608679 341.877163 
L 254.608679 363.482085 
Q 254.608679 366.182085 257.308679 366.182085 
z
" style="fill: #ffffff; opacity: 0.85"/>
    </g>
    <!-- Inflation -->
    <g style="fill: #212121" transform="translate(257.308679 349.616635) scale(0.09 -0.09)">
     <defs>
      <path id="DejaVuSans-Bold-13ac" d="M 1984 4863 
L 4206 4863 
L 4206 0 
L 3078 0 
L 3078 4128 
L 2222 4128 
Q 1984 4128 1890 4042 
Q 1797 3956 1797 3744 
L 1797 3500 
L 2675 3500 
L 2675 2700 
L 1797 2700 
L 1797 0 
L 678 0 
L 678 2700 
L 122 2700 
L 122 3500 
L 678 3500 
L 678 3744 
Q 678 4316 997 4589 
Q 1316 4863 1984 4863 
z
" transform="scale(0.015625)"/>
     </defs>
     <use xlink:href="#DejaVuSans-Bold-2c"/>
     <use xlink:href="#DejaVuSans-Bold-51" transform="translate(37.203125 0)"/>
     <use xlink:href="#DejaVuSans-Bold-13ac" transform="translate(108.390625 0)"/>
     <use xlink:href="#DejaVuSans-Bold-44" transform="translate(182.515625 0)"/>
     <use xlink:href="#DejaVuSans-Bold-57" transform="translate(250 0)"/>
     <use xlink:href="#DejaVuSans-Bold-4c" transform="translate(297.796875 0)"/>
     <use xlink:href="#DejaVuSans-Bold-52" transform="translate(332.078125 0)"/>
     <use xlink:href="#DejaVuSans-Bold-51" transform="translate(400.78125 0)"/>
    </g>
    <!-- (deg=3) -->
    <g style="fill: #212121" transform="translate(258.03782 360.419096) scale(0.09 -0.09)">
     <use xlink:href="#DejaVuSans-Bold-b"/>
     <use xlink:href="#DejaVuSans-Bold-47" transform="translate(45.703125 0)"/>
     <use xlink:href="#DejaVuSans-Bold-48" transform="translate(117.28125 0)"/>
     <use xlink:href="#DejaVuSans-Bold-4a" transform="translate(185.109375 0)"/>
     <use xlink:href="#DejaVuSans-Bold-20" transform="translate(256.6875 0)"/>
     <use xlink:href="#DejaVuSans-Bold-16" transform="translate(340.484375 0)"/>
     <use xlink:href="#DejaVuSans-Bold-c" transform="translate(410.0625 0)"/>
    </g>
   </g>
   <g id="text_8">
    <g id="patch_9">
     <path d="M 153.3839 390.638033 
L 194.402806 390.638033 
Q 197.102806 390.638033 197.102806 387.938033 
L 197.102806 366.333814 
Q 197.102806 363.633814 194.402806 363.633814 
L 153.3839 363.633814 
Q 150.6839 363.633814 150.6839 366.333814 
L 150.6839 387.938033 
Q 150.6839 390.638033 153.3839 390.638033 
z
" style="fill: #ffffff; opacity: 0.85"/>
    </g>
    <!-- GDP -->
    <g style="fill: #212121" transform="translate(163.165775 374.072583) scale(0.09 -0.09)">
     <defs>
      <path id="DejaVuSans-Bold-2a" d="M 4781 347 
Q 4331 128 3847 18 
Q 3363 -91 2847 -91 
Q 1681 -91 1000 561 
Q 319 1213 319 2328 
Q 319 3456 1012 4103 
Q 1706 4750 2913 4750 
Q 3378 4750 3804 4662 
Q 4231 4575 4609 4403 
L 4609 3438 
Q 4219 3659 3833 3768 
Q 3447 3878 3059 3878 
Q 2341 3878 1952 3476 
Q 1563 3075 1563 2328 
Q 1563 1588 1938 1184 
Q 2313 781 3003 781 
Q 3191 781 3352 804 
Q 3513 828 3641 878 
L 3641 1784 
L 2906 1784 
L 2906 2591 
L 4781 2591 
L 4781 347 
z
" transform="scale(0.015625)"/>
     </defs>
     <use xlink:href="#DejaVuSans-Bold-2a"/>
     <use xlink:href="#DejaVuSans-Bold-27" transform="translate(82.078125 0)"/>
     <use xlink:href="#DejaVuSans-Bold-33" transform="translate(165.09375 0)"/>
    </g>
    <!-- (deg=3) -->
    <g style="fill: #212121" transform="translate(153.3839 384.875044) scale(0.09 -0.09)">
     <use xlink:href="#DejaVuSans-Bold-b"/>
     <use xlink:href="#DejaVuSans-Bold-47" transform="translate(45.703125 0)"/>
     <use xlink:href="#DejaVuSans-Bold-48" transform="translate(117.28125 0)"/>
     <use xlink:href="#DejaVuSans-Bold-4a" transform="translate(185.109375 0)"/>
     <use xlink:href="#DejaVuSans-Bold-20" transform="translate(256.6875 0)"/>
     <use xlink:href="#DejaVuSans-Bold-16" transform="translate(340.484375 0)"/>
     <use xlink:href="#DejaVuSans-Bold-c" transform="translate(410.0625 0)"/>
    </g>
   </g>
   <g id="text_9">
    <!-- Social Network Graph of AOT Influencing Factors -->
    <g transform="translate(56.56273 25.636719) scale(0.14 -0.14)">
     <defs>
      <path id="DejaVuSans-Bold-31" d="M 588 4666 
L 1931 4666 
L 3628 1466 
L 3628 4666 
L 4769 4666 
L 4769 0 
L 3425 0 
L 1728 3200 
L 1728 0 
L 588 0 
L 588 4666 
z
" transform="scale(0.015625)"/>
      <path id="DejaVuSans-Bold-5a" d="M 225 3500 
L 1313 3500 
L 1900 1088 
L 2491 3500 
L 3425 3500 
L 4013 1113 
L 4603 3500 
L 5691 3500 
L 4769 0 
L 3547 0 
L 2956 2406 
L 2369 0 
L 1147 0 
L 225 3500 
z
" transform="scale(0.015625)"/>
      <path id="DejaVuSans-Bold-4e" d="M 538 4863 
L 1656 4863 
L 1656 2216 
L 2944 3500 
L 4244 3500 
L 2534 1894 
L 4378 0 
L 3022 0 
L 1656 1459 
L 1656 0 
L 538 0 
L 538 4863 
z
" transform="scale(0.015625)"/>
      <path id="DejaVuSans-Bold-53" d="M 1656 506 
L 1656 -1331 
L 538 -1331 
L 538 3500 
L 1656 3500 
L 1656 2988 
Q 1888 3294 2169 3439 
Q 2450 3584 2816 3584 
Q 3463 3584 3878 3070 
Q 4294 2556 4294 1747 
Q 4294 938 3878 423 
Q 3463 -91 2816 -91 
Q 2450 -91 2169 54 
Q 1888 200 1656 506 
z
M 2400 2772 
Q 2041 2772 1848 2508 
Q 1656 2244 1656 1747 
Q 1656 1250 1848 986 
Q 2041 722 2400 722 
Q 2759 722 2948 984 
Q 3138 1247 3138 1747 
Q 3138 2247 2948 2509 
Q 2759 2772 2400 2772 
z
" transform="scale(0.015625)"/>
      <path id="DejaVuSans-Bold-4b" d="M 4056 2131 
L 4056 0 
L 2931 0 
L 2931 347 
L 2931 1625 
Q 2931 2084 2911 2256 
Q 2891 2428 2841 2509 
Q 2775 2619 2662 2680 
Q 2550 2741 2406 2741 
Q 2056 2741 1856 2470 
Q 1656 2200 1656 1722 
L 1656 0 
L 538 0 
L 538 4863 
L 1656 4863 
L 1656 2988 
Q 1909 3294 2193 3439 
Q 2478 3584 2822 3584 
Q 3428 3584 3742 3212 
Q 4056 2841 4056 2131 
z
" transform="scale(0.015625)"/>
      <path id="DejaVuSans-Bold-49" d="M 2841 4863 
L 2841 4128 
L 2222 4128 
Q 1984 4128 1890 4042 
Q 1797 3956 1797 3744 
L 1797 3500 
L 2753 3500 
L 2753 2700 
L 1797 2700 
L 1797 0 
L 678 0 
L 678 2700 
L 122 2700 
L 122 3500 
L 678 3500 
L 678 3744 
Q 678 4316 997 4589 
Q 1316 4863 1984 4863 
L 2841 4863 
z
" transform="scale(0.015625)"/>
      <path id="DejaVuSans-Bold-29" d="M 588 4666 
L 3834 4666 
L 3834 3756 
L 1791 3756 
L 1791 2888 
L 3713 2888 
L 3713 1978 
L 1791 1978 
L 1791 0 
L 588 0 
L 588 4666 
z
" transform="scale(0.015625)"/>
     </defs>
     <use xlink:href="#DejaVuSans-Bold-36"/>
     <use xlink:href="#DejaVuSans-Bold-52" transform="translate(72.015625 0)"/>
     <use xlink:href="#DejaVuSans-Bold-46" transform="translate(140.71875 0)"/>
     <use xlink:href="#DejaVuSans-Bold-4c" transform="translate(200 0)"/>
     <use xlink:href="#DejaVuSans-Bold-44" transform="translate(234.28125 0)"/>
     <use xlink:href="#DejaVuSans-Bold-4f" transform="translate(301.765625 0)"/>
     <use xlink:href="#DejaVuSans-Bold-3" transform="translate(336.046875 0)"/>
     <use xlink:href="#DejaVuSans-Bold-31" transform="translate(370.859375 0)"/>
     <use xlink:href="#DejaVuSans-Bold-48" transform="translate(454.546875 0)"/>
     <use xlink:href="#DejaVuSans-Bold-57" transform="translate(522.375 0)"/>
     <use xlink:href="#DejaVuSans-Bold-5a" transform="translate(570.171875 0)"/>
     <use xlink:href="#DejaVuSans-Bold-52" transform="translate(662.5625 0)"/>
     <use xlink:href="#DejaVuSans-Bold-55" transform="translate(731.265625 0)"/>
     <use xlink:href="#DejaVuSans-Bold-4e" transform="translate(780.578125 0)"/>
     <use xlink:href="#DejaVuSans-Bold-3" transform="translate(847.078125 0)"/>
     <use xlink:href="#DejaVuSans-Bold-2a" transform="translate(881.890625 0)"/>
     <use xlink:href="#DejaVuSans-Bold-55" transform="translate(963.96875 0)"/>
     <use xlink:href="#DejaVuSans-Bold-44" transform="translate(1013.28125 0)"/>
     <use xlink:href="#DejaVuSans-Bold-53" transform="translate(1080.765625 0)"/>
     <use xlink:href="#DejaVuSans-Bold-4b" transform="translate(1152.34375 0)"/>
     <use xlink:href="#DejaVuSans-Bold-3" transform="translate(1223.53125 0)"/>
     <use xlink:href="#DejaVuSans-Bold-52" transform="translate(1258.34375 0)"/>
     <use xlink:href="#DejaVuSans-Bold-49" transform="translate(1327.046875 0)"/>
     <use xlink:href="#DejaVuSans-Bold-3" transform="translate(1370.546875 0)"/>
     <use xlink:href="#DejaVuSans-Bold-24" transform="translate(1405.359375 0)"/>
     <use xlink:href="#DejaVuSans-Bold-32" transform="translate(1482.75 0)"/>
     <use xlink:href="#DejaVuSans-Bold-37" transform="translate(1567.765625 0)"/>
     <use xlink:href="#DejaVuSans-Bold-3" transform="translate(1635.984375 0)"/>
     <use xlink:href="#DejaVuSans-Bold-2c" transform="translate(1670.796875 0)"/>
     <use xlink:href="#DejaVuSans-Bold-51" transform="translate(1708 0)"/>
     <use xlink:href="#DejaVuSans-Bold-13ac" transform="translate(1779.1875 0)"/>
     <use xlink:href="#DejaVuSans-Bold-58" transform="translate(1853.3125 0)"/>
     <use xlink:href="#DejaVuSans-Bold-48" transform="translate(1924.5 0)"/>
     <use xlink:href="#DejaVuSans-Bold-51" transform="translate(1992.328125 0)"/>
     <use xlink:href="#DejaVuSans-Bold-46" transform="translate(2063.515625 0)"/>
     <use xlink:href="#DejaVuSans-Bold-4c" transform="translate(2122.796875 0)"/>
     <use xlink:href="#DejaVuSans-Bold-51" transform="translate(2157.078125 0)"/>
     <use xlink:href="#DejaVuSans-Bold-4a" transform="translate(2228.265625 0)"/>
     <use xlink:href="#DejaVuSans-Bold-3" transform="translate(2299.84375 0)"/>
     <use xlink:href="#DejaVuSans-Bold-29" transform="translate(2334.65625 0)"/>
     <use xlink:href="#DejaVuSans-Bold-44" transform="translate(2397.109375 0)"/>
     <use xlink:href="#DejaVuSans-Bold-46" transform="translate(2464.59375 0)"/>
     <use xlink:href="#DejaVuSans-Bold-57" transform="translate(2523.875 0)"/>
     <use xlink:href="#DejaVuSans-Bold-52" transform="translate(2571.671875 0)"/>
     <use xlink:href="#DejaVuSans-Bold-55" transform="translate(2640.375 0)"/>
     <use xlink:href="#DejaVuSans-Bold-56" transform="translate(2689.6875 0)"/>
    </g>
   </g>
   <g id="legend_1">
    <g id="patch_10">
     <path d="M 33.278545 145.041797 
L 141.439795 145.041797 
Q 143.039795 145.041797 143.039795 143.441797 
L 143.039795 47.236719 
Q 143.039795 45.636719 141.439795 45.636719 
L 33.278545 45.636719 
Q 31.678545 45.636719 31.678545 47.236719 
L 31.678545 143.441797 
Q 31.678545 145.041797 33.278545 145.041797 
z
" style="fill: #ffffff; opacity: 0.8; stroke: #cccccc; stroke-linejoin: miter"/>
    </g>
    <g id="text_10">
     <!-- Node Size ∝ Degree -->
     <g transform="translate(42.491358 55.675312) scale(0.09 -0.09)">
      <defs>
       <path id="DejaVuSans-31" d="M 628 4666 
L 1478 4666 
L 3547 763 
L 3547 4666 
L 4159 4666 
L 4159 0 
L 3309 0 
L 1241 3903 
L 1241 0 
L 628 0 
L 628 4666 
z
" transform="scale(0.015625)"/>
       <path id="DejaVuSans-52" d="M 1959 3097 
Q 1497 3097 1228 2736 
Q 959 2375 959 1747 
Q 959 1119 1226 758 
Q 1494 397 1959 397 
Q 2419 397 2687 759 
Q 2956 1122 2956 1747 
Q 2956 2369 2687 2733 
Q 2419 3097 1959 3097 
z
M 1959 3584 
Q 2709 3584 3137 3096 
Q 3566 2609 3566 1747 
Q 3566 888 3137 398 
Q 2709 -91 1959 -91 
Q 1206 -91 779 398 
Q 353 888 353 1747 
Q 353 2609 779 3096 
Q 1206 3584 1959 3584 
z
" transform="scale(0.015625)"/>
       <path id="DejaVuSans-47" d="M 2906 2969 
L 2906 4863 
L 3481 4863 
L 3481 0 
L 2906 0 
L 2906 525 
Q 2725 213 2448 61 
Q 2172 -91 1784 -91 
Q 1150 -91 751 415 
Q 353 922 353 1747 
Q 353 2572 751 3078 
Q 1150 3584 1784 3584 
Q 2172 3584 2448 3432 
Q 2725 3281 2906 2969 
z
M 947 1747 
Q 947 1113 1208 752 
Q 1469 391 1925 391 
Q 2381 391 2643 752 
Q 2906 1113 2906 1747 
Q 2906 2381 2643 2742 
Q 2381 3103 1925 3103 
Q 1469 3103 1208 2742 
Q 947 2381 947 1747 
z
" transform="scale(0.015625)"/>
       <path id="DejaVuSans-48" d="M 3597 1894 
L 3597 1613 
L 953 1613 
Q 991 1019 1311 708 
Q 1631 397 2203 397 
Q 2534 397 2845 478 
Q 3156 559 3463 722 
L 3463 178 
Q 3153 47 2828 -22 
Q 2503 -91 2169 -91 
Q 1331 -91 842 396 
Q 353 884 353 1716 
Q 353 2575 817 3079 
Q 1281 3584 2069 3584 
Q 2775 3584 3186 3129 
Q 3597 2675 3597 1894 
z
M 3022 2063 
Q 3016 2534 2758 2815 
Q 2500 3097 2075 3097 
Q 1594 3097 1305 2825 
Q 1016 2553 972 2059 
L 3022 2063 
z
" transform="scale(0.015625)"/>
       <path id="DejaVuSans-3" transform="scale(0.015625)"/>
       <path id="DejaVuSans-36" d="M 3425 4513 
L 3425 3897 
Q 3066 4069 2747 4153 
Q 2428 4238 2131 4238 
Q 1616 4238 1336 4038 
Q 1056 3838 1056 3469 
Q 1056 3159 1242 3001 
Q 1428 2844 1947 2747 
L 2328 2669 
Q 3034 2534 3370 2195 
Q 3706 1856 3706 1288 
Q 3706 609 3251 259 
Q 2797 -91 1919 -91 
Q 1588 -91 1214 -16 
Q 841 59 441 206 
L 441 856 
Q 825 641 1194 531 
Q 1563 422 1919 422 
Q 2459 422 2753 634 
Q 3047 847 3047 1241 
Q 3047 1584 2836 1778 
Q 2625 1972 2144 2069 
L 1759 2144 
Q 1053 2284 737 2584 
Q 422 2884 422 3419 
Q 422 4038 858 4394 
Q 1294 4750 2059 4750 
Q 2388 4750 2728 4690 
Q 3069 4631 3425 4513 
z
" transform="scale(0.015625)"/>
       <path id="DejaVuSans-4c" d="M 603 3500 
L 1178 3500 
L 1178 0 
L 603 0 
L 603 3500 
z
M 603 4863 
L 1178 4863 
L 1178 4134 
L 603 4134 
L 603 4863 
z
" transform="scale(0.015625)"/>
       <path id="DejaVuSans-5d" d="M 353 3500 
L 3084 3500 
L 3084 2975 
L 922 459 
L 3084 459 
L 3084 0 
L 275 0 
L 275 525 
L 2438 3041 
L 353 3041 
L 353 3500 
z
" transform="scale(0.015625)"/>
       <path id="DejaVuSans-ca7" d="M 1647 1134 
Q 2163 1134 2472 1884 
Q 2075 2703 1647 2703 
Q 1334 2703 1175 2478 
Q 1006 2238 1006 1919 
Q 1006 1569 1175 1353 
Q 1350 1134 1647 1134 
z
M 3884 1128 
L 3884 716 
L 3644 716 
Q 3416 716 3247 809 
Q 3078 894 2916 1091 
Q 2819 1203 2666 1466 
Q 2456 1091 2272 925 
Q 2044 725 1681 725 
Q 1259 725 981 1041 
Q 688 1372 688 1919 
Q 688 2444 981 2800 
Q 1241 3116 1688 3116 
Q 1916 3116 2084 3022 
Q 2281 2919 2416 2741 
Q 2541 2581 2666 2366 
Q 2875 2741 3059 2906 
Q 3288 3106 3650 3106 
L 3884 3106 
L 3884 2697 
L 3684 2697 
Q 3222 2697 2859 1947 
Q 3256 1128 3684 1128 
L 3884 1128 
z
" transform="scale(0.015625)"/>
       <path id="DejaVuSans-27" d="M 1259 4147 
L 1259 519 
L 2022 519 
Q 2988 519 3436 956 
Q 3884 1394 3884 2338 
Q 3884 3275 3436 3711 
Q 2988 4147 2022 4147 
L 1259 4147 
z
M 628 4666 
L 1925 4666 
Q 3281 4666 3915 4102 
Q 4550 3538 4550 2338 
Q 4550 1131 3912 565 
Q 3275 0 1925 0 
L 628 0 
L 628 4666 
z
" transform="scale(0.015625)"/>
       <path id="DejaVuSans-4a" d="M 2906 1791 
Q 2906 2416 2648 2759 
Q 2391 3103 1925 3103 
Q 1463 3103 1205 2759 
Q 947 2416 947 1791 
Q 947 1169 1205 825 
Q 1463 481 1925 481 
Q 2391 481 2648 825 
Q 2906 1169 2906 1791 
z
M 3481 434 
Q 3481 -459 3084 -895 
Q 2688 -1331 1869 -1331 
Q 1566 -1331 1297 -1286 
Q 1028 -1241 775 -1147 
L 775 -588 
Q 1028 -725 1275 -790 
Q 1522 -856 1778 -856 
Q 2344 -856 2625 -561 
Q 2906 -266 2906 331 
L 2906 616 
Q 2728 306 2450 153 
Q 2172 0 1784 0 
Q 1141 0 747 490 
Q 353 981 353 1791 
Q 353 2603 747 3093 
Q 1141 3584 1784 3584 
Q 2172 3584 2450 3431 
Q 2728 3278 2906 2969 
L 2906 3500 
L 3481 3500 
L 3481 434 
z
" transform="scale(0.015625)"/>
       <path id="DejaVuSans-55" d="M 2631 2963 
Q 2534 3019 2420 3045 
Q 2306 3072 2169 3072 
Q 1681 3072 1420 2755 
Q 1159 2438 1159 1844 
L 1159 0 
L 581 0 
L 581 3500 
L 1159 3500 
L 1159 2956 
Q 1341 3275 1631 3429 
Q 1922 3584 2338 3584 
Q 2397 3584 2469 3576 
Q 2541 3569 2628 3553 
L 2631 2963 
z
" transform="scale(0.015625)"/>
      </defs>
      <use xlink:href="#DejaVuSans-31"/>
      <use xlink:href="#DejaVuSans-52" transform="translate(74.8125 0)"/>
      <use xlink:href="#DejaVuSans-47" transform="translate(136 0)"/>
      <use xlink:href="#DejaVuSans-48" transform="translate(199.484375 0)"/>
      <use xlink:href="#DejaVuSans-3" transform="translate(261.015625 0)"/>
      <use xlink:href="#DejaVuSans-36" transform="translate(292.796875 0)"/>
      <use xlink:href="#DejaVuSans-4c" transform="translate(356.28125 0)"/>
      <use xlink:href="#DejaVuSans-5d" transform="translate(384.0625 0)"/>
      <use xlink:href="#DejaVuSans-48" transform="translate(436.546875 0)"/>
      <use xlink:href="#DejaVuSans-3" transform="translate(498.078125 0)"/>
      <use xlink:href="#DejaVuSans-ca7" transform="translate(529.859375 0)"/>
      <use xlink:href="#DejaVuSans-3" transform="translate(601.296875 0)"/>
      <use xlink:href="#DejaVuSans-27" transform="translate(633.078125 0)"/>
      <use xlink:href="#DejaVuSans-48" transform="translate(710.078125 0)"/>
      <use xlink:href="#DejaVuSans-4a" transform="translate(771.609375 0)"/>
      <use xlink:href="#DejaVuSans-55" transform="translate(835.09375 0)"/>
      <use xlink:href="#DejaVuSans-48" transform="translate(874 0)"/>
      <use xlink:href="#DejaVuSans-48" transform="translate(935.53125 0)"/>
     </g>
    </g>
    <g id="line2d_14">
     <path d="M 34.878545 65.116172 
L 42.878545 65.116172 
L 50.878545 65.116172 
" style="fill: none; stroke: #ffffff; stroke-width: 1.5; stroke-linecap: square"/>
     <defs>
      <path id="mdd5b36f71a" d="M 0 2.763953 
C 0.733009 2.763953 1.436094 2.472726 1.95441 1.95441 
C 2.472726 1.436094 2.763953 0.733009 2.763953 0 
C 2.763953 -0.733009 2.472726 -1.436094 1.95441 -1.95441 
C 1.436094 -2.472726 0.733009 -2.763953 0 -2.763953 
C -0.733009 -2.763953 -1.436094 -2.472726 -1.95441 -1.95441 
C -2.472726 -1.436094 -2.763953 -0.733009 -2.763953 0 
C -2.763953 0.733009 -2.472726 1.436094 -1.95441 1.95441 
C -1.436094 2.472726 -0.733009 2.763953 0 2.763953 
z
" style="stroke: #ffffff"/>
     </defs>
     <g>
      <use xlink:href="#mdd5b36f71a" x="42.878545" y="65.116172" style="fill: #757575; stroke: #ffffff"/>
     </g>
    </g>
    <g id="text_11">
     <!-- deg=1 -->
     <g transform="translate(57.278545 67.916172) scale(0.08 -0.08)">
      <defs>
       <path id="DejaVuSans-20" d="M 678 2906 
L 4684 2906 
L 4684 2381 
L 678 2381 
L 678 2906 
z
M 678 1631 
L 4684 1631 
L 4684 1100 
L 678 1100 
L 678 1631 
z
" transform="scale(0.015625)"/>
       <path id="DejaVuSans-14" d="M 794 531 
L 1825 531 
L 1825 4091 
L 703 3866 
L 703 4441 
L 1819 4666 
L 2450 4666 
L 2450 531 
L 3481 531 
L 3481 0 
L 794 0 
L 794 531 
z
" transform="scale(0.015625)"/>
      </defs>
      <use xlink:href="#DejaVuSans-47"/>
      <use xlink:href="#DejaVuSans-48" transform="translate(63.484375 0)"/>
      <use xlink:href="#DejaVuSans-4a" transform="translate(125.015625 0)"/>
      <use xlink:href="#DejaVuSans-20" transform="translate(188.5 0)"/>
      <use xlink:href="#DejaVuSans-14" transform="translate(272.296875 0)"/>
     </g>
    </g>
    <g id="line2d_15">
     <path d="M 34.878545 77.116797 
L 42.878545 77.116797 
L 50.878545 77.116797 
" style="fill: none; stroke: #ffffff; stroke-width: 1.5; stroke-linecap: square"/>
     <defs>
      <path id="m33cbcb77ca" d="M 0 3.532386 
C 0.9368 3.532386 1.835356 3.160191 2.497774 2.497774 
C 3.160191 1.835356 3.532386 0.9368 3.532386 0 
C 3.532386 -0.9368 3.160191 -1.835356 2.497774 -2.497774 
C 1.835356 -3.160191 0.9368 -3.532386 0 -3.532386 
C -0.9368 -3.532386 -1.835356 -3.160191 -2.497774 -2.497774 
C -3.160191 -1.835356 -3.532386 -0.9368 -3.532386 0 
C -3.532386 0.9368 -3.160191 1.835356 -2.497774 2.497774 
C -1.835356 3.160191 -0.9368 3.532386 0 3.532386 
z
" style="stroke: #ffffff"/>
     </defs>
     <g>
      <use xlink:href="#m33cbcb77ca" x="42.878545" y="77.116797" style="fill: #757575; stroke: #ffffff"/>
     </g>
    </g>
    <g id="text_12">
     <!-- deg=2 -->
     <g transform="translate(57.278545 79.916797) scale(0.08 -0.08)">
      <defs>
       <path id="DejaVuSans-15" d="M 1228 531 
L 3431 531 
L 3431 0 
L 469 0 
L 469 531 
Q 828 903 1448 1529 
Q 2069 2156 2228 2338 
Q 2531 2678 2651 2914 
Q 2772 3150 2772 3378 
Q 2772 3750 2511 3984 
Q 2250 4219 1831 4219 
Q 1534 4219 1204 4116 
Q 875 4013 500 3803 
L 500 4441 
Q 881 4594 1212 4672 
Q 1544 4750 1819 4750 
Q 2544 4750 2975 4387 
Q 3406 4025 3406 3419 
Q 3406 3131 3298 2873 
Q 3191 2616 2906 2266 
Q 2828 2175 2409 1742 
Q 1991 1309 1228 531 
z
" transform="scale(0.015625)"/>
      </defs>
      <use xlink:href="#DejaVuSans-47"/>
      <use xlink:href="#DejaVuSans-48" transform="translate(63.484375 0)"/>
      <use xlink:href="#DejaVuSans-4a" transform="translate(125.015625 0)"/>
      <use xlink:href="#DejaVuSans-20" transform="translate(188.5 0)"/>
      <use xlink:href="#DejaVuSans-15" transform="translate(272.296875 0)"/>
     </g>
    </g>
    <g id="line2d_16">
     <path d="M 34.878545 89.117422 
L 42.878545 89.117422 
L 50.878545 89.117422 
" style="fill: none; stroke: #ffffff; stroke-width: 1.5; stroke-linecap: square"/>
     <defs>
      <path id="m284465a7d2" d="M 0 4.161257 
C 1.103578 4.161257 2.162105 3.7228 2.942453 2.942453 
C 3.7228 2.162105 4.161257 1.103578 4.161257 0 
C 4.161257 -1.103578 3.7228 -2.162105 2.942453 -2.942453 
C 2.162105 -3.7228 1.103578 -4.161257 0 -4.161257 
C -1.103578 -4.161257 -2.162105 -3.7228 -2.942453 -2.942453 
C -3.7228 -2.162105 -4.161257 -1.103578 -4.161257 0 
C -4.161257 1.103578 -3.7228 2.162105 -2.942453 2.942453 
C -2.162105 3.7228 -1.103578 4.161257 0 4.161257 
z
" style="stroke: #ffffff"/>
     </defs>
     <g>
      <use xlink:href="#m284465a7d2" x="42.878545" y="89.117422" style="fill: #757575; stroke: #ffffff"/>
     </g>
    </g>
    <g id="text_13">
     <!-- deg=3 -->
     <g transform="translate(57.278545 91.917422) scale(0.08 -0.08)">
      <defs>
       <path id="DejaVuSans-16" d="M 2597 2516 
Q 3050 2419 3304 2112 
Q 3559 1806 3559 1356 
Q 3559 666 3084 287 
Q 2609 -91 1734 -91 
Q 1441 -91 1130 -33 
Q 819 25 488 141 
L 488 750 
Q 750 597 1062 519 
Q 1375 441 1716 441 
Q 2309 441 2620 675 
Q 2931 909 2931 1356 
Q 2931 1769 2642 2001 
Q 2353 2234 1838 2234 
L 1294 2234 
L 1294 2753 
L 1863 2753 
Q 2328 2753 2575 2939 
Q 2822 3125 2822 3475 
Q 2822 3834 2567 4026 
Q 2313 4219 1838 4219 
Q 1578 4219 1281 4162 
Q 984 4106 628 3988 
L 628 4550 
Q 988 4650 1302 4700 
Q 1616 4750 1894 4750 
Q 2613 4750 3031 4423 
Q 3450 4097 3450 3541 
Q 3450 3153 3228 2886 
Q 3006 2619 2597 2516 
z
" transform="scale(0.015625)"/>
      </defs>
      <use xlink:href="#DejaVuSans-47"/>
      <use xlink:href="#DejaVuSans-48" transform="translate(63.484375 0)"/>
      <use xlink:href="#DejaVuSans-4a" transform="translate(125.015625 0)"/>
      <use xlink:href="#DejaVuSans-20" transform="translate(188.5 0)"/>
      <use xlink:href="#DejaVuSans-16" transform="translate(272.296875 0)"/>
     </g>
    </g>
    <g id="line2d_17">
     <path d="M 34.878545 101.118047 
L 42.878545 101.118047 
L 50.878545 101.118047 
" style="fill: none; stroke: #ffffff; stroke-width: 1.5; stroke-linecap: square"/>
     <defs>
      <path id="m4b3ac97043" d="M 0 4.706843 
C 1.248269 4.706843 2.445581 4.2109 3.32824 3.32824 
C 4.2109 2.445581 4.706843 1.248269 4.706843 0 
C 4.706843 -1.248269 4.2109 -2.445581 3.32824 -3.32824 
C 2.445581 -4.2109 1.248269 -4.706843 0 -4.706843 
C -1.248269 -4.706843 -2.445581 -4.2109 -3.32824 -3.32824 
C -4.2109 -2.445581 -4.706843 -1.248269 -4.706843 0 
C -4.706843 1.248269 -4.2109 2.445581 -3.32824 3.32824 
C -2.445581 4.2109 -1.248269 4.706843 0 4.706843 
z
" style="stroke: #ffffff"/>
     </defs>
     <g>
      <use xlink:href="#m4b3ac97043" x="42.878545" y="101.118047" style="fill: #757575; stroke: #ffffff"/>
     </g>
    </g>
    <g id="text_14">
     <!-- deg=4 -->
     <g transform="translate(57.278545 103.918047) scale(0.08 -0.08)">
      <defs>
       <path id="DejaVuSans-17" d="M 2419 4116 
L 825 1625 
L 2419 1625 
L 2419 4116 
z
M 2253 4666 
L 3047 4666 
L 3047 1625 
L 3713 1625 
L 3713 1100 
L 3047 1100 
L 3047 0 
L 2419 0 
L 2419 1100 
L 313 1100 
L 313 1709 
L 2253 4666 
z
" transform="scale(0.015625)"/>
      </defs>
      <use xlink:href="#DejaVuSans-47"/>
      <use xlink:href="#DejaVuSans-48" transform="translate(63.484375 0)"/>
      <use xlink:href="#DejaVuSans-4a" transform="translate(125.015625 0)"/>
      <use xlink:href="#DejaVuSans-20" transform="translate(188.5 0)"/>
      <use xlink:href="#DejaVuSans-17" transform="translate(272.296875 0)"/>
     </g>
    </g>
    <g id="line2d_18">
     <path d="M 34.878545 113.118672 
L 42.878545 113.118672 
L 50.878545 113.118672 
" style="fill: none; stroke: #ffffff; stroke-width: 1.5; stroke-linecap: square"/>
     <defs>
      <path id="m96ca7c7ff5" d="M 0 5.641896 
C 1.496248 5.641896 2.931416 5.04743 3.989423 3.989423 
C 5.04743 2.931416 5.641896 1.496248 5.641896 0 
C 5.641896 -1.496248 5.04743 -2.931416 3.989423 -3.989423 
C 2.931416 -5.04743 1.496248 -5.641896 0 -5.641896 
C -1.496248 -5.641896 -2.931416 -5.04743 -3.989423 -3.989423 
C -5.04743 -2.931416 -5.641896 -1.496248 -5.641896 0 
C -5.641896 1.496248 -5.04743 2.931416 -3.989423 3.989423 
C -2.931416 5.04743 -1.496248 5.641896 0 5.641896 
z
" style="stroke: #ffffff"/>
     </defs>
     <g>
      <use xlink:href="#m96ca7c7ff5" x="42.878545" y="113.118672" style="fill: #757575; stroke: #ffffff"/>
     </g>
    </g>
    <g id="text_15">
     <!-- deg=6 -->
     <g transform="translate(57.278545 115.918672) scale(0.08 -0.08)">
      <defs>
       <path id="DejaVuSans-19" d="M 2113 2584 
Q 1688 2584 1439 2293 
Q 1191 2003 1191 1497 
Q 1191 994 1439 701 
Q 1688 409 2113 409 
Q 2538 409 2786 701 
Q 3034 994 3034 1497 
Q 3034 2003 2786 2293 
Q 2538 2584 2113 2584 
z
M 3366 4563 
L 3366 3988 
Q 3128 4100 2886 4159 
Q 2644 4219 2406 4219 
Q 1781 4219 1451 3797 
Q 1122 3375 1075 2522 
Q 1259 2794 1537 2939 
Q 1816 3084 2150 3084 
Q 2853 3084 3261 2657 
Q 3669 2231 3669 1497 
Q 3669 778 3244 343 
Q 2819 -91 2113 -91 
Q 1303 -91 875 529 
Q 447 1150 447 2328 
Q 447 3434 972 4092 
Q 1497 4750 2381 4750 
Q 2619 4750 2861 4703 
Q 3103 4656 3366 4563 
z
" transform="scale(0.015625)"/>
      </defs>
      <use xlink:href="#DejaVuSans-47"/>
      <use xlink:href="#DejaVuSans-48" transform="translate(63.484375 0)"/>
      <use xlink:href="#DejaVuSans-4a" transform="translate(125.015625 0)"/>
      <use xlink:href="#DejaVuSans-20" transform="translate(188.5 0)"/>
      <use xlink:href="#DejaVuSans-19" transform="translate(272.296875 0)"/>
     </g>
    </g>
    <g id="line2d_19">
     <path d="M 34.878545 125.119297 
L 42.878545 125.119297 
L 50.878545 125.119297 
" style="fill: none; stroke: #1e88e5; stroke-opacity: 0.6; stroke-width: 3; stroke-linecap: square"/>
    </g>
    <g id="text_16">
     <!-- Positive Correlation -->
     <g transform="translate(57.278545 127.919297) scale(0.08 -0.08)">
      <defs>
       <path id="DejaVuSans-33" d="M 1259 4147 
L 1259 2394 
L 2053 2394 
Q 2494 2394 2734 2622 
Q 2975 2850 2975 3272 
Q 2975 3691 2734 3919 
Q 2494 4147 2053 4147 
L 1259 4147 
z
M 628 4666 
L 2053 4666 
Q 2838 4666 3239 4311 
Q 3641 3956 3641 3272 
Q 3641 2581 3239 2228 
Q 2838 1875 2053 1875 
L 1259 1875 
L 1259 0 
L 628 0 
L 628 4666 
z
" transform="scale(0.015625)"/>
       <path id="DejaVuSans-56" d="M 2834 3397 
L 2834 2853 
Q 2591 2978 2328 3040 
Q 2066 3103 1784 3103 
Q 1356 3103 1142 2972 
Q 928 2841 928 2578 
Q 928 2378 1081 2264 
Q 1234 2150 1697 2047 
L 1894 2003 
Q 2506 1872 2764 1633 
Q 3022 1394 3022 966 
Q 3022 478 2636 193 
Q 2250 -91 1575 -91 
Q 1294 -91 989 -36 
Q 684 19 347 128 
L 347 722 
Q 666 556 975 473 
Q 1284 391 1588 391 
Q 1994 391 2212 530 
Q 2431 669 2431 922 
Q 2431 1156 2273 1281 
Q 2116 1406 1581 1522 
L 1381 1569 
Q 847 1681 609 1914 
Q 372 2147 372 2553 
Q 372 3047 722 3315 
Q 1072 3584 1716 3584 
Q 2034 3584 2315 3537 
Q 2597 3491 2834 3397 
z
" transform="scale(0.015625)"/>
       <path id="DejaVuSans-57" d="M 1172 4494 
L 1172 3500 
L 2356 3500 
L 2356 3053 
L 1172 3053 
L 1172 1153 
Q 1172 725 1289 603 
Q 1406 481 1766 481 
L 2356 481 
L 2356 0 
L 1766 0 
Q 1100 0 847 248 
Q 594 497 594 1153 
L 594 3053 
L 172 3053 
L 172 3500 
L 594 3500 
L 594 4494 
L 1172 4494 
z
" transform="scale(0.015625)"/>
       <path id="DejaVuSans-59" d="M 191 3500 
L 800 3500 
L 1894 563 
L 2988 3500 
L 3597 3500 
L 2284 0 
L 1503 0 
L 191 3500 
z
" transform="scale(0.015625)"/>
       <path id="DejaVuSans-26" d="M 4122 4306 
L 4122 3641 
Q 3803 3938 3442 4084 
Q 3081 4231 2675 4231 
Q 1875 4231 1450 3742 
Q 1025 3253 1025 2328 
Q 1025 1406 1450 917 
Q 1875 428 2675 428 
Q 3081 428 3442 575 
Q 3803 722 4122 1019 
L 4122 359 
Q 3791 134 3420 21 
Q 3050 -91 2638 -91 
Q 1578 -91 968 557 
Q 359 1206 359 2328 
Q 359 3453 968 4101 
Q 1578 4750 2638 4750 
Q 3056 4750 3426 4639 
Q 3797 4528 4122 4306 
z
" transform="scale(0.015625)"/>
       <path id="DejaVuSans-4f" d="M 603 4863 
L 1178 4863 
L 1178 0 
L 603 0 
L 603 4863 
z
" transform="scale(0.015625)"/>
       <path id="DejaVuSans-44" d="M 2194 1759 
Q 1497 1759 1228 1600 
Q 959 1441 959 1056 
Q 959 750 1161 570 
Q 1363 391 1709 391 
Q 2188 391 2477 730 
Q 2766 1069 2766 1631 
L 2766 1759 
L 2194 1759 
z
M 3341 1997 
L 3341 0 
L 2766 0 
L 2766 531 
Q 2569 213 2275 61 
Q 1981 -91 1556 -91 
Q 1019 -91 701 211 
Q 384 513 384 1019 
Q 384 1609 779 1909 
Q 1175 2209 1959 2209 
L 2766 2209 
L 2766 2266 
Q 2766 2663 2505 2880 
Q 2244 3097 1772 3097 
Q 1472 3097 1187 3025 
Q 903 2953 641 2809 
L 641 3341 
Q 956 3463 1253 3523 
Q 1550 3584 1831 3584 
Q 2591 3584 2966 3190 
Q 3341 2797 3341 1997 
z
" transform="scale(0.015625)"/>
       <path id="DejaVuSans-51" d="M 3513 2113 
L 3513 0 
L 2938 0 
L 2938 2094 
Q 2938 2591 2744 2837 
Q 2550 3084 2163 3084 
Q 1697 3084 1428 2787 
Q 1159 2491 1159 1978 
L 1159 0 
L 581 0 
L 581 3500 
L 1159 3500 
L 1159 2956 
Q 1366 3272 1645 3428 
Q 1925 3584 2291 3584 
Q 2894 3584 3203 3211 
Q 3513 2838 3513 2113 
z
" transform="scale(0.015625)"/>
      </defs>
      <use xlink:href="#DejaVuSans-33"/>
      <use xlink:href="#DejaVuSans-52" transform="translate(56.734375 0)"/>
      <use xlink:href="#DejaVuSans-56" transform="translate(117.921875 0)"/>
      <use xlink:href="#DejaVuSans-4c" transform="translate(170.015625 0)"/>
      <use xlink:href="#DejaVuSans-57" transform="translate(197.796875 0)"/>
      <use xlink:href="#DejaVuSans-4c" transform="translate(237 0)"/>
      <use xlink:href="#DejaVuSans-59" transform="translate(264.78125 0)"/>
      <use xlink:href="#DejaVuSans-48" transform="translate(323.96875 0)"/>
      <use xlink:href="#DejaVuSans-3" transform="translate(385.5 0)"/>
      <use xlink:href="#DejaVuSans-26" transform="translate(417.28125 0)"/>
      <use xlink:href="#DejaVuSans-52" transform="translate(487.109375 0)"/>
      <use xlink:href="#DejaVuSans-55" transform="translate(548.296875 0)"/>
      <use xlink:href="#DejaVuSans-55" transform="translate(587.65625 0)"/>
      <use xlink:href="#DejaVuSans-48" transform="translate(626.5625 0)"/>
      <use xlink:href="#DejaVuSans-4f" transform="translate(688.09375 0)"/>
      <use xlink:href="#DejaVuSans-44" transform="translate(715.875 0)"/>
      <use xlink:href="#DejaVuSans-57" transform="translate(777.15625 0)"/>
      <use xlink:href="#DejaVuSans-4c" transform="translate(816.359375 0)"/>
      <use xlink:href="#DejaVuSans-52" transform="translate(844.140625 0)"/>
      <use xlink:href="#DejaVuSans-51" transform="translate(905.328125 0)"/>
     </g>
    </g>
    <g id="line2d_20">
     <path d="M 34.878545 137.119922 
L 42.878545 137.119922 
L 50.878545 137.119922 
" style="fill: none; stroke: #e53935; stroke-opacity: 0.6; stroke-width: 3; stroke-linecap: square"/>
    </g>
    <g id="text_17">
     <!-- Negative Correlation -->
     <g transform="translate(57.278545 139.919922) scale(0.08 -0.08)">
      <use xlink:href="#DejaVuSans-31"/>
      <use xlink:href="#DejaVuSans-48" transform="translate(74.8125 0)"/>
      <use xlink:href="#DejaVuSans-4a" transform="translate(136.34375 0)"/>
      <use xlink:href="#DejaVuSans-44" transform="translate(199.828125 0)"/>
      <use xlink:href="#DejaVuSans-57" transform="translate(261.109375 0)"/>
      <use xlink:href="#DejaVuSans-4c" transform="translate(300.3125 0)"/>
      <use xlink:href="#DejaVuSans-59" transform="translate(328.09375 0)"/>
      <use xlink:href="#DejaVuSans-48" transform="translate(387.28125 0)"/>
      <use xlink:href="#DejaVuSans-3" transform="translate(448.8125 0)"/>
      <use xlink:href="#DejaVuSans-26" transform="translate(480.59375 0)"/>
      <use xlink:href="#DejaVuSans-52" transform="translate(550.421875 0)"/>
      <use xlink:href="#DejaVuSans-55" transform="translate(611.609375 0)"/>
      <use xlink:href="#DejaVuSans-55" transform="translate(650.96875 0)"/>
      <use xlink:href="#DejaVuSans-48" transform="translate(689.875 0)"/>
      <use xlink:href="#DejaVuSans-4f" transform="translate(751.40625 0)"/>
      <use xlink:href="#DejaVuSans-44" transform="translate(779.1875 0)"/>
      <use xlink:href="#DejaVuSans-57" transform="translate(840.46875 0)"/>
      <use xlink:href="#DejaVuSans-4c" transform="translate(879.671875 0)"/>
      <use xlink:href="#DejaVuSans-52" transform="translate(907.453125 0)"/>
      <use xlink:href="#DejaVuSans-51" transform="translate(968.640625 0)"/>
     </g>
    </g>
   </g>
  </g>
  <g id="axes_2">
   <g id="patch_11">
    <path d="M 481.001782 341.927344 
L 492.26268 341.927344 
L 492.26268 116.709375 
L 481.001782 116.709375 
z
" style="fill: #ffffff"/>
   </g>
   <g id="QuadMesh_1">
    <path d="M 481.001782 341.927344 
L 492.26268 341.927344 
L 492.26268 229.318359 
L 481.001782 229.318359 
L 481.001782 341.927344 
" clip-path="url(#p6f4b1f20a8)" style="fill: #4c72b0"/>
    <path d="M 481.001782 229.318359 
L 492.26268 229.318359 
L 492.26268 116.709375 
L 481.001782 116.709375 
L 481.001782 229.318359 
" clip-path="url(#p6f4b1f20a8)" style="fill: #dd8452"/>
   </g>
   <g id="matplotlib.axis_1"/>
   <g id="matplotlib.axis_2">
    <g id="ytick_1">
     <g id="line2d_21">
      <defs>
       <path id="m274e5d3b04" d="M 0 0 
L 3.5 0 
" style="stroke: #000000; stroke-width: 0.8"/>
      </defs>
      <g>
       <use xlink:href="#m274e5d3b04" x="492.26268" y="341.927344" style="stroke: #000000; stroke-width: 0.8"/>
      </g>
     </g>
     <g id="text_18">
      <!-- 0 -->
      <g transform="translate(499.26268 344.966406) scale(0.08 -0.08)">
       <defs>
        <path id="DejaVuSans-13" d="M 2034 4250 
Q 1547 4250 1301 3770 
Q 1056 3291 1056 2328 
Q 1056 1369 1301 889 
Q 1547 409 2034 409 
Q 2525 409 2770 889 
Q 3016 1369 3016 2328 
Q 3016 3291 2770 3770 
Q 2525 4250 2034 4250 
z
M 2034 4750 
Q 2819 4750 3233 4129 
Q 3647 3509 3647 2328 
Q 3647 1150 3233 529 
Q 2819 -91 2034 -91 
Q 1250 -91 836 529 
Q 422 1150 422 2328 
Q 422 3509 836 4129 
Q 1250 4750 2034 4750 
z
" transform="scale(0.015625)"/>
       </defs>
       <use xlink:href="#DejaVuSans-13"/>
      </g>
     </g>
    </g>
    <g id="ytick_2">
     <g id="line2d_22">
      <g>
       <use xlink:href="#m274e5d3b04" x="492.26268" y="116.709375" style="stroke: #000000; stroke-width: 0.8"/>
      </g>
     </g>
     <g id="text_19">
      <!-- 1 -->
      <g transform="translate(499.26268 119.748437) scale(0.08 -0.08)">
       <use xlink:href="#DejaVuSans-14"/>
      </g>
     </g>
    </g>
    <g id="text_20">
     <!-- Community -->
     <g transform="translate(515.951118 258.255859) rotate(-90) scale(0.1 -0.1)">
      <defs>
       <path id="DejaVuSans-50" d="M 3328 2828 
Q 3544 3216 3844 3400 
Q 4144 3584 4550 3584 
Q 5097 3584 5394 3201 
Q 5691 2819 5691 2113 
L 5691 0 
L 5113 0 
L 5113 2094 
Q 5113 2597 4934 2840 
Q 4756 3084 4391 3084 
Q 3944 3084 3684 2787 
Q 3425 2491 3425 1978 
L 3425 0 
L 2847 0 
L 2847 2094 
Q 2847 2600 2669 2842 
Q 2491 3084 2119 3084 
Q 1678 3084 1418 2786 
Q 1159 2488 1159 1978 
L 1159 0 
L 581 0 
L 581 3500 
L 1159 3500 
L 1159 2956 
Q 1356 3278 1631 3431 
Q 1906 3584 2284 3584 
Q 2666 3584 2933 3390 
Q 3200 3197 3328 2828 
z
" transform="scale(0.015625)"/>
       <path id="DejaVuSans-58" d="M 544 1381 
L 544 3500 
L 1119 3500 
L 1119 1403 
Q 1119 906 1312 657 
Q 1506 409 1894 409 
Q 2359 409 2629 706 
Q 2900 1003 2900 1516 
L 2900 3500 
L 3475 3500 
L 3475 0 
L 2900 0 
L 2900 538 
Q 2691 219 2414 64 
Q 2138 -91 1772 -91 
Q 1169 -91 856 284 
Q 544 659 544 1381 
z
M 1991 3584 
L 1991 3584 
z
" transform="scale(0.015625)"/>
       <path id="DejaVuSans-5c" d="M 2059 -325 
Q 1816 -950 1584 -1140 
Q 1353 -1331 966 -1331 
L 506 -1331 
L 506 -850 
L 844 -850 
Q 1081 -850 1212 -737 
Q 1344 -625 1503 -206 
L 1606 56 
L 191 3500 
L 800 3500 
L 1894 763 
L 2988 3500 
L 3597 3500 
L 2059 -325 
z
" transform="scale(0.015625)"/>
      </defs>
      <use xlink:href="#DejaVuSans-26"/>
      <use xlink:href="#DejaVuSans-52" transform="translate(69.828125 0)"/>
      <use xlink:href="#DejaVuSans-50" transform="translate(131.015625 0)"/>
      <use xlink:href="#DejaVuSans-50" transform="translate(228.421875 0)"/>
      <use xlink:href="#DejaVuSans-58" transform="translate(325.828125 0)"/>
      <use xlink:href="#DejaVuSans-51" transform="translate(389.203125 0)"/>
      <use xlink:href="#DejaVuSans-4c" transform="translate(452.578125 0)"/>
      <use xlink:href="#DejaVuSans-57" transform="translate(480.359375 0)"/>
      <use xlink:href="#DejaVuSans-5c" transform="translate(519.5625 0)"/>
     </g>
    </g>
   </g>
   <g id="LineCollection_1"/>
   <g id="patch_12">
    <path d="M 481.001782 341.927344 
L 486.632231 341.927344 
L 492.26268 341.927344 
L 492.26268 116.709375 
L 486.632231 116.709375 
L 481.001782 116.709375 
L 481.001782 341.927344 
z
" style="fill: none; stroke: #000000; stroke-width: 0.8; stroke-linejoin: miter; stroke-linecap: square"/>
   </g>
  </g>
 </g>
 <defs>
  <clipPath id="pe8c4e7b5c0">
   <rect x="27.678545" y="41.636719" width="442.656807" height="375.363281"/>
  </clipPath>
  <clipPath id="p6f4b1f20a8">
   <rect x="481.001782" y="116.709375" width="11.260898" height="225.217969"/>
  </clipPath>
 </defs>
</svg>
